%TF.GenerationSoftware,KiCad,Pcbnew,9.0.7*%
%TF.CreationDate,2026-06-20T10:17:11+03:00*%
%TF.ProjectId,Numpad,4e756d70-6164-42e6-9b69-6361645f7063,rev?*%
%TF.SameCoordinates,Original*%
%TF.FileFunction,NonPlated,1,2,NPTH,Drill*%
%TF.FilePolarity,Positive*%
%FSLAX46Y46*%
G04 Gerber Fmt 4.6, Leading zero omitted, Abs format (unit mm)*
G04 Created by KiCad (PCBNEW 9.0.7) date 2026-06-20 10:17:11*
%MOMM*%
%LPD*%
G01*
G04 APERTURE LIST*
%TA.AperFunction,ComponentDrill*%
%ADD10C,1.750000*%
%TD*%
%TA.AperFunction,ComponentDrill*%
%ADD11C,2.200000*%
%TD*%
%TA.AperFunction,ComponentDrill*%
%ADD12C,3.200000*%
%TD*%
%TA.AperFunction,ComponentDrill*%
%ADD13C,4.000000*%
%TD*%
G04 APERTURE END LIST*
D10*
%TO.C,SW1*%
X172190000Y-126425000D03*
%TO.C,SW5*%
X172190000Y-145475000D03*
%TO.C,SW9*%
X172190000Y-164525000D03*
%TO.C,SW12*%
X172190000Y-183575000D03*
%TO.C,SW17*%
X181690000Y-202625000D03*
%TO.C,SW1*%
X182350000Y-126425000D03*
%TO.C,SW5*%
X182350000Y-145475000D03*
%TO.C,SW9*%
X182350000Y-164525000D03*
%TO.C,SW12*%
X182350000Y-183575000D03*
%TO.C,SW2*%
X191240000Y-126425000D03*
%TO.C,SW6*%
X191240000Y-145475000D03*
%TO.C,SW10*%
X191240000Y-164525000D03*
%TO.C,SW13*%
X191240000Y-183575000D03*
%TO.C,SW17*%
X191850000Y-202625000D03*
%TO.C,SW2*%
X201400000Y-126425000D03*
%TO.C,SW6*%
X201400000Y-145475000D03*
%TO.C,SW10*%
X201400000Y-164525000D03*
%TO.C,SW13*%
X201400000Y-183575000D03*
%TO.C,SW3*%
X210290000Y-126425000D03*
%TO.C,SW7*%
X210290000Y-145475000D03*
%TO.C,SW11*%
X210290000Y-164525000D03*
%TO.C,SW14*%
X210290000Y-183575000D03*
%TO.C,SW16*%
X210290000Y-202625000D03*
%TO.C,SW3*%
X220450000Y-126425000D03*
%TO.C,SW7*%
X220450000Y-145475000D03*
%TO.C,SW11*%
X220450000Y-164525000D03*
%TO.C,SW14*%
X220450000Y-183575000D03*
%TO.C,SW16*%
X220450000Y-202625000D03*
%TO.C,SW4*%
X229340000Y-126425000D03*
%TO.C,SW8*%
X234420000Y-149920000D03*
X234420000Y-160080000D03*
%TO.C,SW15*%
X234420000Y-188020000D03*
X234420000Y-198180000D03*
%TO.C,SW4*%
X239500000Y-126425000D03*
D11*
%TO.C,J1*%
X193495550Y-75000000D03*
X193495550Y-98000000D03*
X214500000Y-75000000D03*
X214500000Y-98000000D03*
D12*
%TO.C,H3*%
X131500000Y-221000000D03*
%TO.C,H1*%
X171000000Y-88000000D03*
%TO.C,H2*%
X239500000Y-88000000D03*
%TO.C,H4*%
X259500000Y-221000000D03*
D13*
%TO.C,SW1*%
X177270000Y-126425000D03*
%TO.C,SW5*%
X177270000Y-145475000D03*
%TO.C,SW9*%
X177270000Y-164525000D03*
%TO.C,SW12*%
X177270000Y-183575000D03*
%TO.C,SW17*%
X186770000Y-202625000D03*
%TO.C,SW2*%
X196320000Y-126425000D03*
%TO.C,SW6*%
X196320000Y-145475000D03*
%TO.C,SW10*%
X196320000Y-164525000D03*
%TO.C,SW13*%
X196320000Y-183575000D03*
%TO.C,SW3*%
X215370000Y-126425000D03*
%TO.C,SW7*%
X215370000Y-145475000D03*
%TO.C,SW11*%
X215370000Y-164525000D03*
%TO.C,SW14*%
X215370000Y-183575000D03*
%TO.C,SW16*%
X215370000Y-202625000D03*
%TO.C,SW4*%
X234420000Y-126425000D03*
%TO.C,SW8*%
X234420000Y-155000000D03*
%TO.C,SW15*%
X234420000Y-193100000D03*
M02*
