%TF.GenerationSoftware,KiCad,Pcbnew,9.0.7*%
%TF.CreationDate,2026-06-20T10:17:00+03:00*%
%TF.ProjectId,Numpad,4e756d70-6164-42e6-9b69-6361645f7063,rev?*%
%TF.SameCoordinates,Original*%
%TF.FileFunction,Soldermask,Top*%
%TF.FilePolarity,Negative*%
%FSLAX46Y46*%
G04 Gerber Fmt 4.6, Leading zero omitted, Abs format (unit mm)*
G04 Created by KiCad (PCBNEW 9.0.7) date 2026-06-20 10:17:00*
%MOMM*%
%LPD*%
G01*
G04 APERTURE LIST*
G04 Aperture macros list*
%AMRoundRect*
0 Rectangle with rounded corners*
0 $1 Rounding radius*
0 $2 $3 $4 $5 $6 $7 $8 $9 X,Y pos of 4 corners*
0 Add a 4 corners polygon primitive as box body*
4,1,4,$2,$3,$4,$5,$6,$7,$8,$9,$2,$3,0*
0 Add four circle primitives for the rounded corners*
1,1,$1+$1,$2,$3*
1,1,$1+$1,$4,$5*
1,1,$1+$1,$6,$7*
1,1,$1+$1,$8,$9*
0 Add four rect primitives between the rounded corners*
20,1,$1+$1,$2,$3,$4,$5,0*
20,1,$1+$1,$4,$5,$6,$7,0*
20,1,$1+$1,$6,$7,$8,$9,0*
20,1,$1+$1,$8,$9,$2,$3,0*%
G04 Aperture macros list end*
%ADD10O,1.200000X1.750000*%
%ADD11RoundRect,0.250000X-0.350000X-0.625000X0.350000X-0.625000X0.350000X0.625000X-0.350000X0.625000X0*%
%ADD12C,1.750000*%
%ADD13C,4.000000*%
%ADD14C,2.500000*%
%ADD15C,1.752600*%
%ADD16O,2.200000X3.500000*%
%ADD17R,1.500000X2.500000*%
%ADD18O,1.500000X2.500000*%
%ADD19C,3.200000*%
%ADD20C,2.404000*%
%ADD21RoundRect,0.102000X0.754000X0.754000X-0.754000X0.754000X-0.754000X-0.754000X0.754000X-0.754000X0*%
%ADD22C,1.712000*%
%ADD23R,1.600000X1.600000*%
%ADD24O,1.600000X1.600000*%
G04 APERTURE END LIST*
D10*
%TO.C,J2*%
X149500000Y-253450000D03*
D11*
X147500000Y-253450000D03*
%TD*%
D12*
%TO.C,SW14*%
X210290000Y-183575000D03*
D13*
X215370000Y-183575000D03*
D12*
X220450000Y-183575000D03*
D14*
X211560000Y-181035000D03*
X217910000Y-178495000D03*
%TD*%
D12*
%TO.C,SW11*%
X210290000Y-164525000D03*
D13*
X215370000Y-164525000D03*
D12*
X220450000Y-164525000D03*
D14*
X211560000Y-161985000D03*
X217910000Y-159445000D03*
%TD*%
D12*
%TO.C,SW12*%
X172190000Y-183575000D03*
D13*
X177270000Y-183575000D03*
D12*
X182350000Y-183575000D03*
D14*
X173460000Y-181035000D03*
X179810000Y-178495000D03*
%TD*%
D12*
%TO.C,SW2*%
X191240000Y-126425000D03*
D13*
X196320000Y-126425000D03*
D12*
X201400000Y-126425000D03*
D14*
X192510000Y-123885000D03*
X198860000Y-121345000D03*
%TD*%
D12*
%TO.C,SW16*%
X210290000Y-202625000D03*
D13*
X215370000Y-202625000D03*
D12*
X220450000Y-202625000D03*
D14*
X211560000Y-200085000D03*
X217910000Y-197545000D03*
%TD*%
D15*
%TO.C,U1*%
X210120000Y-254560000D03*
X210120000Y-252020000D03*
X210120000Y-249480000D03*
X210120000Y-246940000D03*
X210120000Y-244400000D03*
X210120000Y-241860000D03*
X210120000Y-239320000D03*
X210120000Y-236780000D03*
X210120000Y-234240000D03*
X210120000Y-231700000D03*
X210120000Y-229160000D03*
X210120000Y-226620000D03*
X194880000Y-226620000D03*
X194880000Y-229160000D03*
X194880000Y-231700000D03*
X194880000Y-234240000D03*
X194880000Y-236780000D03*
X194880000Y-239320000D03*
X194880000Y-241860000D03*
X194880000Y-244400000D03*
X194880000Y-246940000D03*
X194880000Y-249480000D03*
X194880000Y-252020000D03*
X194880000Y-254560000D03*
X207580000Y-231700000D03*
X205040000Y-231700000D03*
X202500000Y-231700000D03*
%TD*%
D12*
%TO.C,SW1*%
X172190000Y-126425000D03*
D13*
X177270000Y-126425000D03*
D12*
X182350000Y-126425000D03*
D14*
X173460000Y-123885000D03*
X179810000Y-121345000D03*
%TD*%
D16*
%TO.C,SW18*%
X172400000Y-262500000D03*
X180600000Y-262500000D03*
D17*
X174500000Y-262500000D03*
D18*
X176500000Y-262500000D03*
X178500000Y-262500000D03*
%TD*%
D19*
%TO.C,H4*%
X259500000Y-221000000D03*
%TD*%
D12*
%TO.C,SW6*%
X191240000Y-145475000D03*
D13*
X196320000Y-145475000D03*
D12*
X201400000Y-145475000D03*
D14*
X192510000Y-142935000D03*
X198860000Y-140395000D03*
%TD*%
D12*
%TO.C,SW7*%
X210290000Y-145475000D03*
D13*
X215370000Y-145475000D03*
D12*
X220450000Y-145475000D03*
D14*
X211560000Y-142935000D03*
X217910000Y-140395000D03*
%TD*%
D12*
%TO.C,SW5*%
X172190000Y-145475000D03*
D13*
X177270000Y-145475000D03*
D12*
X182350000Y-145475000D03*
D14*
X173460000Y-142935000D03*
X179810000Y-140395000D03*
%TD*%
D12*
%TO.C,SW3*%
X210290000Y-126425000D03*
D13*
X215370000Y-126425000D03*
D12*
X220450000Y-126425000D03*
D14*
X211560000Y-123885000D03*
X217910000Y-121345000D03*
%TD*%
D12*
%TO.C,SW13*%
X191240000Y-183575000D03*
D13*
X196320000Y-183575000D03*
D12*
X201400000Y-183575000D03*
D14*
X192510000Y-181035000D03*
X198860000Y-178495000D03*
%TD*%
D20*
%TO.C,J1*%
X193495550Y-75000000D03*
X193495550Y-98000000D03*
X214500000Y-75000000D03*
X214500000Y-98000000D03*
D21*
X207810000Y-98500000D03*
D22*
X205270000Y-98500000D03*
X202730000Y-98500000D03*
X200190000Y-98500000D03*
%TD*%
D12*
%TO.C,SW17*%
X181690000Y-202625000D03*
D13*
X186770000Y-202625000D03*
D12*
X191850000Y-202625000D03*
D14*
X182960000Y-200085000D03*
X189310000Y-197545000D03*
%TD*%
D12*
%TO.C,SW10*%
X191240000Y-164525000D03*
D13*
X196320000Y-164525000D03*
D12*
X201400000Y-164525000D03*
D14*
X192510000Y-161985000D03*
X198860000Y-159445000D03*
%TD*%
D12*
%TO.C,SW9*%
X172190000Y-164525000D03*
D13*
X177270000Y-164525000D03*
D12*
X182350000Y-164525000D03*
D14*
X173460000Y-161985000D03*
X179810000Y-159445000D03*
%TD*%
D19*
%TO.C,H2*%
X239500000Y-88000000D03*
%TD*%
%TO.C,H1*%
X171000000Y-88000000D03*
%TD*%
D12*
%TO.C,SW8*%
X234420000Y-160080000D03*
D13*
X234420000Y-155000000D03*
D12*
X234420000Y-149920000D03*
D14*
X231880000Y-158810000D03*
X229340000Y-152460000D03*
%TD*%
D19*
%TO.C,H3*%
X131500000Y-221000000D03*
%TD*%
D12*
%TO.C,SW4*%
X229340000Y-126425000D03*
D13*
X234420000Y-126425000D03*
D12*
X239500000Y-126425000D03*
D14*
X230610000Y-123885000D03*
X236960000Y-121345000D03*
%TD*%
D12*
%TO.C,SW15*%
X234420000Y-198180000D03*
D13*
X234420000Y-193100000D03*
D12*
X234420000Y-188020000D03*
D14*
X231880000Y-196910000D03*
X229340000Y-190560000D03*
%TD*%
D23*
%TO.C,D3*%
X220450000Y-130425000D03*
D24*
X220450000Y-122805000D03*
%TD*%
D23*
%TO.C,D13*%
X220450000Y-187575000D03*
D24*
X220450000Y-179955000D03*
%TD*%
D23*
%TO.C,D11*%
X220450000Y-168525000D03*
D24*
X220450000Y-160905000D03*
%TD*%
D23*
%TO.C,D14*%
X201400000Y-187575000D03*
D24*
X201400000Y-179955000D03*
%TD*%
D23*
%TO.C,D16*%
X194670000Y-206635000D03*
D24*
X194670000Y-199015000D03*
%TD*%
D23*
%TO.C,D8*%
X182350000Y-149475000D03*
D24*
X182350000Y-141855000D03*
%TD*%
D23*
%TO.C,D4*%
X239500000Y-130425000D03*
D24*
X239500000Y-122805000D03*
%TD*%
D23*
%TO.C,D9*%
X182350000Y-168525000D03*
D24*
X182350000Y-160905000D03*
%TD*%
D23*
%TO.C,D10*%
X201400000Y-168525000D03*
D24*
X201400000Y-160905000D03*
%TD*%
D23*
%TO.C,D5*%
X239500000Y-159000000D03*
D24*
X239500000Y-151380000D03*
%TD*%
D23*
%TO.C,D7*%
X201400000Y-149475000D03*
D24*
X201400000Y-141855000D03*
%TD*%
D23*
%TO.C,D2*%
X201400000Y-130425000D03*
D24*
X201400000Y-122805000D03*
%TD*%
D23*
%TO.C,D6*%
X220450000Y-149475000D03*
D24*
X220450000Y-141855000D03*
%TD*%
D23*
%TO.C,D15*%
X182350000Y-187575000D03*
D24*
X182350000Y-179955000D03*
%TD*%
D23*
%TO.C,D12*%
X239500000Y-197100000D03*
D24*
X239500000Y-189480000D03*
%TD*%
D23*
%TO.C,D1*%
X182350000Y-130425000D03*
D24*
X182350000Y-122805000D03*
%TD*%
D23*
%TO.C,D17*%
X224170000Y-206635000D03*
D24*
X224170000Y-199015000D03*
%TD*%
M02*
