%TF.GenerationSoftware,KiCad,Pcbnew,9.0.7*%
%TF.CreationDate,2026-06-20T10:17:11+03:00*%
%TF.ProjectId,Numpad,4e756d70-6164-42e6-9b69-6361645f7063,rev?*%
%TF.SameCoordinates,Original*%
%TF.FileFunction,Plated,1,2,PTH,Drill*%
%TF.FilePolarity,Positive*%
%FSLAX46Y46*%
G04 Gerber Fmt 4.6, Leading zero omitted, Abs format (unit mm)*
G04 Created by KiCad (PCBNEW 9.0.7) date 2026-06-20 10:17:11*
%MOMM*%
%LPD*%
G01*
G04 APERTURE LIST*
%TA.AperFunction,ComponentDrill*%
%ADD10C,0.750000*%
%TD*%
%TA.AperFunction,ComponentDrill*%
%ADD11C,0.800000*%
%TD*%
%TA.AperFunction,ComponentDrill*%
%ADD12C,0.900000*%
%TD*%
%TA.AperFunction,ComponentDrill*%
%ADD13C,1.000000*%
%TD*%
%TA.AperFunction,ComponentDrill*%
%ADD14C,1.092200*%
%TD*%
%TA.AperFunction,ComponentDrill*%
%ADD15C,1.500000*%
%TD*%
G04 APERTURE END LIST*
D10*
%TO.C,J2*%
X147500000Y-253450000D03*
X149500000Y-253450000D03*
D11*
%TO.C,D1*%
X182350000Y-122805000D03*
X182350000Y-130425000D03*
%TO.C,D8*%
X182350000Y-141855000D03*
X182350000Y-149475000D03*
%TO.C,D9*%
X182350000Y-160905000D03*
X182350000Y-168525000D03*
%TO.C,D15*%
X182350000Y-179955000D03*
X182350000Y-187575000D03*
%TO.C,D16*%
X194670000Y-199015000D03*
X194670000Y-206635000D03*
%TO.C,D2*%
X201400000Y-122805000D03*
X201400000Y-130425000D03*
%TO.C,D7*%
X201400000Y-141855000D03*
X201400000Y-149475000D03*
%TO.C,D10*%
X201400000Y-160905000D03*
X201400000Y-168525000D03*
%TO.C,D14*%
X201400000Y-179955000D03*
X201400000Y-187575000D03*
%TO.C,D3*%
X220450000Y-122805000D03*
X220450000Y-130425000D03*
%TO.C,D6*%
X220450000Y-141855000D03*
X220450000Y-149475000D03*
%TO.C,D11*%
X220450000Y-160905000D03*
X220450000Y-168525000D03*
%TO.C,D13*%
X220450000Y-179955000D03*
X220450000Y-187575000D03*
%TO.C,D17*%
X224170000Y-199015000D03*
X224170000Y-206635000D03*
%TO.C,D4*%
X239500000Y-122805000D03*
X239500000Y-130425000D03*
%TO.C,D5*%
X239500000Y-151380000D03*
X239500000Y-159000000D03*
%TO.C,D12*%
X239500000Y-189480000D03*
X239500000Y-197100000D03*
D12*
%TO.C,SW18*%
X174500000Y-262500000D03*
X176500000Y-262500000D03*
X178500000Y-262500000D03*
D13*
%TO.C,J1*%
X200190000Y-98500000D03*
X202730000Y-98500000D03*
X205270000Y-98500000D03*
X207810000Y-98500000D03*
D14*
%TO.C,U1*%
X194880000Y-226620000D03*
X194880000Y-229160000D03*
X194880000Y-231700000D03*
X194880000Y-234240000D03*
X194880000Y-236780000D03*
X194880000Y-239320000D03*
X194880000Y-241860000D03*
X194880000Y-244400000D03*
X194880000Y-246940000D03*
X194880000Y-249480000D03*
X194880000Y-252020000D03*
X194880000Y-254560000D03*
X202500000Y-231700000D03*
X205040000Y-231700000D03*
X207580000Y-231700000D03*
X210120000Y-226620000D03*
X210120000Y-229160000D03*
X210120000Y-231700000D03*
X210120000Y-234240000D03*
X210120000Y-236780000D03*
X210120000Y-239320000D03*
X210120000Y-241860000D03*
X210120000Y-244400000D03*
X210120000Y-246940000D03*
X210120000Y-249480000D03*
X210120000Y-252020000D03*
X210120000Y-254560000D03*
D15*
%TO.C,SW18*%
X172400000Y-262500000D03*
%TO.C,SW1*%
X173460000Y-123885000D03*
%TO.C,SW5*%
X173460000Y-142935000D03*
%TO.C,SW9*%
X173460000Y-161985000D03*
%TO.C,SW12*%
X173460000Y-181035000D03*
%TO.C,SW1*%
X179810000Y-121345000D03*
%TO.C,SW5*%
X179810000Y-140395000D03*
%TO.C,SW9*%
X179810000Y-159445000D03*
%TO.C,SW12*%
X179810000Y-178495000D03*
%TO.C,SW18*%
X180600000Y-262500000D03*
%TO.C,SW17*%
X182960000Y-200085000D03*
X189310000Y-197545000D03*
%TO.C,SW2*%
X192510000Y-123885000D03*
%TO.C,SW6*%
X192510000Y-142935000D03*
%TO.C,SW10*%
X192510000Y-161985000D03*
%TO.C,SW13*%
X192510000Y-181035000D03*
%TO.C,SW2*%
X198860000Y-121345000D03*
%TO.C,SW6*%
X198860000Y-140395000D03*
%TO.C,SW10*%
X198860000Y-159445000D03*
%TO.C,SW13*%
X198860000Y-178495000D03*
%TO.C,SW3*%
X211560000Y-123885000D03*
%TO.C,SW7*%
X211560000Y-142935000D03*
%TO.C,SW11*%
X211560000Y-161985000D03*
%TO.C,SW14*%
X211560000Y-181035000D03*
%TO.C,SW16*%
X211560000Y-200085000D03*
%TO.C,SW3*%
X217910000Y-121345000D03*
%TO.C,SW7*%
X217910000Y-140395000D03*
%TO.C,SW11*%
X217910000Y-159445000D03*
%TO.C,SW14*%
X217910000Y-178495000D03*
%TO.C,SW16*%
X217910000Y-197545000D03*
%TO.C,SW8*%
X229340000Y-152460000D03*
%TO.C,SW15*%
X229340000Y-190560000D03*
%TO.C,SW4*%
X230610000Y-123885000D03*
%TO.C,SW8*%
X231880000Y-158810000D03*
%TO.C,SW15*%
X231880000Y-196910000D03*
%TO.C,SW4*%
X236960000Y-121345000D03*
M02*
