ISO-10303-21;
HEADER;
/* Generated by software containing ST-Developer
 * from STEP Tools, Inc. (www.steptools.com) 
 */

FILE_DESCRIPTION(
/* description */ (''),
/* implementation_level */ '2;1');

FILE_NAME(
/* name */ 'Cover_3.step',
/* time_stamp */ '2026-06-17T07:06:08+03:00',
/* author */ (''),
/* organization */ (''),
/* preprocessor_version */ 'ST-DEVELOPER v20.1',
/* originating_system */ 'Autodesk Translation Framework v15.8.0.0',
/* authorisation */ '');

FILE_SCHEMA (('AUTOMOTIVE_DESIGN { 1 0 10303 214 3 1 1 }'));
ENDSEC;

DATA;
#10=MECHANICAL_DESIGN_GEOMETRIC_PRESENTATION_REPRESENTATION('',(#19,#20,
#21,#22,#23,#24,#25,#26,#27,#28,#29),#2169);
#11=ITEM_DEFINED_TRANSFORMATION($,$,#1269,#1419);
#12=(
REPRESENTATION_RELATIONSHIP($,$,#2180,#2179)
REPRESENTATION_RELATIONSHIP_WITH_TRANSFORMATION(#11)
SHAPE_REPRESENTATION_RELATIONSHIP()
);
#13=CONTEXT_DEPENDENT_SHAPE_REPRESENTATION(#12,#2178);
#14=NEXT_ASSEMBLY_USAGE_OCCURRENCE('Cover:1','Cover:1','Cover:1',#2182,
#2183,'Cover:1');
#15=SHAPE_REPRESENTATION_RELATIONSHIP('SRR','None',#2180,#17);
#16=SHAPE_REPRESENTATION_RELATIONSHIP('SRR','None',#2179,#18);
#17=ADVANCED_BREP_SHAPE_REPRESENTATION('',(#30),#2168);
#18=ADVANCED_BREP_SHAPE_REPRESENTATION('',(#31,#32,#33,#34,#35,#36,#37,
#38,#39,#40),#2167);
#19=STYLED_ITEM('',(#2193),#30);
#20=STYLED_ITEM('',(#2193),#31);
#21=STYLED_ITEM('',(#2193),#32);
#22=STYLED_ITEM('',(#2193),#33);
#23=STYLED_ITEM('',(#2193),#34);
#24=STYLED_ITEM('',(#2193),#35);
#25=STYLED_ITEM('',(#2193),#36);
#26=STYLED_ITEM('',(#2193),#37);
#27=STYLED_ITEM('',(#2193),#38);
#28=STYLED_ITEM('',(#2193),#39);
#29=STYLED_ITEM('',(#2193),#40);
#30=MANIFOLD_SOLID_BREP('Body1',#1245);
#31=MANIFOLD_SOLID_BREP('Body19',#1246);
#32=MANIFOLD_SOLID_BREP('Body20',#1247);
#33=MANIFOLD_SOLID_BREP('Body21',#1248);
#34=MANIFOLD_SOLID_BREP('Body22',#1249);
#35=MANIFOLD_SOLID_BREP('Body23',#1250);
#36=MANIFOLD_SOLID_BREP('Body24',#1251);
#37=MANIFOLD_SOLID_BREP('Body25',#1252);
#38=MANIFOLD_SOLID_BREP('Body26',#1253);
#39=MANIFOLD_SOLID_BREP('Body27',#1254);
#40=MANIFOLD_SOLID_BREP('Body28',#1255);
#41=FACE_BOUND('',#194,.T.);
#42=FACE_BOUND('',#195,.T.);
#43=FACE_BOUND('',#196,.T.);
#44=FACE_BOUND('',#197,.T.);
#45=FACE_BOUND('',#198,.T.);
#46=FACE_BOUND('',#212,.T.);
#47=FACE_BOUND('',#213,.T.);
#48=FACE_BOUND('',#214,.T.);
#49=FACE_BOUND('',#215,.T.);
#50=FACE_BOUND('',#219,.T.);
#51=FACE_BOUND('',#221,.T.);
#52=FACE_BOUND('',#225,.T.);
#53=FACE_BOUND('',#227,.T.);
#54=FACE_BOUND('',#231,.T.);
#55=FACE_BOUND('',#233,.T.);
#56=FACE_BOUND('',#237,.T.);
#57=FACE_BOUND('',#239,.T.);
#58=FACE_BOUND('',#265,.T.);
#59=FACE_BOUND('',#266,.T.);
#60=FACE_BOUND('',#268,.T.);
#61=FACE_BOUND('',#269,.T.);
#62=FACE_BOUND('',#281,.T.);
#63=FACE_BOUND('',#282,.T.);
#64=FACE_BOUND('',#284,.T.);
#65=FACE_BOUND('',#285,.T.);
#66=PLANE('',#1282);
#67=PLANE('',#1289);
#68=PLANE('',#1292);
#69=PLANE('',#1293);
#70=PLANE('',#1300);
#71=PLANE('',#1302);
#72=PLANE('',#1304);
#73=PLANE('',#1307);
#74=PLANE('',#1310);
#75=PLANE('',#1313);
#76=PLANE('',#1316);
#77=PLANE('',#1323);
#78=PLANE('',#1324);
#79=PLANE('',#1331);
#80=PLANE('',#1332);
#81=PLANE('',#1339);
#82=PLANE('',#1340);
#83=PLANE('',#1347);
#84=PLANE('',#1348);
#85=PLANE('',#1352);
#86=PLANE('',#1353);
#87=PLANE('',#1357);
#88=PLANE('',#1358);
#89=PLANE('',#1362);
#90=PLANE('',#1363);
#91=PLANE('',#1367);
#92=PLANE('',#1368);
#93=PLANE('',#1375);
#94=PLANE('',#1379);
#95=PLANE('',#1383);
#96=PLANE('',#1384);
#97=PLANE('',#1388);
#98=PLANE('',#1392);
#99=PLANE('',#1393);
#100=PLANE('',#1394);
#101=PLANE('',#1401);
#102=PLANE('',#1405);
#103=PLANE('',#1409);
#104=PLANE('',#1413);
#105=PLANE('',#1417);
#106=PLANE('',#1418);
#107=FACE_OUTER_BOUND('',#184,.T.);
#108=FACE_OUTER_BOUND('',#185,.T.);
#109=FACE_OUTER_BOUND('',#186,.T.);
#110=FACE_OUTER_BOUND('',#187,.T.);
#111=FACE_OUTER_BOUND('',#188,.T.);
#112=FACE_OUTER_BOUND('',#189,.T.);
#113=FACE_OUTER_BOUND('',#190,.T.);
#114=FACE_OUTER_BOUND('',#191,.T.);
#115=FACE_OUTER_BOUND('',#192,.T.);
#116=FACE_OUTER_BOUND('',#193,.T.);
#117=FACE_OUTER_BOUND('',#199,.T.);
#118=FACE_OUTER_BOUND('',#200,.T.);
#119=FACE_OUTER_BOUND('',#201,.T.);
#120=FACE_OUTER_BOUND('',#202,.T.);
#121=FACE_OUTER_BOUND('',#203,.T.);
#122=FACE_OUTER_BOUND('',#204,.T.);
#123=FACE_OUTER_BOUND('',#205,.T.);
#124=FACE_OUTER_BOUND('',#206,.T.);
#125=FACE_OUTER_BOUND('',#207,.T.);
#126=FACE_OUTER_BOUND('',#208,.T.);
#127=FACE_OUTER_BOUND('',#209,.T.);
#128=FACE_OUTER_BOUND('',#210,.T.);
#129=FACE_OUTER_BOUND('',#211,.T.);
#130=FACE_OUTER_BOUND('',#216,.T.);
#131=FACE_OUTER_BOUND('',#217,.T.);
#132=FACE_OUTER_BOUND('',#218,.T.);
#133=FACE_OUTER_BOUND('',#220,.T.);
#134=FACE_OUTER_BOUND('',#222,.T.);
#135=FACE_OUTER_BOUND('',#223,.T.);
#136=FACE_OUTER_BOUND('',#224,.T.);
#137=FACE_OUTER_BOUND('',#226,.T.);
#138=FACE_OUTER_BOUND('',#228,.T.);
#139=FACE_OUTER_BOUND('',#229,.T.);
#140=FACE_OUTER_BOUND('',#230,.T.);
#141=FACE_OUTER_BOUND('',#232,.T.);
#142=FACE_OUTER_BOUND('',#234,.T.);
#143=FACE_OUTER_BOUND('',#235,.T.);
#144=FACE_OUTER_BOUND('',#236,.T.);
#145=FACE_OUTER_BOUND('',#238,.T.);
#146=FACE_OUTER_BOUND('',#240,.T.);
#147=FACE_OUTER_BOUND('',#241,.T.);
#148=FACE_OUTER_BOUND('',#242,.T.);
#149=FACE_OUTER_BOUND('',#243,.T.);
#150=FACE_OUTER_BOUND('',#244,.T.);
#151=FACE_OUTER_BOUND('',#245,.T.);
#152=FACE_OUTER_BOUND('',#246,.T.);
#153=FACE_OUTER_BOUND('',#247,.T.);
#154=FACE_OUTER_BOUND('',#248,.T.);
#155=FACE_OUTER_BOUND('',#249,.T.);
#156=FACE_OUTER_BOUND('',#250,.T.);
#157=FACE_OUTER_BOUND('',#251,.T.);
#158=FACE_OUTER_BOUND('',#252,.T.);
#159=FACE_OUTER_BOUND('',#253,.T.);
#160=FACE_OUTER_BOUND('',#254,.T.);
#161=FACE_OUTER_BOUND('',#255,.T.);
#162=FACE_OUTER_BOUND('',#256,.T.);
#163=FACE_OUTER_BOUND('',#257,.T.);
#164=FACE_OUTER_BOUND('',#258,.T.);
#165=FACE_OUTER_BOUND('',#259,.T.);
#166=FACE_OUTER_BOUND('',#260,.T.);
#167=FACE_OUTER_BOUND('',#261,.T.);
#168=FACE_OUTER_BOUND('',#262,.T.);
#169=FACE_OUTER_BOUND('',#263,.T.);
#170=FACE_OUTER_BOUND('',#264,.T.);
#171=FACE_OUTER_BOUND('',#267,.T.);
#172=FACE_OUTER_BOUND('',#270,.T.);
#173=FACE_OUTER_BOUND('',#271,.T.);
#174=FACE_OUTER_BOUND('',#272,.T.);
#175=FACE_OUTER_BOUND('',#273,.T.);
#176=FACE_OUTER_BOUND('',#274,.T.);
#177=FACE_OUTER_BOUND('',#275,.T.);
#178=FACE_OUTER_BOUND('',#276,.T.);
#179=FACE_OUTER_BOUND('',#277,.T.);
#180=FACE_OUTER_BOUND('',#278,.T.);
#181=FACE_OUTER_BOUND('',#279,.T.);
#182=FACE_OUTER_BOUND('',#280,.T.);
#183=FACE_OUTER_BOUND('',#283,.T.);
#184=EDGE_LOOP('',(#808,#809,#810,#811));
#185=EDGE_LOOP('',(#812,#813,#814,#815));
#186=EDGE_LOOP('',(#816,#817,#818,#819));
#187=EDGE_LOOP('',(#820,#821,#822,#823));
#188=EDGE_LOOP('',(#824,#825,#826,#827,#828,#829,#830,#831));
#189=EDGE_LOOP('',(#832,#833,#834,#835));
#190=EDGE_LOOP('',(#836,#837,#838,#839));
#191=EDGE_LOOP('',(#840,#841,#842,#843));
#192=EDGE_LOOP('',(#844,#845,#846,#847));
#193=EDGE_LOOP('',(#848,#849,#850,#851,#852,#853,#854,#855));
#194=EDGE_LOOP('',(#856,#857,#858,#859,#860,#861,#862,#863));
#195=EDGE_LOOP('',(#864));
#196=EDGE_LOOP('',(#865));
#197=EDGE_LOOP('',(#866));
#198=EDGE_LOOP('',(#867));
#199=EDGE_LOOP('',(#868,#869,#870,#871));
#200=EDGE_LOOP('',(#872,#873,#874,#875));
#201=EDGE_LOOP('',(#876,#877,#878,#879));
#202=EDGE_LOOP('',(#880,#881,#882,#883));
#203=EDGE_LOOP('',(#884,#885,#886,#887));
#204=EDGE_LOOP('',(#888,#889,#890,#891));
#205=EDGE_LOOP('',(#892,#893,#894,#895));
#206=EDGE_LOOP('',(#896,#897,#898,#899));
#207=EDGE_LOOP('',(#900,#901,#902,#903));
#208=EDGE_LOOP('',(#904,#905,#906,#907));
#209=EDGE_LOOP('',(#908,#909,#910,#911));
#210=EDGE_LOOP('',(#912,#913,#914,#915));
#211=EDGE_LOOP('',(#916,#917,#918,#919,#920,#921,#922,#923));
#212=EDGE_LOOP('',(#924));
#213=EDGE_LOOP('',(#925));
#214=EDGE_LOOP('',(#926));
#215=EDGE_LOOP('',(#927));
#216=EDGE_LOOP('',(#928,#929,#930,#931));
#217=EDGE_LOOP('',(#932,#933,#934,#935));
#218=EDGE_LOOP('',(#936));
#219=EDGE_LOOP('',(#937));
#220=EDGE_LOOP('',(#938));
#221=EDGE_LOOP('',(#939));
#222=EDGE_LOOP('',(#940,#941,#942,#943));
#223=EDGE_LOOP('',(#944,#945,#946,#947));
#224=EDGE_LOOP('',(#948));
#225=EDGE_LOOP('',(#949));
#226=EDGE_LOOP('',(#950));
#227=EDGE_LOOP('',(#951));
#228=EDGE_LOOP('',(#952,#953,#954,#955));
#229=EDGE_LOOP('',(#956,#957,#958,#959));
#230=EDGE_LOOP('',(#960));
#231=EDGE_LOOP('',(#961));
#232=EDGE_LOOP('',(#962));
#233=EDGE_LOOP('',(#963));
#234=EDGE_LOOP('',(#964,#965,#966,#967));
#235=EDGE_LOOP('',(#968,#969,#970,#971));
#236=EDGE_LOOP('',(#972));
#237=EDGE_LOOP('',(#973));
#238=EDGE_LOOP('',(#974));
#239=EDGE_LOOP('',(#975));
#240=EDGE_LOOP('',(#976,#977,#978,#979));
#241=EDGE_LOOP('',(#980));
#242=EDGE_LOOP('',(#981));
#243=EDGE_LOOP('',(#982,#983,#984,#985));
#244=EDGE_LOOP('',(#986));
#245=EDGE_LOOP('',(#987));
#246=EDGE_LOOP('',(#988,#989,#990,#991));
#247=EDGE_LOOP('',(#992));
#248=EDGE_LOOP('',(#993));
#249=EDGE_LOOP('',(#994,#995,#996,#997));
#250=EDGE_LOOP('',(#998));
#251=EDGE_LOOP('',(#999));
#252=EDGE_LOOP('',(#1000,#1001,#1002,#1003));
#253=EDGE_LOOP('',(#1004,#1005,#1006,#1007));
#254=EDGE_LOOP('',(#1008,#1009,#1010,#1011));
#255=EDGE_LOOP('',(#1012,#1013,#1014,#1015));
#256=EDGE_LOOP('',(#1016,#1017,#1018,#1019));
#257=EDGE_LOOP('',(#1020,#1021,#1022,#1023));
#258=EDGE_LOOP('',(#1024,#1025,#1026,#1027));
#259=EDGE_LOOP('',(#1028,#1029,#1030,#1031));
#260=EDGE_LOOP('',(#1032,#1033,#1034,#1035));
#261=EDGE_LOOP('',(#1036,#1037,#1038,#1039));
#262=EDGE_LOOP('',(#1040,#1041,#1042,#1043));
#263=EDGE_LOOP('',(#1044,#1045,#1046,#1047));
#264=EDGE_LOOP('',(#1048,#1049,#1050,#1051,#1052,#1053,#1054,#1055,#1056,
#1057));
#265=EDGE_LOOP('',(#1058));
#266=EDGE_LOOP('',(#1059));
#267=EDGE_LOOP('',(#1060,#1061,#1062,#1063,#1064,#1065,#1066,#1067,#1068,
#1069));
#268=EDGE_LOOP('',(#1070));
#269=EDGE_LOOP('',(#1071));
#270=EDGE_LOOP('',(#1072,#1073,#1074,#1075));
#271=EDGE_LOOP('',(#1076,#1077,#1078,#1079));
#272=EDGE_LOOP('',(#1080,#1081,#1082,#1083));
#273=EDGE_LOOP('',(#1084,#1085,#1086,#1087));
#274=EDGE_LOOP('',(#1088,#1089,#1090,#1091));
#275=EDGE_LOOP('',(#1092,#1093,#1094,#1095));
#276=EDGE_LOOP('',(#1096,#1097,#1098,#1099));
#277=EDGE_LOOP('',(#1100,#1101,#1102,#1103));
#278=EDGE_LOOP('',(#1104,#1105,#1106,#1107));
#279=EDGE_LOOP('',(#1108,#1109,#1110,#1111));
#280=EDGE_LOOP('',(#1112,#1113,#1114,#1115,#1116,#1117,#1118,#1119));
#281=EDGE_LOOP('',(#1120));
#282=EDGE_LOOP('',(#1121));
#283=EDGE_LOOP('',(#1122,#1123,#1124,#1125,#1126,#1127,#1128,#1129));
#284=EDGE_LOOP('',(#1130));
#285=EDGE_LOOP('',(#1131));
#286=LINE('',#1820,#376);
#287=LINE('',#1826,#377);
#288=LINE('',#1832,#378);
#289=LINE('',#1838,#379);
#290=LINE('',#1845,#380);
#291=LINE('',#1849,#381);
#292=LINE('',#1853,#382);
#293=LINE('',#1856,#383);
#294=LINE('',#1859,#384);
#295=LINE('',#1862,#385);
#296=LINE('',#1865,#386);
#297=LINE('',#1866,#387);
#298=LINE('',#1869,#388);
#299=LINE('',#1873,#389);
#300=LINE('',#1874,#390);
#301=LINE('',#1880,#391);
#302=LINE('',#1884,#392);
#303=LINE('',#1888,#393);
#304=LINE('',#1891,#394);
#305=LINE('',#1895,#395);
#306=LINE('',#1898,#396);
#307=LINE('',#1900,#397);
#308=LINE('',#1902,#398);
#309=LINE('',#1904,#399);
#310=LINE('',#1909,#400);
#311=LINE('',#1910,#401);
#312=LINE('',#1911,#402);
#313=LINE('',#1915,#403);
#314=LINE('',#1918,#404);
#315=LINE('',#1919,#405);
#316=LINE('',#1923,#406);
#317=LINE('',#1926,#407);
#318=LINE('',#1927,#408);
#319=LINE('',#1931,#409);
#320=LINE('',#1934,#410);
#321=LINE('',#1935,#411);
#322=LINE('',#1943,#412);
#323=LINE('',#1949,#413);
#324=LINE('',#1957,#414);
#325=LINE('',#1963,#415);
#326=LINE('',#1971,#416);
#327=LINE('',#1977,#417);
#328=LINE('',#1985,#418);
#329=LINE('',#1991,#419);
#330=LINE('',#1999,#420);
#331=LINE('',#2007,#421);
#332=LINE('',#2015,#422);
#333=LINE('',#2023,#423);
#334=LINE('',#2031,#424);
#335=LINE('',#2037,#425);
#336=LINE('',#2042,#426);
#337=LINE('',#2044,#427);
#338=LINE('',#2046,#428);
#339=LINE('',#2047,#429);
#340=LINE('',#2053,#430);
#341=LINE('',#2056,#431);
#342=LINE('',#2058,#432);
#343=LINE('',#2059,#433);
#344=LINE('',#2065,#434);
#345=LINE('',#2068,#435);
#346=LINE('',#2070,#436);
#347=LINE('',#2071,#437);
#348=LINE('',#2074,#438);
#349=LINE('',#2076,#439);
#350=LINE('',#2077,#440);
#351=LINE('',#2083,#441);
#352=LINE('',#2086,#442);
#353=LINE('',#2088,#443);
#354=LINE('',#2089,#444);
#355=LINE('',#2095,#445);
#356=LINE('',#2097,#446);
#357=LINE('',#2098,#447);
#358=LINE('',#2105,#448);
#359=LINE('',#2111,#449);
#360=LINE('',#2116,#450);
#361=LINE('',#2118,#451);
#362=LINE('',#2120,#452);
#363=LINE('',#2121,#453);
#364=LINE('',#2127,#454);
#365=LINE('',#2130,#455);
#366=LINE('',#2132,#456);
#367=LINE('',#2133,#457);
#368=LINE('',#2139,#458);
#369=LINE('',#2142,#459);
#370=LINE('',#2144,#460);
#371=LINE('',#2145,#461);
#372=LINE('',#2151,#462);
#373=LINE('',#2154,#463);
#374=LINE('',#2156,#464);
#375=LINE('',#2157,#465);
#376=VECTOR('',#1428,1.59999999999997);
#377=VECTOR('',#1435,1.6);
#378=VECTOR('',#1442,1.59999999999999);
#379=VECTOR('',#1449,1.59999999999997);
#380=VECTOR('',#1456,10.);
#381=VECTOR('',#1459,10.);
#382=VECTOR('',#1462,10.);
#383=VECTOR('',#1465,10.);
#384=VECTOR('',#1468,10.);
#385=VECTOR('',#1471,10.);
#386=VECTOR('',#1474,10.);
#387=VECTOR('',#1475,10.);
#388=VECTOR('',#1478,10.);
#389=VECTOR('',#1483,10.);
#390=VECTOR('',#1484,10.);
#391=VECTOR('',#1489,10.);
#392=VECTOR('',#1492,10.);
#393=VECTOR('',#1495,10.);
#394=VECTOR('',#1498,10.);
#395=VECTOR('',#1501,10.);
#396=VECTOR('',#1504,10.);
#397=VECTOR('',#1507,10.);
#398=VECTOR('',#1510,10.);
#399=VECTOR('',#1513,10.);
#400=VECTOR('',#1518,10.);
#401=VECTOR('',#1519,10.);
#402=VECTOR('',#1520,10.);
#403=VECTOR('',#1525,10.);
#404=VECTOR('',#1528,10.);
#405=VECTOR('',#1529,10.);
#406=VECTOR('',#1534,10.);
#407=VECTOR('',#1537,10.);
#408=VECTOR('',#1538,10.);
#409=VECTOR('',#1543,10.);
#410=VECTOR('',#1546,10.);
#411=VECTOR('',#1547,10.);
#412=VECTOR('',#1558,1.6);
#413=VECTOR('',#1565,2.45);
#414=VECTOR('',#1576,1.60000000000004);
#415=VECTOR('',#1583,2.44999999999997);
#416=VECTOR('',#1594,1.6);
#417=VECTOR('',#1601,2.45000000000001);
#418=VECTOR('',#1612,1.60000000000004);
#419=VECTOR('',#1619,2.44999999999997);
#420=VECTOR('',#1630,1.58746200000003);
#421=VECTOR('',#1641,1.587462);
#422=VECTOR('',#1652,1.58746200000003);
#423=VECTOR('',#1663,1.587462);
#424=VECTOR('',#1674,2.45);
#425=VECTOR('',#1681,2.44999999999997);
#426=VECTOR('',#1686,10.);
#427=VECTOR('',#1687,10.);
#428=VECTOR('',#1688,10.);
#429=VECTOR('',#1689,10.);
#430=VECTOR('',#1696,10.);
#431=VECTOR('',#1699,10.);
#432=VECTOR('',#1700,10.);
#433=VECTOR('',#1701,10.);
#434=VECTOR('',#1708,10.);
#435=VECTOR('',#1711,10.);
#436=VECTOR('',#1712,10.);
#437=VECTOR('',#1713,10.);
#438=VECTOR('',#1716,10.);
#439=VECTOR('',#1717,10.);
#440=VECTOR('',#1718,10.);
#441=VECTOR('',#1725,10.);
#442=VECTOR('',#1728,10.);
#443=VECTOR('',#1729,10.);
#444=VECTOR('',#1730,10.);
#445=VECTOR('',#1737,10.);
#446=VECTOR('',#1740,10.);
#447=VECTOR('',#1741,10.);
#448=VECTOR('',#1750,2.45000000000001);
#449=VECTOR('',#1757,2.44999999999997);
#450=VECTOR('',#1762,10.);
#451=VECTOR('',#1763,10.);
#452=VECTOR('',#1764,10.);
#453=VECTOR('',#1765,10.);
#454=VECTOR('',#1772,10.);
#455=VECTOR('',#1775,10.);
#456=VECTOR('',#1776,10.);
#457=VECTOR('',#1777,10.);
#458=VECTOR('',#1784,10.);
#459=VECTOR('',#1787,10.);
#460=VECTOR('',#1788,10.);
#461=VECTOR('',#1789,10.);
#462=VECTOR('',#1796,10.);
#463=VECTOR('',#1799,10.);
#464=VECTOR('',#1800,10.);
#465=VECTOR('',#1801,10.);
#466=CIRCLE('',#1271,1.59999999999997);
#467=CIRCLE('',#1272,1.59999999999997);
#468=CIRCLE('',#1274,1.6);
#469=CIRCLE('',#1275,1.6);
#470=CIRCLE('',#1277,1.59999999999999);
#471=CIRCLE('',#1278,1.59999999999999);
#472=CIRCLE('',#1280,1.59999999999997);
#473=CIRCLE('',#1281,1.59999999999997);
#474=CIRCLE('',#1283,12.0000000000001);
#475=CIRCLE('',#1284,12.0000000000001);
#476=CIRCLE('',#1285,12.);
#477=CIRCLE('',#1286,11.9999999999999);
#478=CIRCLE('',#1288,12.);
#479=CIRCLE('',#1291,12.0000000000001);
#480=CIRCLE('',#1294,15.);
#481=CIRCLE('',#1295,15.);
#482=CIRCLE('',#1296,15.);
#483=CIRCLE('',#1297,15.);
#484=CIRCLE('',#1298,12.0000000000001);
#485=CIRCLE('',#1299,11.9999999999999);
#486=CIRCLE('',#1306,15.);
#487=CIRCLE('',#1309,15.);
#488=CIRCLE('',#1312,15.);
#489=CIRCLE('',#1315,15.);
#490=CIRCLE('',#1318,1.6);
#491=CIRCLE('',#1319,1.6);
#492=CIRCLE('',#1321,2.45);
#493=CIRCLE('',#1322,2.45);
#494=CIRCLE('',#1326,1.60000000000004);
#495=CIRCLE('',#1327,1.60000000000004);
#496=CIRCLE('',#1329,2.44999999999997);
#497=CIRCLE('',#1330,2.44999999999997);
#498=CIRCLE('',#1334,1.6);
#499=CIRCLE('',#1335,1.6);
#500=CIRCLE('',#1337,2.45000000000001);
#501=CIRCLE('',#1338,2.45000000000001);
#502=CIRCLE('',#1342,1.60000000000004);
#503=CIRCLE('',#1343,1.60000000000004);
#504=CIRCLE('',#1345,2.44999999999997);
#505=CIRCLE('',#1346,2.44999999999997);
#506=CIRCLE('',#1350,1.58746200000003);
#507=CIRCLE('',#1351,1.58746200000003);
#508=CIRCLE('',#1355,1.587462);
#509=CIRCLE('',#1356,1.587462);
#510=CIRCLE('',#1360,1.58746200000003);
#511=CIRCLE('',#1361,1.58746200000003);
#512=CIRCLE('',#1365,1.587462);
#513=CIRCLE('',#1366,1.587462);
#514=CIRCLE('',#1370,2.45);
#515=CIRCLE('',#1371,2.45);
#516=CIRCLE('',#1373,2.44999999999997);
#517=CIRCLE('',#1374,2.44999999999997);
#518=CIRCLE('',#1377,5.49999999999997);
#519=CIRCLE('',#1378,5.49999999999997);
#520=CIRCLE('',#1381,5.5);
#521=CIRCLE('',#1382,5.5);
#522=CIRCLE('',#1386,12.);
#523=CIRCLE('',#1387,12.);
#524=CIRCLE('',#1390,12.0000000000001);
#525=CIRCLE('',#1391,12.0000000000001);
#526=CIRCLE('',#1396,2.45000000000001);
#527=CIRCLE('',#1397,2.45000000000001);
#528=CIRCLE('',#1399,2.44999999999997);
#529=CIRCLE('',#1400,2.44999999999997);
#530=CIRCLE('',#1403,12.);
#531=CIRCLE('',#1404,12.);
#532=CIRCLE('',#1407,6.99999999999996);
#533=CIRCLE('',#1408,6.99999999999996);
#534=CIRCLE('',#1411,6.99999999999996);
#535=CIRCLE('',#1412,6.99999999999996);
#536=CIRCLE('',#1415,12.0000000000001);
#537=CIRCLE('',#1416,12.0000000000001);
#538=VERTEX_POINT('',#1817);
#539=VERTEX_POINT('',#1819);
#540=VERTEX_POINT('',#1823);
#541=VERTEX_POINT('',#1825);
#542=VERTEX_POINT('',#1829);
#543=VERTEX_POINT('',#1831);
#544=VERTEX_POINT('',#1835);
#545=VERTEX_POINT('',#1837);
#546=VERTEX_POINT('',#1841);
#547=VERTEX_POINT('',#1842);
#548=VERTEX_POINT('',#1844);
#549=VERTEX_POINT('',#1846);
#550=VERTEX_POINT('',#1848);
#551=VERTEX_POINT('',#1850);
#552=VERTEX_POINT('',#1852);
#553=VERTEX_POINT('',#1854);
#554=VERTEX_POINT('',#1858);
#555=VERTEX_POINT('',#1860);
#556=VERTEX_POINT('',#1864);
#557=VERTEX_POINT('',#1868);
#558=VERTEX_POINT('',#1872);
#559=VERTEX_POINT('',#1876);
#560=VERTEX_POINT('',#1877);
#561=VERTEX_POINT('',#1879);
#562=VERTEX_POINT('',#1881);
#563=VERTEX_POINT('',#1883);
#564=VERTEX_POINT('',#1885);
#565=VERTEX_POINT('',#1887);
#566=VERTEX_POINT('',#1889);
#567=VERTEX_POINT('',#1892);
#568=VERTEX_POINT('',#1894);
#569=VERTEX_POINT('',#1896);
#570=VERTEX_POINT('',#1907);
#571=VERTEX_POINT('',#1908);
#572=VERTEX_POINT('',#1913);
#573=VERTEX_POINT('',#1917);
#574=VERTEX_POINT('',#1921);
#575=VERTEX_POINT('',#1925);
#576=VERTEX_POINT('',#1929);
#577=VERTEX_POINT('',#1933);
#578=VERTEX_POINT('',#1940);
#579=VERTEX_POINT('',#1942);
#580=VERTEX_POINT('',#1946);
#581=VERTEX_POINT('',#1948);
#582=VERTEX_POINT('',#1954);
#583=VERTEX_POINT('',#1956);
#584=VERTEX_POINT('',#1960);
#585=VERTEX_POINT('',#1962);
#586=VERTEX_POINT('',#1968);
#587=VERTEX_POINT('',#1970);
#588=VERTEX_POINT('',#1974);
#589=VERTEX_POINT('',#1976);
#590=VERTEX_POINT('',#1982);
#591=VERTEX_POINT('',#1984);
#592=VERTEX_POINT('',#1988);
#593=VERTEX_POINT('',#1990);
#594=VERTEX_POINT('',#1996);
#595=VERTEX_POINT('',#1998);
#596=VERTEX_POINT('',#2004);
#597=VERTEX_POINT('',#2006);
#598=VERTEX_POINT('',#2012);
#599=VERTEX_POINT('',#2014);
#600=VERTEX_POINT('',#2020);
#601=VERTEX_POINT('',#2022);
#602=VERTEX_POINT('',#2028);
#603=VERTEX_POINT('',#2030);
#604=VERTEX_POINT('',#2034);
#605=VERTEX_POINT('',#2036);
#606=VERTEX_POINT('',#2040);
#607=VERTEX_POINT('',#2041);
#608=VERTEX_POINT('',#2043);
#609=VERTEX_POINT('',#2045);
#610=VERTEX_POINT('',#2049);
#611=VERTEX_POINT('',#2051);
#612=VERTEX_POINT('',#2055);
#613=VERTEX_POINT('',#2057);
#614=VERTEX_POINT('',#2061);
#615=VERTEX_POINT('',#2063);
#616=VERTEX_POINT('',#2067);
#617=VERTEX_POINT('',#2069);
#618=VERTEX_POINT('',#2073);
#619=VERTEX_POINT('',#2075);
#620=VERTEX_POINT('',#2079);
#621=VERTEX_POINT('',#2081);
#622=VERTEX_POINT('',#2085);
#623=VERTEX_POINT('',#2087);
#624=VERTEX_POINT('',#2091);
#625=VERTEX_POINT('',#2093);
#626=VERTEX_POINT('',#2102);
#627=VERTEX_POINT('',#2104);
#628=VERTEX_POINT('',#2108);
#629=VERTEX_POINT('',#2110);
#630=VERTEX_POINT('',#2114);
#631=VERTEX_POINT('',#2115);
#632=VERTEX_POINT('',#2117);
#633=VERTEX_POINT('',#2119);
#634=VERTEX_POINT('',#2123);
#635=VERTEX_POINT('',#2125);
#636=VERTEX_POINT('',#2129);
#637=VERTEX_POINT('',#2131);
#638=VERTEX_POINT('',#2135);
#639=VERTEX_POINT('',#2137);
#640=VERTEX_POINT('',#2141);
#641=VERTEX_POINT('',#2143);
#642=VERTEX_POINT('',#2147);
#643=VERTEX_POINT('',#2149);
#644=VERTEX_POINT('',#2153);
#645=VERTEX_POINT('',#2155);
#646=EDGE_CURVE('',#538,#538,#466,.T.);
#647=EDGE_CURVE('',#538,#539,#286,.T.);
#648=EDGE_CURVE('',#539,#539,#467,.T.);
#649=EDGE_CURVE('',#540,#540,#468,.T.);
#650=EDGE_CURVE('',#540,#541,#287,.T.);
#651=EDGE_CURVE('',#541,#541,#469,.T.);
#652=EDGE_CURVE('',#542,#542,#470,.T.);
#653=EDGE_CURVE('',#542,#543,#288,.T.);
#654=EDGE_CURVE('',#543,#543,#471,.T.);
#655=EDGE_CURVE('',#544,#544,#472,.T.);
#656=EDGE_CURVE('',#544,#545,#289,.T.);
#657=EDGE_CURVE('',#545,#545,#473,.T.);
#658=EDGE_CURVE('',#546,#547,#474,.T.);
#659=EDGE_CURVE('',#548,#546,#290,.T.);
#660=EDGE_CURVE('',#549,#548,#475,.T.);
#661=EDGE_CURVE('',#550,#549,#291,.T.);
#662=EDGE_CURVE('',#551,#550,#476,.T.);
#663=EDGE_CURVE('',#552,#551,#292,.T.);
#664=EDGE_CURVE('',#553,#552,#477,.T.);
#665=EDGE_CURVE('',#547,#553,#293,.T.);
#666=EDGE_CURVE('',#550,#554,#294,.T.);
#667=EDGE_CURVE('',#555,#554,#478,.T.);
#668=EDGE_CURVE('',#551,#555,#295,.T.);
#669=EDGE_CURVE('',#549,#556,#296,.T.);
#670=EDGE_CURVE('',#554,#556,#297,.T.);
#671=EDGE_CURVE('',#548,#557,#298,.T.);
#672=EDGE_CURVE('',#556,#557,#479,.T.);
#673=EDGE_CURVE('',#546,#558,#299,.T.);
#674=EDGE_CURVE('',#557,#558,#300,.T.);
#675=EDGE_CURVE('',#559,#560,#480,.T.);
#676=EDGE_CURVE('',#560,#561,#301,.T.);
#677=EDGE_CURVE('',#561,#562,#481,.T.);
#678=EDGE_CURVE('',#562,#563,#302,.T.);
#679=EDGE_CURVE('',#563,#564,#482,.T.);
#680=EDGE_CURVE('',#564,#565,#303,.T.);
#681=EDGE_CURVE('',#565,#566,#483,.T.);
#682=EDGE_CURVE('',#566,#559,#304,.T.);
#683=EDGE_CURVE('',#558,#567,#484,.T.);
#684=EDGE_CURVE('',#567,#568,#305,.T.);
#685=EDGE_CURVE('',#568,#569,#485,.T.);
#686=EDGE_CURVE('',#569,#555,#306,.T.);
#687=EDGE_CURVE('',#552,#569,#307,.T.);
#688=EDGE_CURVE('',#553,#568,#308,.T.);
#689=EDGE_CURVE('',#547,#567,#309,.T.);
#690=EDGE_CURVE('',#570,#571,#310,.T.);
#691=EDGE_CURVE('',#571,#559,#311,.T.);
#692=EDGE_CURVE('',#570,#566,#312,.T.);
#693=EDGE_CURVE('',#572,#570,#486,.T.);
#694=EDGE_CURVE('',#572,#565,#313,.T.);
#695=EDGE_CURVE('',#573,#572,#314,.T.);
#696=EDGE_CURVE('',#573,#564,#315,.T.);
#697=EDGE_CURVE('',#574,#573,#487,.T.);
#698=EDGE_CURVE('',#574,#563,#316,.T.);
#699=EDGE_CURVE('',#575,#574,#317,.T.);
#700=EDGE_CURVE('',#575,#562,#318,.T.);
#701=EDGE_CURVE('',#576,#575,#488,.T.);
#702=EDGE_CURVE('',#576,#561,#319,.T.);
#703=EDGE_CURVE('',#577,#576,#320,.T.);
#704=EDGE_CURVE('',#577,#560,#321,.T.);
#705=EDGE_CURVE('',#571,#577,#489,.T.);
#706=EDGE_CURVE('',#578,#578,#490,.T.);
#707=EDGE_CURVE('',#578,#579,#322,.T.);
#708=EDGE_CURVE('',#579,#579,#491,.T.);
#709=EDGE_CURVE('',#580,#580,#492,.T.);
#710=EDGE_CURVE('',#580,#581,#323,.T.);
#711=EDGE_CURVE('',#581,#581,#493,.T.);
#712=EDGE_CURVE('',#582,#582,#494,.T.);
#713=EDGE_CURVE('',#582,#583,#324,.T.);
#714=EDGE_CURVE('',#583,#583,#495,.T.);
#715=EDGE_CURVE('',#584,#584,#496,.T.);
#716=EDGE_CURVE('',#584,#585,#325,.T.);
#717=EDGE_CURVE('',#585,#585,#497,.T.);
#718=EDGE_CURVE('',#586,#586,#498,.T.);
#719=EDGE_CURVE('',#586,#587,#326,.T.);
#720=EDGE_CURVE('',#587,#587,#499,.T.);
#721=EDGE_CURVE('',#588,#588,#500,.T.);
#722=EDGE_CURVE('',#588,#589,#327,.T.);
#723=EDGE_CURVE('',#589,#589,#501,.T.);
#724=EDGE_CURVE('',#590,#590,#502,.T.);
#725=EDGE_CURVE('',#590,#591,#328,.T.);
#726=EDGE_CURVE('',#591,#591,#503,.T.);
#727=EDGE_CURVE('',#592,#592,#504,.T.);
#728=EDGE_CURVE('',#592,#593,#329,.T.);
#729=EDGE_CURVE('',#593,#593,#505,.T.);
#730=EDGE_CURVE('',#594,#594,#506,.T.);
#731=EDGE_CURVE('',#594,#595,#330,.T.);
#732=EDGE_CURVE('',#595,#595,#507,.T.);
#733=EDGE_CURVE('',#596,#596,#508,.T.);
#734=EDGE_CURVE('',#596,#597,#331,.T.);
#735=EDGE_CURVE('',#597,#597,#509,.T.);
#736=EDGE_CURVE('',#598,#598,#510,.T.);
#737=EDGE_CURVE('',#598,#599,#332,.T.);
#738=EDGE_CURVE('',#599,#599,#511,.T.);
#739=EDGE_CURVE('',#600,#600,#512,.T.);
#740=EDGE_CURVE('',#600,#601,#333,.T.);
#741=EDGE_CURVE('',#601,#601,#513,.T.);
#742=EDGE_CURVE('',#602,#602,#514,.T.);
#743=EDGE_CURVE('',#602,#603,#334,.T.);
#744=EDGE_CURVE('',#603,#603,#515,.T.);
#745=EDGE_CURVE('',#604,#604,#516,.T.);
#746=EDGE_CURVE('',#604,#605,#335,.T.);
#747=EDGE_CURVE('',#605,#605,#517,.T.);
#748=EDGE_CURVE('',#606,#607,#336,.T.);
#749=EDGE_CURVE('',#607,#608,#337,.T.);
#750=EDGE_CURVE('',#609,#608,#338,.T.);
#751=EDGE_CURVE('',#606,#609,#339,.T.);
#752=EDGE_CURVE('',#606,#610,#518,.T.);
#753=EDGE_CURVE('',#611,#609,#519,.T.);
#754=EDGE_CURVE('',#610,#611,#340,.T.);
#755=EDGE_CURVE('',#612,#610,#341,.T.);
#756=EDGE_CURVE('',#613,#611,#342,.T.);
#757=EDGE_CURVE('',#612,#613,#343,.T.);
#758=EDGE_CURVE('',#612,#614,#520,.T.);
#759=EDGE_CURVE('',#615,#613,#521,.T.);
#760=EDGE_CURVE('',#614,#615,#344,.T.);
#761=EDGE_CURVE('',#616,#614,#345,.T.);
#762=EDGE_CURVE('',#617,#615,#346,.T.);
#763=EDGE_CURVE('',#616,#617,#347,.T.);
#764=EDGE_CURVE('',#618,#616,#348,.T.);
#765=EDGE_CURVE('',#619,#617,#349,.T.);
#766=EDGE_CURVE('',#618,#619,#350,.T.);
#767=EDGE_CURVE('',#620,#618,#522,.T.);
#768=EDGE_CURVE('',#621,#619,#523,.T.);
#769=EDGE_CURVE('',#620,#621,#351,.T.);
#770=EDGE_CURVE('',#622,#620,#352,.T.);
#771=EDGE_CURVE('',#623,#621,#353,.T.);
#772=EDGE_CURVE('',#622,#623,#354,.T.);
#773=EDGE_CURVE('',#624,#622,#524,.T.);
#774=EDGE_CURVE('',#625,#623,#525,.T.);
#775=EDGE_CURVE('',#624,#625,#355,.T.);
#776=EDGE_CURVE('',#607,#624,#356,.T.);
#777=EDGE_CURVE('',#608,#625,#357,.T.);
#778=EDGE_CURVE('',#626,#626,#526,.T.);
#779=EDGE_CURVE('',#626,#627,#358,.T.);
#780=EDGE_CURVE('',#627,#627,#527,.T.);
#781=EDGE_CURVE('',#628,#628,#528,.T.);
#782=EDGE_CURVE('',#628,#629,#359,.T.);
#783=EDGE_CURVE('',#629,#629,#529,.T.);
#784=EDGE_CURVE('',#630,#631,#360,.T.);
#785=EDGE_CURVE('',#630,#632,#361,.T.);
#786=EDGE_CURVE('',#633,#632,#362,.T.);
#787=EDGE_CURVE('',#631,#633,#363,.T.);
#788=EDGE_CURVE('',#634,#631,#530,.T.);
#789=EDGE_CURVE('',#635,#633,#531,.T.);
#790=EDGE_CURVE('',#634,#635,#364,.T.);
#791=EDGE_CURVE('',#634,#636,#365,.T.);
#792=EDGE_CURVE('',#637,#635,#366,.T.);
#793=EDGE_CURVE('',#636,#637,#367,.T.);
#794=EDGE_CURVE('',#636,#638,#532,.T.);
#795=EDGE_CURVE('',#639,#637,#533,.T.);
#796=EDGE_CURVE('',#638,#639,#368,.T.);
#797=EDGE_CURVE('',#638,#640,#369,.T.);
#798=EDGE_CURVE('',#641,#639,#370,.T.);
#799=EDGE_CURVE('',#640,#641,#371,.T.);
#800=EDGE_CURVE('',#640,#642,#534,.T.);
#801=EDGE_CURVE('',#643,#641,#535,.T.);
#802=EDGE_CURVE('',#642,#643,#372,.T.);
#803=EDGE_CURVE('',#642,#644,#373,.T.);
#804=EDGE_CURVE('',#645,#643,#374,.T.);
#805=EDGE_CURVE('',#644,#645,#375,.T.);
#806=EDGE_CURVE('',#630,#644,#536,.T.);
#807=EDGE_CURVE('',#632,#645,#537,.T.);
#808=ORIENTED_EDGE('',*,*,#646,.F.);
#809=ORIENTED_EDGE('',*,*,#647,.T.);
#810=ORIENTED_EDGE('',*,*,#648,.F.);
#811=ORIENTED_EDGE('',*,*,#647,.F.);
#812=ORIENTED_EDGE('',*,*,#649,.F.);
#813=ORIENTED_EDGE('',*,*,#650,.T.);
#814=ORIENTED_EDGE('',*,*,#651,.F.);
#815=ORIENTED_EDGE('',*,*,#650,.F.);
#816=ORIENTED_EDGE('',*,*,#652,.F.);
#817=ORIENTED_EDGE('',*,*,#653,.T.);
#818=ORIENTED_EDGE('',*,*,#654,.F.);
#819=ORIENTED_EDGE('',*,*,#653,.F.);
#820=ORIENTED_EDGE('',*,*,#655,.F.);
#821=ORIENTED_EDGE('',*,*,#656,.T.);
#822=ORIENTED_EDGE('',*,*,#657,.F.);
#823=ORIENTED_EDGE('',*,*,#656,.F.);
#824=ORIENTED_EDGE('',*,*,#658,.F.);
#825=ORIENTED_EDGE('',*,*,#659,.F.);
#826=ORIENTED_EDGE('',*,*,#660,.F.);
#827=ORIENTED_EDGE('',*,*,#661,.F.);
#828=ORIENTED_EDGE('',*,*,#662,.F.);
#829=ORIENTED_EDGE('',*,*,#663,.F.);
#830=ORIENTED_EDGE('',*,*,#664,.F.);
#831=ORIENTED_EDGE('',*,*,#665,.F.);
#832=ORIENTED_EDGE('',*,*,#662,.T.);
#833=ORIENTED_EDGE('',*,*,#666,.T.);
#834=ORIENTED_EDGE('',*,*,#667,.F.);
#835=ORIENTED_EDGE('',*,*,#668,.F.);
#836=ORIENTED_EDGE('',*,*,#661,.T.);
#837=ORIENTED_EDGE('',*,*,#669,.T.);
#838=ORIENTED_EDGE('',*,*,#670,.F.);
#839=ORIENTED_EDGE('',*,*,#666,.F.);
#840=ORIENTED_EDGE('',*,*,#660,.T.);
#841=ORIENTED_EDGE('',*,*,#671,.T.);
#842=ORIENTED_EDGE('',*,*,#672,.F.);
#843=ORIENTED_EDGE('',*,*,#669,.F.);
#844=ORIENTED_EDGE('',*,*,#659,.T.);
#845=ORIENTED_EDGE('',*,*,#673,.T.);
#846=ORIENTED_EDGE('',*,*,#674,.F.);
#847=ORIENTED_EDGE('',*,*,#671,.F.);
#848=ORIENTED_EDGE('',*,*,#675,.T.);
#849=ORIENTED_EDGE('',*,*,#676,.T.);
#850=ORIENTED_EDGE('',*,*,#677,.T.);
#851=ORIENTED_EDGE('',*,*,#678,.T.);
#852=ORIENTED_EDGE('',*,*,#679,.T.);
#853=ORIENTED_EDGE('',*,*,#680,.T.);
#854=ORIENTED_EDGE('',*,*,#681,.T.);
#855=ORIENTED_EDGE('',*,*,#682,.T.);
#856=ORIENTED_EDGE('',*,*,#683,.T.);
#857=ORIENTED_EDGE('',*,*,#684,.T.);
#858=ORIENTED_EDGE('',*,*,#685,.T.);
#859=ORIENTED_EDGE('',*,*,#686,.T.);
#860=ORIENTED_EDGE('',*,*,#667,.T.);
#861=ORIENTED_EDGE('',*,*,#670,.T.);
#862=ORIENTED_EDGE('',*,*,#672,.T.);
#863=ORIENTED_EDGE('',*,*,#674,.T.);
#864=ORIENTED_EDGE('',*,*,#657,.T.);
#865=ORIENTED_EDGE('',*,*,#654,.T.);
#866=ORIENTED_EDGE('',*,*,#651,.T.);
#867=ORIENTED_EDGE('',*,*,#648,.T.);
#868=ORIENTED_EDGE('',*,*,#663,.T.);
#869=ORIENTED_EDGE('',*,*,#668,.T.);
#870=ORIENTED_EDGE('',*,*,#686,.F.);
#871=ORIENTED_EDGE('',*,*,#687,.F.);
#872=ORIENTED_EDGE('',*,*,#664,.T.);
#873=ORIENTED_EDGE('',*,*,#687,.T.);
#874=ORIENTED_EDGE('',*,*,#685,.F.);
#875=ORIENTED_EDGE('',*,*,#688,.F.);
#876=ORIENTED_EDGE('',*,*,#665,.T.);
#877=ORIENTED_EDGE('',*,*,#688,.T.);
#878=ORIENTED_EDGE('',*,*,#684,.F.);
#879=ORIENTED_EDGE('',*,*,#689,.F.);
#880=ORIENTED_EDGE('',*,*,#658,.T.);
#881=ORIENTED_EDGE('',*,*,#689,.T.);
#882=ORIENTED_EDGE('',*,*,#683,.F.);
#883=ORIENTED_EDGE('',*,*,#673,.F.);
#884=ORIENTED_EDGE('',*,*,#690,.T.);
#885=ORIENTED_EDGE('',*,*,#691,.T.);
#886=ORIENTED_EDGE('',*,*,#682,.F.);
#887=ORIENTED_EDGE('',*,*,#692,.F.);
#888=ORIENTED_EDGE('',*,*,#693,.T.);
#889=ORIENTED_EDGE('',*,*,#692,.T.);
#890=ORIENTED_EDGE('',*,*,#681,.F.);
#891=ORIENTED_EDGE('',*,*,#694,.F.);
#892=ORIENTED_EDGE('',*,*,#695,.T.);
#893=ORIENTED_EDGE('',*,*,#694,.T.);
#894=ORIENTED_EDGE('',*,*,#680,.F.);
#895=ORIENTED_EDGE('',*,*,#696,.F.);
#896=ORIENTED_EDGE('',*,*,#697,.T.);
#897=ORIENTED_EDGE('',*,*,#696,.T.);
#898=ORIENTED_EDGE('',*,*,#679,.F.);
#899=ORIENTED_EDGE('',*,*,#698,.F.);
#900=ORIENTED_EDGE('',*,*,#699,.T.);
#901=ORIENTED_EDGE('',*,*,#698,.T.);
#902=ORIENTED_EDGE('',*,*,#678,.F.);
#903=ORIENTED_EDGE('',*,*,#700,.F.);
#904=ORIENTED_EDGE('',*,*,#701,.T.);
#905=ORIENTED_EDGE('',*,*,#700,.T.);
#906=ORIENTED_EDGE('',*,*,#677,.F.);
#907=ORIENTED_EDGE('',*,*,#702,.F.);
#908=ORIENTED_EDGE('',*,*,#703,.T.);
#909=ORIENTED_EDGE('',*,*,#702,.T.);
#910=ORIENTED_EDGE('',*,*,#676,.F.);
#911=ORIENTED_EDGE('',*,*,#704,.F.);
#912=ORIENTED_EDGE('',*,*,#705,.T.);
#913=ORIENTED_EDGE('',*,*,#704,.T.);
#914=ORIENTED_EDGE('',*,*,#675,.F.);
#915=ORIENTED_EDGE('',*,*,#691,.F.);
#916=ORIENTED_EDGE('',*,*,#705,.F.);
#917=ORIENTED_EDGE('',*,*,#690,.F.);
#918=ORIENTED_EDGE('',*,*,#693,.F.);
#919=ORIENTED_EDGE('',*,*,#695,.F.);
#920=ORIENTED_EDGE('',*,*,#697,.F.);
#921=ORIENTED_EDGE('',*,*,#699,.F.);
#922=ORIENTED_EDGE('',*,*,#701,.F.);
#923=ORIENTED_EDGE('',*,*,#703,.F.);
#924=ORIENTED_EDGE('',*,*,#646,.T.);
#925=ORIENTED_EDGE('',*,*,#649,.T.);
#926=ORIENTED_EDGE('',*,*,#652,.T.);
#927=ORIENTED_EDGE('',*,*,#655,.T.);
#928=ORIENTED_EDGE('',*,*,#706,.F.);
#929=ORIENTED_EDGE('',*,*,#707,.T.);
#930=ORIENTED_EDGE('',*,*,#708,.T.);
#931=ORIENTED_EDGE('',*,*,#707,.F.);
#932=ORIENTED_EDGE('',*,*,#709,.F.);
#933=ORIENTED_EDGE('',*,*,#710,.T.);
#934=ORIENTED_EDGE('',*,*,#711,.T.);
#935=ORIENTED_EDGE('',*,*,#710,.F.);
#936=ORIENTED_EDGE('',*,*,#709,.T.);
#937=ORIENTED_EDGE('',*,*,#706,.T.);
#938=ORIENTED_EDGE('',*,*,#711,.F.);
#939=ORIENTED_EDGE('',*,*,#708,.F.);
#940=ORIENTED_EDGE('',*,*,#712,.F.);
#941=ORIENTED_EDGE('',*,*,#713,.T.);
#942=ORIENTED_EDGE('',*,*,#714,.T.);
#943=ORIENTED_EDGE('',*,*,#713,.F.);
#944=ORIENTED_EDGE('',*,*,#715,.F.);
#945=ORIENTED_EDGE('',*,*,#716,.T.);
#946=ORIENTED_EDGE('',*,*,#717,.T.);
#947=ORIENTED_EDGE('',*,*,#716,.F.);
#948=ORIENTED_EDGE('',*,*,#715,.T.);
#949=ORIENTED_EDGE('',*,*,#712,.T.);
#950=ORIENTED_EDGE('',*,*,#717,.F.);
#951=ORIENTED_EDGE('',*,*,#714,.F.);
#952=ORIENTED_EDGE('',*,*,#718,.F.);
#953=ORIENTED_EDGE('',*,*,#719,.T.);
#954=ORIENTED_EDGE('',*,*,#720,.T.);
#955=ORIENTED_EDGE('',*,*,#719,.F.);
#956=ORIENTED_EDGE('',*,*,#721,.F.);
#957=ORIENTED_EDGE('',*,*,#722,.T.);
#958=ORIENTED_EDGE('',*,*,#723,.T.);
#959=ORIENTED_EDGE('',*,*,#722,.F.);
#960=ORIENTED_EDGE('',*,*,#721,.T.);
#961=ORIENTED_EDGE('',*,*,#718,.T.);
#962=ORIENTED_EDGE('',*,*,#723,.F.);
#963=ORIENTED_EDGE('',*,*,#720,.F.);
#964=ORIENTED_EDGE('',*,*,#724,.F.);
#965=ORIENTED_EDGE('',*,*,#725,.T.);
#966=ORIENTED_EDGE('',*,*,#726,.T.);
#967=ORIENTED_EDGE('',*,*,#725,.F.);
#968=ORIENTED_EDGE('',*,*,#727,.F.);
#969=ORIENTED_EDGE('',*,*,#728,.T.);
#970=ORIENTED_EDGE('',*,*,#729,.T.);
#971=ORIENTED_EDGE('',*,*,#728,.F.);
#972=ORIENTED_EDGE('',*,*,#727,.T.);
#973=ORIENTED_EDGE('',*,*,#724,.T.);
#974=ORIENTED_EDGE('',*,*,#729,.F.);
#975=ORIENTED_EDGE('',*,*,#726,.F.);
#976=ORIENTED_EDGE('',*,*,#730,.F.);
#977=ORIENTED_EDGE('',*,*,#731,.T.);
#978=ORIENTED_EDGE('',*,*,#732,.T.);
#979=ORIENTED_EDGE('',*,*,#731,.F.);
#980=ORIENTED_EDGE('',*,*,#730,.T.);
#981=ORIENTED_EDGE('',*,*,#732,.F.);
#982=ORIENTED_EDGE('',*,*,#733,.F.);
#983=ORIENTED_EDGE('',*,*,#734,.T.);
#984=ORIENTED_EDGE('',*,*,#735,.T.);
#985=ORIENTED_EDGE('',*,*,#734,.F.);
#986=ORIENTED_EDGE('',*,*,#733,.T.);
#987=ORIENTED_EDGE('',*,*,#735,.F.);
#988=ORIENTED_EDGE('',*,*,#736,.F.);
#989=ORIENTED_EDGE('',*,*,#737,.T.);
#990=ORIENTED_EDGE('',*,*,#738,.T.);
#991=ORIENTED_EDGE('',*,*,#737,.F.);
#992=ORIENTED_EDGE('',*,*,#736,.T.);
#993=ORIENTED_EDGE('',*,*,#738,.F.);
#994=ORIENTED_EDGE('',*,*,#739,.F.);
#995=ORIENTED_EDGE('',*,*,#740,.T.);
#996=ORIENTED_EDGE('',*,*,#741,.T.);
#997=ORIENTED_EDGE('',*,*,#740,.F.);
#998=ORIENTED_EDGE('',*,*,#739,.T.);
#999=ORIENTED_EDGE('',*,*,#741,.F.);
#1000=ORIENTED_EDGE('',*,*,#742,.F.);
#1001=ORIENTED_EDGE('',*,*,#743,.T.);
#1002=ORIENTED_EDGE('',*,*,#744,.T.);
#1003=ORIENTED_EDGE('',*,*,#743,.F.);
#1004=ORIENTED_EDGE('',*,*,#745,.F.);
#1005=ORIENTED_EDGE('',*,*,#746,.T.);
#1006=ORIENTED_EDGE('',*,*,#747,.T.);
#1007=ORIENTED_EDGE('',*,*,#746,.F.);
#1008=ORIENTED_EDGE('',*,*,#748,.T.);
#1009=ORIENTED_EDGE('',*,*,#749,.T.);
#1010=ORIENTED_EDGE('',*,*,#750,.F.);
#1011=ORIENTED_EDGE('',*,*,#751,.F.);
#1012=ORIENTED_EDGE('',*,*,#752,.F.);
#1013=ORIENTED_EDGE('',*,*,#751,.T.);
#1014=ORIENTED_EDGE('',*,*,#753,.F.);
#1015=ORIENTED_EDGE('',*,*,#754,.F.);
#1016=ORIENTED_EDGE('',*,*,#755,.T.);
#1017=ORIENTED_EDGE('',*,*,#754,.T.);
#1018=ORIENTED_EDGE('',*,*,#756,.F.);
#1019=ORIENTED_EDGE('',*,*,#757,.F.);
#1020=ORIENTED_EDGE('',*,*,#758,.F.);
#1021=ORIENTED_EDGE('',*,*,#757,.T.);
#1022=ORIENTED_EDGE('',*,*,#759,.F.);
#1023=ORIENTED_EDGE('',*,*,#760,.F.);
#1024=ORIENTED_EDGE('',*,*,#761,.T.);
#1025=ORIENTED_EDGE('',*,*,#760,.T.);
#1026=ORIENTED_EDGE('',*,*,#762,.F.);
#1027=ORIENTED_EDGE('',*,*,#763,.F.);
#1028=ORIENTED_EDGE('',*,*,#764,.T.);
#1029=ORIENTED_EDGE('',*,*,#763,.T.);
#1030=ORIENTED_EDGE('',*,*,#765,.F.);
#1031=ORIENTED_EDGE('',*,*,#766,.F.);
#1032=ORIENTED_EDGE('',*,*,#767,.T.);
#1033=ORIENTED_EDGE('',*,*,#766,.T.);
#1034=ORIENTED_EDGE('',*,*,#768,.F.);
#1035=ORIENTED_EDGE('',*,*,#769,.F.);
#1036=ORIENTED_EDGE('',*,*,#770,.T.);
#1037=ORIENTED_EDGE('',*,*,#769,.T.);
#1038=ORIENTED_EDGE('',*,*,#771,.F.);
#1039=ORIENTED_EDGE('',*,*,#772,.F.);
#1040=ORIENTED_EDGE('',*,*,#773,.T.);
#1041=ORIENTED_EDGE('',*,*,#772,.T.);
#1042=ORIENTED_EDGE('',*,*,#774,.F.);
#1043=ORIENTED_EDGE('',*,*,#775,.F.);
#1044=ORIENTED_EDGE('',*,*,#776,.T.);
#1045=ORIENTED_EDGE('',*,*,#775,.T.);
#1046=ORIENTED_EDGE('',*,*,#777,.F.);
#1047=ORIENTED_EDGE('',*,*,#749,.F.);
#1048=ORIENTED_EDGE('',*,*,#777,.T.);
#1049=ORIENTED_EDGE('',*,*,#774,.T.);
#1050=ORIENTED_EDGE('',*,*,#771,.T.);
#1051=ORIENTED_EDGE('',*,*,#768,.T.);
#1052=ORIENTED_EDGE('',*,*,#765,.T.);
#1053=ORIENTED_EDGE('',*,*,#762,.T.);
#1054=ORIENTED_EDGE('',*,*,#759,.T.);
#1055=ORIENTED_EDGE('',*,*,#756,.T.);
#1056=ORIENTED_EDGE('',*,*,#753,.T.);
#1057=ORIENTED_EDGE('',*,*,#750,.T.);
#1058=ORIENTED_EDGE('',*,*,#745,.T.);
#1059=ORIENTED_EDGE('',*,*,#742,.T.);
#1060=ORIENTED_EDGE('',*,*,#776,.F.);
#1061=ORIENTED_EDGE('',*,*,#748,.F.);
#1062=ORIENTED_EDGE('',*,*,#752,.T.);
#1063=ORIENTED_EDGE('',*,*,#755,.F.);
#1064=ORIENTED_EDGE('',*,*,#758,.T.);
#1065=ORIENTED_EDGE('',*,*,#761,.F.);
#1066=ORIENTED_EDGE('',*,*,#764,.F.);
#1067=ORIENTED_EDGE('',*,*,#767,.F.);
#1068=ORIENTED_EDGE('',*,*,#770,.F.);
#1069=ORIENTED_EDGE('',*,*,#773,.F.);
#1070=ORIENTED_EDGE('',*,*,#747,.F.);
#1071=ORIENTED_EDGE('',*,*,#744,.F.);
#1072=ORIENTED_EDGE('',*,*,#778,.F.);
#1073=ORIENTED_EDGE('',*,*,#779,.T.);
#1074=ORIENTED_EDGE('',*,*,#780,.T.);
#1075=ORIENTED_EDGE('',*,*,#779,.F.);
#1076=ORIENTED_EDGE('',*,*,#781,.F.);
#1077=ORIENTED_EDGE('',*,*,#782,.T.);
#1078=ORIENTED_EDGE('',*,*,#783,.T.);
#1079=ORIENTED_EDGE('',*,*,#782,.F.);
#1080=ORIENTED_EDGE('',*,*,#784,.F.);
#1081=ORIENTED_EDGE('',*,*,#785,.T.);
#1082=ORIENTED_EDGE('',*,*,#786,.F.);
#1083=ORIENTED_EDGE('',*,*,#787,.F.);
#1084=ORIENTED_EDGE('',*,*,#788,.T.);
#1085=ORIENTED_EDGE('',*,*,#787,.T.);
#1086=ORIENTED_EDGE('',*,*,#789,.F.);
#1087=ORIENTED_EDGE('',*,*,#790,.F.);
#1088=ORIENTED_EDGE('',*,*,#791,.F.);
#1089=ORIENTED_EDGE('',*,*,#790,.T.);
#1090=ORIENTED_EDGE('',*,*,#792,.F.);
#1091=ORIENTED_EDGE('',*,*,#793,.F.);
#1092=ORIENTED_EDGE('',*,*,#794,.F.);
#1093=ORIENTED_EDGE('',*,*,#793,.T.);
#1094=ORIENTED_EDGE('',*,*,#795,.F.);
#1095=ORIENTED_EDGE('',*,*,#796,.F.);
#1096=ORIENTED_EDGE('',*,*,#797,.F.);
#1097=ORIENTED_EDGE('',*,*,#796,.T.);
#1098=ORIENTED_EDGE('',*,*,#798,.F.);
#1099=ORIENTED_EDGE('',*,*,#799,.F.);
#1100=ORIENTED_EDGE('',*,*,#800,.F.);
#1101=ORIENTED_EDGE('',*,*,#799,.T.);
#1102=ORIENTED_EDGE('',*,*,#801,.F.);
#1103=ORIENTED_EDGE('',*,*,#802,.F.);
#1104=ORIENTED_EDGE('',*,*,#803,.F.);
#1105=ORIENTED_EDGE('',*,*,#802,.T.);
#1106=ORIENTED_EDGE('',*,*,#804,.F.);
#1107=ORIENTED_EDGE('',*,*,#805,.F.);
#1108=ORIENTED_EDGE('',*,*,#806,.T.);
#1109=ORIENTED_EDGE('',*,*,#805,.T.);
#1110=ORIENTED_EDGE('',*,*,#807,.F.);
#1111=ORIENTED_EDGE('',*,*,#785,.F.);
#1112=ORIENTED_EDGE('',*,*,#807,.T.);
#1113=ORIENTED_EDGE('',*,*,#804,.T.);
#1114=ORIENTED_EDGE('',*,*,#801,.T.);
#1115=ORIENTED_EDGE('',*,*,#798,.T.);
#1116=ORIENTED_EDGE('',*,*,#795,.T.);
#1117=ORIENTED_EDGE('',*,*,#792,.T.);
#1118=ORIENTED_EDGE('',*,*,#789,.T.);
#1119=ORIENTED_EDGE('',*,*,#786,.T.);
#1120=ORIENTED_EDGE('',*,*,#781,.T.);
#1121=ORIENTED_EDGE('',*,*,#778,.T.);
#1122=ORIENTED_EDGE('',*,*,#806,.F.);
#1123=ORIENTED_EDGE('',*,*,#784,.T.);
#1124=ORIENTED_EDGE('',*,*,#788,.F.);
#1125=ORIENTED_EDGE('',*,*,#791,.T.);
#1126=ORIENTED_EDGE('',*,*,#794,.T.);
#1127=ORIENTED_EDGE('',*,*,#797,.T.);
#1128=ORIENTED_EDGE('',*,*,#800,.T.);
#1129=ORIENTED_EDGE('',*,*,#803,.T.);
#1130=ORIENTED_EDGE('',*,*,#783,.F.);
#1131=ORIENTED_EDGE('',*,*,#780,.F.);
#1132=CYLINDRICAL_SURFACE('',#1270,1.59999999999997);
#1133=CYLINDRICAL_SURFACE('',#1273,1.6);
#1134=CYLINDRICAL_SURFACE('',#1276,1.59999999999999);
#1135=CYLINDRICAL_SURFACE('',#1279,1.59999999999997);
#1136=CYLINDRICAL_SURFACE('',#1287,12.);
#1137=CYLINDRICAL_SURFACE('',#1290,12.0000000000001);
#1138=CYLINDRICAL_SURFACE('',#1301,11.9999999999999);
#1139=CYLINDRICAL_SURFACE('',#1303,12.0000000000001);
#1140=CYLINDRICAL_SURFACE('',#1305,15.);
#1141=CYLINDRICAL_SURFACE('',#1308,15.);
#1142=CYLINDRICAL_SURFACE('',#1311,15.);
#1143=CYLINDRICAL_SURFACE('',#1314,15.);
#1144=CYLINDRICAL_SURFACE('',#1317,1.6);
#1145=CYLINDRICAL_SURFACE('',#1320,2.45);
#1146=CYLINDRICAL_SURFACE('',#1325,1.60000000000004);
#1147=CYLINDRICAL_SURFACE('',#1328,2.44999999999997);
#1148=CYLINDRICAL_SURFACE('',#1333,1.6);
#1149=CYLINDRICAL_SURFACE('',#1336,2.45000000000001);
#1150=CYLINDRICAL_SURFACE('',#1341,1.60000000000004);
#1151=CYLINDRICAL_SURFACE('',#1344,2.44999999999997);
#1152=CYLINDRICAL_SURFACE('',#1349,1.58746200000003);
#1153=CYLINDRICAL_SURFACE('',#1354,1.587462);
#1154=CYLINDRICAL_SURFACE('',#1359,1.58746200000003);
#1155=CYLINDRICAL_SURFACE('',#1364,1.587462);
#1156=CYLINDRICAL_SURFACE('',#1369,2.45);
#1157=CYLINDRICAL_SURFACE('',#1372,2.44999999999997);
#1158=CYLINDRICAL_SURFACE('',#1376,5.49999999999997);
#1159=CYLINDRICAL_SURFACE('',#1380,5.5);
#1160=CYLINDRICAL_SURFACE('',#1385,12.);
#1161=CYLINDRICAL_SURFACE('',#1389,12.0000000000001);
#1162=CYLINDRICAL_SURFACE('',#1395,2.45000000000001);
#1163=CYLINDRICAL_SURFACE('',#1398,2.44999999999997);
#1164=CYLINDRICAL_SURFACE('',#1402,12.);
#1165=CYLINDRICAL_SURFACE('',#1406,6.99999999999996);
#1166=CYLINDRICAL_SURFACE('',#1410,6.99999999999996);
#1167=CYLINDRICAL_SURFACE('',#1414,12.0000000000001);
#1168=ADVANCED_FACE('',(#107),#1132,.F.);
#1169=ADVANCED_FACE('',(#108),#1133,.F.);
#1170=ADVANCED_FACE('',(#109),#1134,.F.);
#1171=ADVANCED_FACE('',(#110),#1135,.F.);
#1172=ADVANCED_FACE('',(#111),#66,.T.);
#1173=ADVANCED_FACE('',(#112),#1136,.F.);
#1174=ADVANCED_FACE('',(#113),#67,.T.);
#1175=ADVANCED_FACE('',(#114),#1137,.F.);
#1176=ADVANCED_FACE('',(#115),#68,.T.);
#1177=ADVANCED_FACE('',(#116,#41,#42,#43,#44,#45),#69,.T.);
#1178=ADVANCED_FACE('',(#117),#70,.T.);
#1179=ADVANCED_FACE('',(#118),#1138,.F.);
#1180=ADVANCED_FACE('',(#119),#71,.T.);
#1181=ADVANCED_FACE('',(#120),#1139,.F.);
#1182=ADVANCED_FACE('',(#121),#72,.T.);
#1183=ADVANCED_FACE('',(#122),#1140,.T.);
#1184=ADVANCED_FACE('',(#123),#73,.T.);
#1185=ADVANCED_FACE('',(#124),#1141,.T.);
#1186=ADVANCED_FACE('',(#125),#74,.T.);
#1187=ADVANCED_FACE('',(#126),#1142,.T.);
#1188=ADVANCED_FACE('',(#127),#75,.T.);
#1189=ADVANCED_FACE('',(#128),#1143,.T.);
#1190=ADVANCED_FACE('',(#129,#46,#47,#48,#49),#76,.F.);
#1191=ADVANCED_FACE('',(#130),#1144,.F.);
#1192=ADVANCED_FACE('',(#131),#1145,.T.);
#1193=ADVANCED_FACE('',(#132,#50),#77,.T.);
#1194=ADVANCED_FACE('',(#133,#51),#78,.F.);
#1195=ADVANCED_FACE('',(#134),#1146,.F.);
#1196=ADVANCED_FACE('',(#135),#1147,.T.);
#1197=ADVANCED_FACE('',(#136,#52),#79,.T.);
#1198=ADVANCED_FACE('',(#137,#53),#80,.F.);
#1199=ADVANCED_FACE('',(#138),#1148,.F.);
#1200=ADVANCED_FACE('',(#139),#1149,.T.);
#1201=ADVANCED_FACE('',(#140,#54),#81,.T.);
#1202=ADVANCED_FACE('',(#141,#55),#82,.F.);
#1203=ADVANCED_FACE('',(#142),#1150,.F.);
#1204=ADVANCED_FACE('',(#143),#1151,.T.);
#1205=ADVANCED_FACE('',(#144,#56),#83,.T.);
#1206=ADVANCED_FACE('',(#145,#57),#84,.F.);
#1207=ADVANCED_FACE('',(#146),#1152,.T.);
#1208=ADVANCED_FACE('',(#147),#85,.T.);
#1209=ADVANCED_FACE('',(#148),#86,.F.);
#1210=ADVANCED_FACE('',(#149),#1153,.T.);
#1211=ADVANCED_FACE('',(#150),#87,.T.);
#1212=ADVANCED_FACE('',(#151),#88,.F.);
#1213=ADVANCED_FACE('',(#152),#1154,.T.);
#1214=ADVANCED_FACE('',(#153),#89,.T.);
#1215=ADVANCED_FACE('',(#154),#90,.F.);
#1216=ADVANCED_FACE('',(#155),#1155,.T.);
#1217=ADVANCED_FACE('',(#156),#91,.T.);
#1218=ADVANCED_FACE('',(#157),#92,.F.);
#1219=ADVANCED_FACE('',(#158),#1156,.F.);
#1220=ADVANCED_FACE('',(#159),#1157,.F.);
#1221=ADVANCED_FACE('',(#160),#93,.T.);
#1222=ADVANCED_FACE('',(#161),#1158,.F.);
#1223=ADVANCED_FACE('',(#162),#94,.T.);
#1224=ADVANCED_FACE('',(#163),#1159,.F.);
#1225=ADVANCED_FACE('',(#164),#95,.T.);
#1226=ADVANCED_FACE('',(#165),#96,.T.);
#1227=ADVANCED_FACE('',(#166),#1160,.T.);
#1228=ADVANCED_FACE('',(#167),#97,.T.);
#1229=ADVANCED_FACE('',(#168),#1161,.T.);
#1230=ADVANCED_FACE('',(#169),#98,.T.);
#1231=ADVANCED_FACE('',(#170,#58,#59),#99,.T.);
#1232=ADVANCED_FACE('',(#171,#60,#61),#100,.F.);
#1233=ADVANCED_FACE('',(#172),#1162,.F.);
#1234=ADVANCED_FACE('',(#173),#1163,.F.);
#1235=ADVANCED_FACE('',(#174),#101,.T.);
#1236=ADVANCED_FACE('',(#175),#1164,.T.);
#1237=ADVANCED_FACE('',(#176),#102,.T.);
#1238=ADVANCED_FACE('',(#177),#1165,.F.);
#1239=ADVANCED_FACE('',(#178),#103,.T.);
#1240=ADVANCED_FACE('',(#179),#1166,.F.);
#1241=ADVANCED_FACE('',(#180),#104,.T.);
#1242=ADVANCED_FACE('',(#181),#1167,.T.);
#1243=ADVANCED_FACE('',(#182,#62,#63),#105,.T.);
#1244=ADVANCED_FACE('',(#183,#64,#65),#106,.F.);
#1245=CLOSED_SHELL('',(#1168,#1169,#1170,#1171,#1172,#1173,#1174,#1175,
#1176,#1177,#1178,#1179,#1180,#1181,#1182,#1183,#1184,#1185,#1186,#1187,
#1188,#1189,#1190));
#1246=CLOSED_SHELL('',(#1191,#1192,#1193,#1194));
#1247=CLOSED_SHELL('',(#1195,#1196,#1197,#1198));
#1248=CLOSED_SHELL('',(#1199,#1200,#1201,#1202));
#1249=CLOSED_SHELL('',(#1203,#1204,#1205,#1206));
#1250=CLOSED_SHELL('',(#1207,#1208,#1209));
#1251=CLOSED_SHELL('',(#1210,#1211,#1212));
#1252=CLOSED_SHELL('',(#1213,#1214,#1215));
#1253=CLOSED_SHELL('',(#1216,#1217,#1218));
#1254=CLOSED_SHELL('',(#1219,#1220,#1221,#1222,#1223,#1224,#1225,#1226,
#1227,#1228,#1229,#1230,#1231,#1232));
#1255=CLOSED_SHELL('',(#1233,#1234,#1235,#1236,#1237,#1238,#1239,#1240,
#1241,#1242,#1243,#1244));
#1256=DERIVED_UNIT_ELEMENT(#1258,1.);
#1257=DERIVED_UNIT_ELEMENT(#2171,-3.);
#1258=(
MASS_UNIT()
NAMED_UNIT(*)
SI_UNIT(.KILO.,.GRAM.)
);
#1259=DERIVED_UNIT((#1256,#1257));
#1260=MEASURE_REPRESENTATION_ITEM('density measure',
POSITIVE_RATIO_MEASURE(7850.),#1259);
#1261=PROPERTY_DEFINITION_REPRESENTATION(#1266,#1263);
#1262=PROPERTY_DEFINITION_REPRESENTATION(#1267,#1264);
#1263=REPRESENTATION('material name',(#1265),#2168);
#1264=REPRESENTATION('density',(#1260),#2168);
#1265=DESCRIPTIVE_REPRESENTATION_ITEM('Steel','Steel');
#1266=PROPERTY_DEFINITION('material property','material name',#2183);
#1267=PROPERTY_DEFINITION('material property','density of part',#2183);
#1268=AXIS2_PLACEMENT_3D('',#1814,#1420,#1421);
#1269=AXIS2_PLACEMENT_3D('',#1815,#1422,#1423);
#1270=AXIS2_PLACEMENT_3D('',#1816,#1424,#1425);
#1271=AXIS2_PLACEMENT_3D('',#1818,#1426,#1427);
#1272=AXIS2_PLACEMENT_3D('',#1821,#1429,#1430);
#1273=AXIS2_PLACEMENT_3D('',#1822,#1431,#1432);
#1274=AXIS2_PLACEMENT_3D('',#1824,#1433,#1434);
#1275=AXIS2_PLACEMENT_3D('',#1827,#1436,#1437);
#1276=AXIS2_PLACEMENT_3D('',#1828,#1438,#1439);
#1277=AXIS2_PLACEMENT_3D('',#1830,#1440,#1441);
#1278=AXIS2_PLACEMENT_3D('',#1833,#1443,#1444);
#1279=AXIS2_PLACEMENT_3D('',#1834,#1445,#1446);
#1280=AXIS2_PLACEMENT_3D('',#1836,#1447,#1448);
#1281=AXIS2_PLACEMENT_3D('',#1839,#1450,#1451);
#1282=AXIS2_PLACEMENT_3D('',#1840,#1452,#1453);
#1283=AXIS2_PLACEMENT_3D('',#1843,#1454,#1455);
#1284=AXIS2_PLACEMENT_3D('',#1847,#1457,#1458);
#1285=AXIS2_PLACEMENT_3D('',#1851,#1460,#1461);
#1286=AXIS2_PLACEMENT_3D('',#1855,#1463,#1464);
#1287=AXIS2_PLACEMENT_3D('',#1857,#1466,#1467);
#1288=AXIS2_PLACEMENT_3D('',#1861,#1469,#1470);
#1289=AXIS2_PLACEMENT_3D('',#1863,#1472,#1473);
#1290=AXIS2_PLACEMENT_3D('',#1867,#1476,#1477);
#1291=AXIS2_PLACEMENT_3D('',#1870,#1479,#1480);
#1292=AXIS2_PLACEMENT_3D('',#1871,#1481,#1482);
#1293=AXIS2_PLACEMENT_3D('',#1875,#1485,#1486);
#1294=AXIS2_PLACEMENT_3D('',#1878,#1487,#1488);
#1295=AXIS2_PLACEMENT_3D('',#1882,#1490,#1491);
#1296=AXIS2_PLACEMENT_3D('',#1886,#1493,#1494);
#1297=AXIS2_PLACEMENT_3D('',#1890,#1496,#1497);
#1298=AXIS2_PLACEMENT_3D('',#1893,#1499,#1500);
#1299=AXIS2_PLACEMENT_3D('',#1897,#1502,#1503);
#1300=AXIS2_PLACEMENT_3D('',#1899,#1505,#1506);
#1301=AXIS2_PLACEMENT_3D('',#1901,#1508,#1509);
#1302=AXIS2_PLACEMENT_3D('',#1903,#1511,#1512);
#1303=AXIS2_PLACEMENT_3D('',#1905,#1514,#1515);
#1304=AXIS2_PLACEMENT_3D('',#1906,#1516,#1517);
#1305=AXIS2_PLACEMENT_3D('',#1912,#1521,#1522);
#1306=AXIS2_PLACEMENT_3D('',#1914,#1523,#1524);
#1307=AXIS2_PLACEMENT_3D('',#1916,#1526,#1527);
#1308=AXIS2_PLACEMENT_3D('',#1920,#1530,#1531);
#1309=AXIS2_PLACEMENT_3D('',#1922,#1532,#1533);
#1310=AXIS2_PLACEMENT_3D('',#1924,#1535,#1536);
#1311=AXIS2_PLACEMENT_3D('',#1928,#1539,#1540);
#1312=AXIS2_PLACEMENT_3D('',#1930,#1541,#1542);
#1313=AXIS2_PLACEMENT_3D('',#1932,#1544,#1545);
#1314=AXIS2_PLACEMENT_3D('',#1936,#1548,#1549);
#1315=AXIS2_PLACEMENT_3D('',#1937,#1550,#1551);
#1316=AXIS2_PLACEMENT_3D('',#1938,#1552,#1553);
#1317=AXIS2_PLACEMENT_3D('',#1939,#1554,#1555);
#1318=AXIS2_PLACEMENT_3D('',#1941,#1556,#1557);
#1319=AXIS2_PLACEMENT_3D('',#1944,#1559,#1560);
#1320=AXIS2_PLACEMENT_3D('',#1945,#1561,#1562);
#1321=AXIS2_PLACEMENT_3D('',#1947,#1563,#1564);
#1322=AXIS2_PLACEMENT_3D('',#1950,#1566,#1567);
#1323=AXIS2_PLACEMENT_3D('',#1951,#1568,#1569);
#1324=AXIS2_PLACEMENT_3D('',#1952,#1570,#1571);
#1325=AXIS2_PLACEMENT_3D('',#1953,#1572,#1573);
#1326=AXIS2_PLACEMENT_3D('',#1955,#1574,#1575);
#1327=AXIS2_PLACEMENT_3D('',#1958,#1577,#1578);
#1328=AXIS2_PLACEMENT_3D('',#1959,#1579,#1580);
#1329=AXIS2_PLACEMENT_3D('',#1961,#1581,#1582);
#1330=AXIS2_PLACEMENT_3D('',#1964,#1584,#1585);
#1331=AXIS2_PLACEMENT_3D('',#1965,#1586,#1587);
#1332=AXIS2_PLACEMENT_3D('',#1966,#1588,#1589);
#1333=AXIS2_PLACEMENT_3D('',#1967,#1590,#1591);
#1334=AXIS2_PLACEMENT_3D('',#1969,#1592,#1593);
#1335=AXIS2_PLACEMENT_3D('',#1972,#1595,#1596);
#1336=AXIS2_PLACEMENT_3D('',#1973,#1597,#1598);
#1337=AXIS2_PLACEMENT_3D('',#1975,#1599,#1600);
#1338=AXIS2_PLACEMENT_3D('',#1978,#1602,#1603);
#1339=AXIS2_PLACEMENT_3D('',#1979,#1604,#1605);
#1340=AXIS2_PLACEMENT_3D('',#1980,#1606,#1607);
#1341=AXIS2_PLACEMENT_3D('',#1981,#1608,#1609);
#1342=AXIS2_PLACEMENT_3D('',#1983,#1610,#1611);
#1343=AXIS2_PLACEMENT_3D('',#1986,#1613,#1614);
#1344=AXIS2_PLACEMENT_3D('',#1987,#1615,#1616);
#1345=AXIS2_PLACEMENT_3D('',#1989,#1617,#1618);
#1346=AXIS2_PLACEMENT_3D('',#1992,#1620,#1621);
#1347=AXIS2_PLACEMENT_3D('',#1993,#1622,#1623);
#1348=AXIS2_PLACEMENT_3D('',#1994,#1624,#1625);
#1349=AXIS2_PLACEMENT_3D('',#1995,#1626,#1627);
#1350=AXIS2_PLACEMENT_3D('',#1997,#1628,#1629);
#1351=AXIS2_PLACEMENT_3D('',#2000,#1631,#1632);
#1352=AXIS2_PLACEMENT_3D('',#2001,#1633,#1634);
#1353=AXIS2_PLACEMENT_3D('',#2002,#1635,#1636);
#1354=AXIS2_PLACEMENT_3D('',#2003,#1637,#1638);
#1355=AXIS2_PLACEMENT_3D('',#2005,#1639,#1640);
#1356=AXIS2_PLACEMENT_3D('',#2008,#1642,#1643);
#1357=AXIS2_PLACEMENT_3D('',#2009,#1644,#1645);
#1358=AXIS2_PLACEMENT_3D('',#2010,#1646,#1647);
#1359=AXIS2_PLACEMENT_3D('',#2011,#1648,#1649);
#1360=AXIS2_PLACEMENT_3D('',#2013,#1650,#1651);
#1361=AXIS2_PLACEMENT_3D('',#2016,#1653,#1654);
#1362=AXIS2_PLACEMENT_3D('',#2017,#1655,#1656);
#1363=AXIS2_PLACEMENT_3D('',#2018,#1657,#1658);
#1364=AXIS2_PLACEMENT_3D('',#2019,#1659,#1660);
#1365=AXIS2_PLACEMENT_3D('',#2021,#1661,#1662);
#1366=AXIS2_PLACEMENT_3D('',#2024,#1664,#1665);
#1367=AXIS2_PLACEMENT_3D('',#2025,#1666,#1667);
#1368=AXIS2_PLACEMENT_3D('',#2026,#1668,#1669);
#1369=AXIS2_PLACEMENT_3D('',#2027,#1670,#1671);
#1370=AXIS2_PLACEMENT_3D('',#2029,#1672,#1673);
#1371=AXIS2_PLACEMENT_3D('',#2032,#1675,#1676);
#1372=AXIS2_PLACEMENT_3D('',#2033,#1677,#1678);
#1373=AXIS2_PLACEMENT_3D('',#2035,#1679,#1680);
#1374=AXIS2_PLACEMENT_3D('',#2038,#1682,#1683);
#1375=AXIS2_PLACEMENT_3D('',#2039,#1684,#1685);
#1376=AXIS2_PLACEMENT_3D('',#2048,#1690,#1691);
#1377=AXIS2_PLACEMENT_3D('',#2050,#1692,#1693);
#1378=AXIS2_PLACEMENT_3D('',#2052,#1694,#1695);
#1379=AXIS2_PLACEMENT_3D('',#2054,#1697,#1698);
#1380=AXIS2_PLACEMENT_3D('',#2060,#1702,#1703);
#1381=AXIS2_PLACEMENT_3D('',#2062,#1704,#1705);
#1382=AXIS2_PLACEMENT_3D('',#2064,#1706,#1707);
#1383=AXIS2_PLACEMENT_3D('',#2066,#1709,#1710);
#1384=AXIS2_PLACEMENT_3D('',#2072,#1714,#1715);
#1385=AXIS2_PLACEMENT_3D('',#2078,#1719,#1720);
#1386=AXIS2_PLACEMENT_3D('',#2080,#1721,#1722);
#1387=AXIS2_PLACEMENT_3D('',#2082,#1723,#1724);
#1388=AXIS2_PLACEMENT_3D('',#2084,#1726,#1727);
#1389=AXIS2_PLACEMENT_3D('',#2090,#1731,#1732);
#1390=AXIS2_PLACEMENT_3D('',#2092,#1733,#1734);
#1391=AXIS2_PLACEMENT_3D('',#2094,#1735,#1736);
#1392=AXIS2_PLACEMENT_3D('',#2096,#1738,#1739);
#1393=AXIS2_PLACEMENT_3D('',#2099,#1742,#1743);
#1394=AXIS2_PLACEMENT_3D('',#2100,#1744,#1745);
#1395=AXIS2_PLACEMENT_3D('',#2101,#1746,#1747);
#1396=AXIS2_PLACEMENT_3D('',#2103,#1748,#1749);
#1397=AXIS2_PLACEMENT_3D('',#2106,#1751,#1752);
#1398=AXIS2_PLACEMENT_3D('',#2107,#1753,#1754);
#1399=AXIS2_PLACEMENT_3D('',#2109,#1755,#1756);
#1400=AXIS2_PLACEMENT_3D('',#2112,#1758,#1759);
#1401=AXIS2_PLACEMENT_3D('',#2113,#1760,#1761);
#1402=AXIS2_PLACEMENT_3D('',#2122,#1766,#1767);
#1403=AXIS2_PLACEMENT_3D('',#2124,#1768,#1769);
#1404=AXIS2_PLACEMENT_3D('',#2126,#1770,#1771);
#1405=AXIS2_PLACEMENT_3D('',#2128,#1773,#1774);
#1406=AXIS2_PLACEMENT_3D('',#2134,#1778,#1779);
#1407=AXIS2_PLACEMENT_3D('',#2136,#1780,#1781);
#1408=AXIS2_PLACEMENT_3D('',#2138,#1782,#1783);
#1409=AXIS2_PLACEMENT_3D('',#2140,#1785,#1786);
#1410=AXIS2_PLACEMENT_3D('',#2146,#1790,#1791);
#1411=AXIS2_PLACEMENT_3D('',#2148,#1792,#1793);
#1412=AXIS2_PLACEMENT_3D('',#2150,#1794,#1795);
#1413=AXIS2_PLACEMENT_3D('',#2152,#1797,#1798);
#1414=AXIS2_PLACEMENT_3D('',#2158,#1802,#1803);
#1415=AXIS2_PLACEMENT_3D('',#2159,#1804,#1805);
#1416=AXIS2_PLACEMENT_3D('',#2160,#1806,#1807);
#1417=AXIS2_PLACEMENT_3D('',#2161,#1808,#1809);
#1418=AXIS2_PLACEMENT_3D('',#2162,#1810,#1811);
#1419=AXIS2_PLACEMENT_3D('',#2163,#1812,#1813);
#1420=DIRECTION('axis',(0.,0.,1.));
#1421=DIRECTION('refdir',(1.,0.,0.));
#1422=DIRECTION('axis',(0.,0.,1.));
#1423=DIRECTION('refdir',(1.,0.,0.));
#1424=DIRECTION('center_axis',(0.,0.,1.));
#1425=DIRECTION('ref_axis',(1.,0.,0.));
#1426=DIRECTION('center_axis',(0.,0.,1.));
#1427=DIRECTION('ref_axis',(1.,0.,0.));
#1428=DIRECTION('',(0.,0.,1.));
#1429=DIRECTION('center_axis',(0.,0.,-1.));
#1430=DIRECTION('ref_axis',(1.,0.,0.));
#1431=DIRECTION('center_axis',(0.,0.,1.));
#1432=DIRECTION('ref_axis',(1.,0.,0.));
#1433=DIRECTION('center_axis',(0.,0.,1.));
#1434=DIRECTION('ref_axis',(1.,0.,0.));
#1435=DIRECTION('',(0.,0.,1.));
#1436=DIRECTION('center_axis',(0.,0.,-1.));
#1437=DIRECTION('ref_axis',(1.,0.,0.));
#1438=DIRECTION('center_axis',(0.,0.,1.));
#1439=DIRECTION('ref_axis',(1.,0.,0.));
#1440=DIRECTION('center_axis',(0.,0.,1.));
#1441=DIRECTION('ref_axis',(1.,0.,0.));
#1442=DIRECTION('',(0.,0.,1.));
#1443=DIRECTION('center_axis',(0.,0.,-1.));
#1444=DIRECTION('ref_axis',(1.,0.,0.));
#1445=DIRECTION('center_axis',(0.,0.,1.));
#1446=DIRECTION('ref_axis',(1.,0.,0.));
#1447=DIRECTION('center_axis',(0.,0.,1.));
#1448=DIRECTION('ref_axis',(1.,0.,0.));
#1449=DIRECTION('',(0.,0.,1.));
#1450=DIRECTION('center_axis',(0.,0.,-1.));
#1451=DIRECTION('ref_axis',(1.,0.,0.));
#1452=DIRECTION('center_axis',(0.,0.,1.));
#1453=DIRECTION('ref_axis',(1.,0.,0.));
#1454=DIRECTION('center_axis',(0.,0.,-1.));
#1455=DIRECTION('ref_axis',(5.92118946466745E-15,-1.,0.));
#1456=DIRECTION('',(0.,-1.,0.));
#1457=DIRECTION('center_axis',(0.,0.,-1.));
#1458=DIRECTION('ref_axis',(1.,8.14163551391775E-15,0.));
#1459=DIRECTION('',(1.,0.,0.));
#1460=DIRECTION('center_axis',(0.,0.,-1.));
#1461=DIRECTION('ref_axis',(-7.40148683083438E-16,1.,0.));
#1462=DIRECTION('',(0.,1.,0.));
#1463=DIRECTION('center_axis',(0.,0.,-1.));
#1464=DIRECTION('ref_axis',(-1.,5.92118946466754E-15,0.));
#1465=DIRECTION('',(-1.,0.,0.));
#1466=DIRECTION('center_axis',(0.,0.,1.));
#1467=DIRECTION('ref_axis',(-7.40148683083438E-16,1.,0.));
#1468=DIRECTION('',(0.,0.,1.));
#1469=DIRECTION('center_axis',(0.,0.,-1.));
#1470=DIRECTION('ref_axis',(-7.40148683083438E-16,1.,0.));
#1471=DIRECTION('',(0.,0.,1.));
#1472=DIRECTION('center_axis',(0.,-1.,0.));
#1473=DIRECTION('ref_axis',(1.,0.,0.));
#1474=DIRECTION('',(0.,0.,1.));
#1475=DIRECTION('',(1.,0.,0.));
#1476=DIRECTION('center_axis',(0.,0.,1.));
#1477=DIRECTION('ref_axis',(1.,8.14163551391775E-15,0.));
#1478=DIRECTION('',(0.,0.,1.));
#1479=DIRECTION('center_axis',(0.,0.,-1.));
#1480=DIRECTION('ref_axis',(1.,8.14163551391775E-15,0.));
#1481=DIRECTION('center_axis',(-1.,0.,0.));
#1482=DIRECTION('ref_axis',(0.,-1.,0.));
#1483=DIRECTION('',(0.,0.,1.));
#1484=DIRECTION('',(0.,-1.,0.));
#1485=DIRECTION('center_axis',(0.,0.,1.));
#1486=DIRECTION('ref_axis',(1.,0.,0.));
#1487=DIRECTION('center_axis',(0.,0.,1.));
#1488=DIRECTION('ref_axis',(-1.,0.,0.));
#1489=DIRECTION('',(1.,-1.13280836820324E-16,0.));
#1490=DIRECTION('center_axis',(0.,0.,1.));
#1491=DIRECTION('ref_axis',(-4.73695157173401E-15,-1.,0.));
#1492=DIRECTION('',(4.94118750705643E-16,1.,0.));
#1493=DIRECTION('center_axis',(0.,0.,1.));
#1494=DIRECTION('ref_axis',(1.,-1.1842378929335E-15,0.));
#1495=DIRECTION('',(-1.,0.,0.));
#1496=DIRECTION('center_axis',(0.,0.,1.));
#1497=DIRECTION('ref_axis',(-5.9211894646675E-16,1.,0.));
#1498=DIRECTION('',(0.,-1.,0.));
#1499=DIRECTION('center_axis',(0.,0.,-1.));
#1500=DIRECTION('ref_axis',(5.92118946466745E-15,-1.,0.));
#1501=DIRECTION('',(-1.,0.,0.));
#1502=DIRECTION('center_axis',(0.,0.,-1.));
#1503=DIRECTION('ref_axis',(-1.,5.92118946466754E-15,0.));
#1504=DIRECTION('',(0.,1.,0.));
#1505=DIRECTION('center_axis',(1.,0.,0.));
#1506=DIRECTION('ref_axis',(0.,1.,0.));
#1507=DIRECTION('',(0.,0.,1.));
#1508=DIRECTION('center_axis',(0.,0.,1.));
#1509=DIRECTION('ref_axis',(-1.,5.92118946466754E-15,0.));
#1510=DIRECTION('',(0.,0.,1.));
#1511=DIRECTION('center_axis',(0.,1.,0.));
#1512=DIRECTION('ref_axis',(-1.,0.,0.));
#1513=DIRECTION('',(0.,0.,1.));
#1514=DIRECTION('center_axis',(0.,0.,1.));
#1515=DIRECTION('ref_axis',(5.92118946466745E-15,-1.,0.));
#1516=DIRECTION('center_axis',(-1.,0.,0.));
#1517=DIRECTION('ref_axis',(0.,-1.,0.));
#1518=DIRECTION('',(0.,-1.,0.));
#1519=DIRECTION('',(0.,0.,1.));
#1520=DIRECTION('',(0.,0.,1.));
#1521=DIRECTION('center_axis',(0.,0.,1.));
#1522=DIRECTION('ref_axis',(-5.9211894646675E-16,1.,0.));
#1523=DIRECTION('center_axis',(0.,0.,1.));
#1524=DIRECTION('ref_axis',(-5.9211894646675E-16,1.,0.));
#1525=DIRECTION('',(0.,0.,1.));
#1526=DIRECTION('center_axis',(0.,1.,0.));
#1527=DIRECTION('ref_axis',(-1.,0.,0.));
#1528=DIRECTION('',(-1.,0.,0.));
#1529=DIRECTION('',(0.,0.,1.));
#1530=DIRECTION('center_axis',(0.,0.,1.));
#1531=DIRECTION('ref_axis',(1.,-1.1842378929335E-15,0.));
#1532=DIRECTION('center_axis',(0.,0.,1.));
#1533=DIRECTION('ref_axis',(1.,-1.1842378929335E-15,0.));
#1534=DIRECTION('',(0.,0.,1.));
#1535=DIRECTION('center_axis',(1.,-4.94118750705643E-16,0.));
#1536=DIRECTION('ref_axis',(4.94118750705643E-16,1.,0.));
#1537=DIRECTION('',(4.94118750705643E-16,1.,0.));
#1538=DIRECTION('',(0.,0.,1.));
#1539=DIRECTION('center_axis',(0.,0.,1.));
#1540=DIRECTION('ref_axis',(-4.73695157173401E-15,-1.,0.));
#1541=DIRECTION('center_axis',(0.,0.,1.));
#1542=DIRECTION('ref_axis',(-4.73695157173401E-15,-1.,0.));
#1543=DIRECTION('',(0.,0.,1.));
#1544=DIRECTION('center_axis',(-1.13280836820324E-16,-1.,0.));
#1545=DIRECTION('ref_axis',(1.,-1.13280836820324E-16,0.));
#1546=DIRECTION('',(1.,-1.13280836820324E-16,0.));
#1547=DIRECTION('',(0.,0.,1.));
#1548=DIRECTION('center_axis',(0.,0.,1.));
#1549=DIRECTION('ref_axis',(-1.,0.,0.));
#1550=DIRECTION('center_axis',(0.,0.,1.));
#1551=DIRECTION('ref_axis',(-1.,0.,0.));
#1552=DIRECTION('center_axis',(0.,0.,1.));
#1553=DIRECTION('ref_axis',(1.,0.,0.));
#1554=DIRECTION('center_axis',(0.,0.,1.));
#1555=DIRECTION('ref_axis',(-1.,0.,0.));
#1556=DIRECTION('center_axis',(0.,0.,-1.));
#1557=DIRECTION('ref_axis',(-1.,0.,0.));
#1558=DIRECTION('',(0.,0.,-1.));
#1559=DIRECTION('center_axis',(0.,0.,-1.));
#1560=DIRECTION('ref_axis',(-1.,0.,0.));
#1561=DIRECTION('center_axis',(0.,0.,1.));
#1562=DIRECTION('ref_axis',(-1.,0.,0.));
#1563=DIRECTION('center_axis',(0.,0.,1.));
#1564=DIRECTION('ref_axis',(-1.,0.,0.));
#1565=DIRECTION('',(0.,0.,-1.));
#1566=DIRECTION('center_axis',(0.,0.,1.));
#1567=DIRECTION('ref_axis',(-1.,0.,0.));
#1568=DIRECTION('center_axis',(0.,0.,1.));
#1569=DIRECTION('ref_axis',(-1.,0.,0.));
#1570=DIRECTION('center_axis',(0.,0.,1.));
#1571=DIRECTION('ref_axis',(-1.,0.,0.));
#1572=DIRECTION('center_axis',(0.,0.,1.));
#1573=DIRECTION('ref_axis',(-1.,0.,0.));
#1574=DIRECTION('center_axis',(0.,0.,-1.));
#1575=DIRECTION('ref_axis',(-1.,0.,0.));
#1576=DIRECTION('',(0.,0.,-1.));
#1577=DIRECTION('center_axis',(0.,0.,-1.));
#1578=DIRECTION('ref_axis',(-1.,0.,0.));
#1579=DIRECTION('center_axis',(0.,0.,1.));
#1580=DIRECTION('ref_axis',(-1.,0.,0.));
#1581=DIRECTION('center_axis',(0.,0.,1.));
#1582=DIRECTION('ref_axis',(-1.,0.,0.));
#1583=DIRECTION('',(0.,0.,-1.));
#1584=DIRECTION('center_axis',(0.,0.,1.));
#1585=DIRECTION('ref_axis',(-1.,0.,0.));
#1586=DIRECTION('center_axis',(0.,0.,1.));
#1587=DIRECTION('ref_axis',(-1.,0.,0.));
#1588=DIRECTION('center_axis',(0.,0.,1.));
#1589=DIRECTION('ref_axis',(-1.,0.,0.));
#1590=DIRECTION('center_axis',(0.,0.,1.));
#1591=DIRECTION('ref_axis',(-1.,0.,0.));
#1592=DIRECTION('center_axis',(0.,0.,-1.));
#1593=DIRECTION('ref_axis',(-1.,0.,0.));
#1594=DIRECTION('',(0.,0.,-1.));
#1595=DIRECTION('center_axis',(0.,0.,-1.));
#1596=DIRECTION('ref_axis',(-1.,0.,0.));
#1597=DIRECTION('center_axis',(0.,0.,1.));
#1598=DIRECTION('ref_axis',(-1.,0.,0.));
#1599=DIRECTION('center_axis',(0.,0.,1.));
#1600=DIRECTION('ref_axis',(-1.,0.,0.));
#1601=DIRECTION('',(0.,0.,-1.));
#1602=DIRECTION('center_axis',(0.,0.,1.));
#1603=DIRECTION('ref_axis',(-1.,0.,0.));
#1604=DIRECTION('center_axis',(0.,0.,1.));
#1605=DIRECTION('ref_axis',(-1.,0.,0.));
#1606=DIRECTION('center_axis',(0.,0.,1.));
#1607=DIRECTION('ref_axis',(-1.,0.,0.));
#1608=DIRECTION('center_axis',(0.,0.,1.));
#1609=DIRECTION('ref_axis',(-1.,0.,0.));
#1610=DIRECTION('center_axis',(0.,0.,-1.));
#1611=DIRECTION('ref_axis',(-1.,0.,0.));
#1612=DIRECTION('',(0.,0.,-1.));
#1613=DIRECTION('center_axis',(0.,0.,-1.));
#1614=DIRECTION('ref_axis',(-1.,0.,0.));
#1615=DIRECTION('center_axis',(0.,0.,1.));
#1616=DIRECTION('ref_axis',(-1.,0.,0.));
#1617=DIRECTION('center_axis',(0.,0.,1.));
#1618=DIRECTION('ref_axis',(-1.,0.,0.));
#1619=DIRECTION('',(0.,0.,-1.));
#1620=DIRECTION('center_axis',(0.,0.,1.));
#1621=DIRECTION('ref_axis',(-1.,0.,0.));
#1622=DIRECTION('center_axis',(0.,0.,1.));
#1623=DIRECTION('ref_axis',(-1.,0.,0.));
#1624=DIRECTION('center_axis',(0.,0.,1.));
#1625=DIRECTION('ref_axis',(-1.,0.,0.));
#1626=DIRECTION('center_axis',(0.,0.,1.));
#1627=DIRECTION('ref_axis',(-1.,0.,0.));
#1628=DIRECTION('center_axis',(0.,0.,1.));
#1629=DIRECTION('ref_axis',(-1.,0.,0.));
#1630=DIRECTION('',(0.,0.,-1.));
#1631=DIRECTION('center_axis',(0.,0.,1.));
#1632=DIRECTION('ref_axis',(-1.,0.,0.));
#1633=DIRECTION('center_axis',(0.,0.,1.));
#1634=DIRECTION('ref_axis',(-1.,0.,0.));
#1635=DIRECTION('center_axis',(0.,0.,1.));
#1636=DIRECTION('ref_axis',(-1.,0.,0.));
#1637=DIRECTION('center_axis',(0.,0.,1.));
#1638=DIRECTION('ref_axis',(-1.,0.,0.));
#1639=DIRECTION('center_axis',(0.,0.,1.));
#1640=DIRECTION('ref_axis',(-1.,0.,0.));
#1641=DIRECTION('',(0.,0.,-1.));
#1642=DIRECTION('center_axis',(0.,0.,1.));
#1643=DIRECTION('ref_axis',(-1.,0.,0.));
#1644=DIRECTION('center_axis',(0.,0.,1.));
#1645=DIRECTION('ref_axis',(-1.,0.,0.));
#1646=DIRECTION('center_axis',(0.,0.,1.));
#1647=DIRECTION('ref_axis',(-1.,0.,0.));
#1648=DIRECTION('center_axis',(0.,0.,1.));
#1649=DIRECTION('ref_axis',(-1.,0.,0.));
#1650=DIRECTION('center_axis',(0.,0.,1.));
#1651=DIRECTION('ref_axis',(-1.,0.,0.));
#1652=DIRECTION('',(0.,0.,-1.));
#1653=DIRECTION('center_axis',(0.,0.,1.));
#1654=DIRECTION('ref_axis',(-1.,0.,0.));
#1655=DIRECTION('center_axis',(0.,0.,1.));
#1656=DIRECTION('ref_axis',(-1.,0.,0.));
#1657=DIRECTION('center_axis',(0.,0.,1.));
#1658=DIRECTION('ref_axis',(-1.,0.,0.));
#1659=DIRECTION('center_axis',(0.,0.,1.));
#1660=DIRECTION('ref_axis',(-1.,0.,0.));
#1661=DIRECTION('center_axis',(0.,0.,1.));
#1662=DIRECTION('ref_axis',(-1.,0.,0.));
#1663=DIRECTION('',(0.,0.,-1.));
#1664=DIRECTION('center_axis',(0.,0.,1.));
#1665=DIRECTION('ref_axis',(-1.,0.,0.));
#1666=DIRECTION('center_axis',(0.,0.,1.));
#1667=DIRECTION('ref_axis',(-1.,0.,0.));
#1668=DIRECTION('center_axis',(0.,0.,1.));
#1669=DIRECTION('ref_axis',(-1.,0.,0.));
#1670=DIRECTION('center_axis',(0.,0.,1.));
#1671=DIRECTION('ref_axis',(-1.,0.,0.));
#1672=DIRECTION('center_axis',(0.,0.,-1.));
#1673=DIRECTION('ref_axis',(-1.,0.,0.));
#1674=DIRECTION('',(0.,0.,-1.));
#1675=DIRECTION('center_axis',(0.,0.,-1.));
#1676=DIRECTION('ref_axis',(-1.,0.,0.));
#1677=DIRECTION('center_axis',(0.,0.,1.));
#1678=DIRECTION('ref_axis',(-1.,0.,0.));
#1679=DIRECTION('center_axis',(0.,0.,-1.));
#1680=DIRECTION('ref_axis',(-1.,0.,0.));
#1681=DIRECTION('',(0.,0.,-1.));
#1682=DIRECTION('center_axis',(0.,0.,-1.));
#1683=DIRECTION('ref_axis',(-1.,0.,0.));
#1684=DIRECTION('center_axis',(-1.,0.,0.));
#1685=DIRECTION('ref_axis',(0.,-1.,0.));
#1686=DIRECTION('',(0.,-1.,0.));
#1687=DIRECTION('',(0.,0.,1.));
#1688=DIRECTION('',(0.,-1.,0.));
#1689=DIRECTION('',(0.,0.,1.));
#1690=DIRECTION('center_axis',(0.,0.,1.));
#1691=DIRECTION('ref_axis',(1.,-4.84460956200071E-15,0.));
#1692=DIRECTION('center_axis',(0.,0.,1.));
#1693=DIRECTION('ref_axis',(1.,-4.84460956200071E-15,0.));
#1694=DIRECTION('center_axis',(0.,0.,-1.));
#1695=DIRECTION('ref_axis',(1.,-4.84460956200071E-15,0.));
#1696=DIRECTION('',(0.,0.,1.));
#1697=DIRECTION('center_axis',(0.,-1.,0.));
#1698=DIRECTION('ref_axis',(1.,0.,0.));
#1699=DIRECTION('',(1.,0.,0.));
#1700=DIRECTION('',(1.,0.,0.));
#1701=DIRECTION('',(0.,0.,1.));
#1702=DIRECTION('center_axis',(0.,0.,1.));
#1703=DIRECTION('ref_axis',(0.,1.,0.));
#1704=DIRECTION('center_axis',(0.,0.,1.));
#1705=DIRECTION('ref_axis',(0.,1.,0.));
#1706=DIRECTION('center_axis',(0.,0.,-1.));
#1707=DIRECTION('ref_axis',(0.,1.,0.));
#1708=DIRECTION('',(0.,0.,1.));
#1709=DIRECTION('center_axis',(1.,0.,0.));
#1710=DIRECTION('ref_axis',(0.,1.,0.));
#1711=DIRECTION('',(0.,1.,0.));
#1712=DIRECTION('',(0.,1.,0.));
#1713=DIRECTION('',(0.,0.,1.));
#1714=DIRECTION('center_axis',(0.,-1.,0.));
#1715=DIRECTION('ref_axis',(1.,0.,0.));
#1716=DIRECTION('',(1.,0.,0.));
#1717=DIRECTION('',(1.,0.,0.));
#1718=DIRECTION('',(0.,0.,1.));
#1719=DIRECTION('center_axis',(0.,0.,1.));
#1720=DIRECTION('ref_axis',(-1.48029736616687E-15,1.,0.));
#1721=DIRECTION('center_axis',(0.,0.,1.));
#1722=DIRECTION('ref_axis',(-1.48029736616687E-15,1.,0.));
#1723=DIRECTION('center_axis',(0.,0.,1.));
#1724=DIRECTION('ref_axis',(-1.48029736616687E-15,1.,0.));
#1725=DIRECTION('',(0.,0.,1.));
#1726=DIRECTION('center_axis',(0.,1.,0.));
#1727=DIRECTION('ref_axis',(-1.,0.,0.));
#1728=DIRECTION('',(-1.,0.,0.));
#1729=DIRECTION('',(-1.,0.,0.));
#1730=DIRECTION('',(0.,0.,1.));
#1731=DIRECTION('center_axis',(0.,0.,1.));
#1732=DIRECTION('ref_axis',(1.,8.88178419700118E-15,0.));
#1733=DIRECTION('center_axis',(0.,0.,1.));
#1734=DIRECTION('ref_axis',(1.,8.88178419700118E-15,0.));
#1735=DIRECTION('center_axis',(0.,0.,1.));
#1736=DIRECTION('ref_axis',(1.,8.88178419700118E-15,0.));
#1737=DIRECTION('',(0.,0.,1.));
#1738=DIRECTION('center_axis',(0.,-1.,0.));
#1739=DIRECTION('ref_axis',(1.,0.,0.));
#1740=DIRECTION('',(1.,0.,0.));
#1741=DIRECTION('',(1.,0.,0.));
#1742=DIRECTION('center_axis',(0.,0.,1.));
#1743=DIRECTION('ref_axis',(-1.,0.,0.));
#1744=DIRECTION('center_axis',(0.,0.,1.));
#1745=DIRECTION('ref_axis',(-1.,0.,0.));
#1746=DIRECTION('center_axis',(0.,0.,1.));
#1747=DIRECTION('ref_axis',(-1.,0.,0.));
#1748=DIRECTION('center_axis',(0.,0.,-1.));
#1749=DIRECTION('ref_axis',(-1.,0.,0.));
#1750=DIRECTION('',(0.,0.,-1.));
#1751=DIRECTION('center_axis',(0.,0.,-1.));
#1752=DIRECTION('ref_axis',(-1.,0.,0.));
#1753=DIRECTION('center_axis',(0.,0.,1.));
#1754=DIRECTION('ref_axis',(-1.,0.,0.));
#1755=DIRECTION('center_axis',(0.,0.,-1.));
#1756=DIRECTION('ref_axis',(-1.,0.,0.));
#1757=DIRECTION('',(0.,0.,-1.));
#1758=DIRECTION('center_axis',(0.,0.,-1.));
#1759=DIRECTION('ref_axis',(-1.,0.,0.));
#1760=DIRECTION('center_axis',(0.,-1.,0.));
#1761=DIRECTION('ref_axis',(1.,0.,0.));
#1762=DIRECTION('',(-1.,0.,0.));
#1763=DIRECTION('',(0.,0.,1.));
#1764=DIRECTION('',(1.,0.,0.));
#1765=DIRECTION('',(0.,0.,1.));
#1766=DIRECTION('center_axis',(0.,0.,1.));
#1767=DIRECTION('ref_axis',(-1.,-5.92118946466749E-15,0.));
#1768=DIRECTION('center_axis',(0.,0.,1.));
#1769=DIRECTION('ref_axis',(-1.,-5.92118946466749E-15,0.));
#1770=DIRECTION('center_axis',(0.,0.,1.));
#1771=DIRECTION('ref_axis',(-1.,-5.92118946466749E-15,0.));
#1772=DIRECTION('',(0.,0.,1.));
#1773=DIRECTION('center_axis',(0.,1.,0.));
#1774=DIRECTION('ref_axis',(-1.,0.,0.));
#1775=DIRECTION('',(1.,0.,0.));
#1776=DIRECTION('',(-1.,0.,0.));
#1777=DIRECTION('',(0.,0.,1.));
#1778=DIRECTION('center_axis',(0.,0.,1.));
#1779=DIRECTION('ref_axis',(-1.,1.01506105108586E-14,0.));
#1780=DIRECTION('center_axis',(0.,0.,1.));
#1781=DIRECTION('ref_axis',(-1.,1.01506105108586E-14,0.));
#1782=DIRECTION('center_axis',(0.,0.,-1.));
#1783=DIRECTION('ref_axis',(-1.,1.01506105108586E-14,0.));
#1784=DIRECTION('',(0.,0.,1.));
#1785=DIRECTION('center_axis',(0.,1.,0.));
#1786=DIRECTION('ref_axis',(-1.,0.,0.));
#1787=DIRECTION('',(1.,0.,0.));
#1788=DIRECTION('',(-1.,0.,0.));
#1789=DIRECTION('',(0.,0.,1.));
#1790=DIRECTION('center_axis',(0.,0.,1.));
#1791=DIRECTION('ref_axis',(-1.01506105108586E-14,-1.,0.));
#1792=DIRECTION('center_axis',(0.,0.,1.));
#1793=DIRECTION('ref_axis',(-1.01506105108586E-14,-1.,0.));
#1794=DIRECTION('center_axis',(0.,0.,-1.));
#1795=DIRECTION('ref_axis',(-1.01506105108586E-14,-1.,0.));
#1796=DIRECTION('',(0.,0.,1.));
#1797=DIRECTION('center_axis',(0.,1.,0.));
#1798=DIRECTION('ref_axis',(-1.,0.,0.));
#1799=DIRECTION('',(1.,0.,0.));
#1800=DIRECTION('',(-1.,0.,0.));
#1801=DIRECTION('',(0.,0.,1.));
#1802=DIRECTION('center_axis',(0.,0.,1.));
#1803=DIRECTION('ref_axis',(5.92118946466745E-15,-1.,0.));
#1804=DIRECTION('center_axis',(0.,0.,1.));
#1805=DIRECTION('ref_axis',(5.92118946466745E-15,-1.,0.));
#1806=DIRECTION('center_axis',(0.,0.,1.));
#1807=DIRECTION('ref_axis',(5.92118946466745E-15,-1.,0.));
#1808=DIRECTION('center_axis',(0.,0.,1.));
#1809=DIRECTION('ref_axis',(-1.,0.,0.));
#1810=DIRECTION('center_axis',(0.,0.,1.));
#1811=DIRECTION('ref_axis',(-1.,0.,0.));
#1812=DIRECTION('',(0.,0.,1.));
#1813=DIRECTION('',(1.,0.,0.));
#1814=CARTESIAN_POINT('',(0.,0.,0.));
#1815=CARTESIAN_POINT('',(0.,0.,0.));
#1816=CARTESIAN_POINT('Origin',(375.852008688662,-55.7836709615422,0.));
#1817=CARTESIAN_POINT('',(374.252008688662,-55.7836709615422,0.));
#1818=CARTESIAN_POINT('Origin',(375.852008688662,-55.7836709615422,0.));
#1819=CARTESIAN_POINT('',(374.252008688662,-55.7836709615422,16.));
#1820=CARTESIAN_POINT('',(374.252008688662,-55.7836709615422,0.));
#1821=CARTESIAN_POINT('Origin',(375.852008688662,-55.7836709615422,16.));
#1822=CARTESIAN_POINT('Origin',(45.7681281805697,-211.016928168255,0.));
#1823=CARTESIAN_POINT('',(44.1681281805697,-211.016928168255,0.));
#1824=CARTESIAN_POINT('Origin',(45.7681281805697,-211.016928168255,0.));
#1825=CARTESIAN_POINT('',(44.1681281805697,-211.016928168255,16.));
#1826=CARTESIAN_POINT('',(44.1681281805697,-211.016928168255,0.));
#1827=CARTESIAN_POINT('Origin',(45.7681281805697,-211.016928168255,16.));
#1828=CARTESIAN_POINT('Origin',(45.7681281805697,-55.7836709615422,0.));
#1829=CARTESIAN_POINT('',(44.1681281805697,-55.7836709615422,0.));
#1830=CARTESIAN_POINT('Origin',(45.7681281805697,-55.7836709615422,0.));
#1831=CARTESIAN_POINT('',(44.1681281805697,-55.7836709615422,16.));
#1832=CARTESIAN_POINT('',(44.1681281805697,-55.7836709615422,0.));
#1833=CARTESIAN_POINT('Origin',(45.7681281805697,-55.7836709615422,16.));
#1834=CARTESIAN_POINT('Origin',(375.852008688662,-211.016928168255,0.));
#1835=CARTESIAN_POINT('',(374.252008688662,-211.016928168255,0.));
#1836=CARTESIAN_POINT('Origin',(375.852008688662,-211.016928168255,0.));
#1837=CARTESIAN_POINT('',(374.252008688662,-211.016928168255,16.));
#1838=CARTESIAN_POINT('',(374.252008688662,-211.016928168255,0.));
#1839=CARTESIAN_POINT('Origin',(375.852008688662,-211.016928168255,16.));
#1840=CARTESIAN_POINT('Origin',(211.000003144145,-132.500001974404,1.));
#1841=CARTESIAN_POINT('',(374.000005573034,-198.000003129244,1.));
#1842=CARTESIAN_POINT('',(362.000005573034,-210.000003129244,1.));
#1843=CARTESIAN_POINT('Origin',(362.000005573034,-198.000003129244,1.));
#1844=CARTESIAN_POINT('',(374.000005573034,-67.0000008195639,1.));
#1845=CARTESIAN_POINT('',(374.000005573034,-99.7500013969839,1.));
#1846=CARTESIAN_POINT('',(362.000005573034,-55.0000008195639,1.));
#1847=CARTESIAN_POINT('Origin',(362.000005573034,-67.000000819564,1.));
#1848=CARTESIAN_POINT('',(60.0000007152557,-55.0000008195639,1.));
#1849=CARTESIAN_POINT('',(135.5000019297,-55.0000008195639,1.));
#1850=CARTESIAN_POINT('',(48.0000007152557,-67.0000008195639,1.));
#1851=CARTESIAN_POINT('Origin',(60.0000007152557,-67.0000008195639,1.));
#1852=CARTESIAN_POINT('',(48.0000007152557,-198.000003129244,1.));
#1853=CARTESIAN_POINT('',(48.0000007152557,-165.250002551824,1.));
#1854=CARTESIAN_POINT('',(60.0000007152557,-210.000003129244,1.));
#1855=CARTESIAN_POINT('Origin',(60.0000007152557,-198.000003129244,1.));
#1856=CARTESIAN_POINT('',(286.50000435859,-210.000003129244,1.));
#1857=CARTESIAN_POINT('Origin',(60.0000007152557,-67.0000008195639,0.));
#1858=CARTESIAN_POINT('',(60.0000007152557,-55.0000008195639,16.));
#1859=CARTESIAN_POINT('',(60.0000007152557,-55.0000008195639,0.));
#1860=CARTESIAN_POINT('',(48.0000007152557,-67.0000008195639,16.));
#1861=CARTESIAN_POINT('Origin',(60.0000007152557,-67.0000008195639,16.));
#1862=CARTESIAN_POINT('',(48.0000007152557,-67.0000008195639,0.));
#1863=CARTESIAN_POINT('Origin',(60.0000007152557,-55.0000008195639,0.));
#1864=CARTESIAN_POINT('',(362.000005573034,-55.0000008195639,16.));
#1865=CARTESIAN_POINT('',(362.000005573034,-55.0000008195639,0.));
#1866=CARTESIAN_POINT('',(362.000005573034,-55.0000008195639,16.));
#1867=CARTESIAN_POINT('Origin',(362.000005573034,-67.000000819564,0.));
#1868=CARTESIAN_POINT('',(374.000005573034,-67.0000008195639,16.));
#1869=CARTESIAN_POINT('',(374.000005573034,-67.0000008195639,0.));
#1870=CARTESIAN_POINT('Origin',(362.000005573034,-67.000000819564,16.));
#1871=CARTESIAN_POINT('Origin',(374.000005573034,-67.0000008195639,0.));
#1872=CARTESIAN_POINT('',(374.000005573034,-198.000003129244,16.));
#1873=CARTESIAN_POINT('',(374.000005573034,-198.000003129244,0.));
#1874=CARTESIAN_POINT('',(374.000005573034,-198.000003129244,16.));
#1875=CARTESIAN_POINT('Origin',(210.810002413988,-133.399997884408,16.));
#1876=CARTESIAN_POINT('',(38.9999991282821,-205.299995075911,16.));
#1877=CARTESIAN_POINT('',(53.9999991282821,-220.299995075911,16.));
#1878=CARTESIAN_POINT('Origin',(53.9999991282821,-205.299995075911,16.));
#1879=CARTESIAN_POINT('',(367.620005699694,-220.299995075911,16.));
#1880=CARTESIAN_POINT('',(53.9999991282821,-220.299995075911,16.));
#1881=CARTESIAN_POINT('',(382.620005699694,-205.299995075911,16.));
#1882=CARTESIAN_POINT('Origin',(367.620005699694,-205.299995075911,16.));
#1883=CARTESIAN_POINT('',(382.620005699694,-61.500000692904,16.));
#1884=CARTESIAN_POINT('',(382.620005699694,-205.299995075911,16.));
#1885=CARTESIAN_POINT('',(367.620005699694,-46.500000692904,16.));
#1886=CARTESIAN_POINT('Origin',(367.620005699694,-61.500000692904,16.));
#1887=CARTESIAN_POINT('',(53.9999991282821,-46.500000692904,16.));
#1888=CARTESIAN_POINT('',(367.620005699694,-46.500000692904,16.));
#1889=CARTESIAN_POINT('',(38.9999991282821,-61.500000692904,16.));
#1890=CARTESIAN_POINT('Origin',(53.9999991282821,-61.500000692904,16.));
#1891=CARTESIAN_POINT('',(38.9999991282821,-61.500000692904,16.));
#1892=CARTESIAN_POINT('',(362.000005573034,-210.000003129244,16.));
#1893=CARTESIAN_POINT('Origin',(362.000005573034,-198.000003129244,16.));
#1894=CARTESIAN_POINT('',(60.0000007152557,-210.000003129244,16.));
#1895=CARTESIAN_POINT('',(60.0000007152557,-210.000003129244,16.));
#1896=CARTESIAN_POINT('',(48.0000007152557,-198.000003129244,16.));
#1897=CARTESIAN_POINT('Origin',(60.0000007152557,-198.000003129244,16.));
#1898=CARTESIAN_POINT('',(48.0000007152557,-67.0000008195639,16.));
#1899=CARTESIAN_POINT('Origin',(48.0000007152557,-198.000003129244,0.));
#1900=CARTESIAN_POINT('',(48.0000007152557,-198.000003129244,0.));
#1901=CARTESIAN_POINT('Origin',(60.0000007152557,-198.000003129244,0.));
#1902=CARTESIAN_POINT('',(60.0000007152557,-210.000003129244,0.));
#1903=CARTESIAN_POINT('Origin',(362.000005573034,-210.000003129244,0.));
#1904=CARTESIAN_POINT('',(362.000005573034,-210.000003129244,0.));
#1905=CARTESIAN_POINT('Origin',(362.000005573034,-198.000003129244,0.));
#1906=CARTESIAN_POINT('Origin',(38.9999991282821,-61.500000692904,0.));
#1907=CARTESIAN_POINT('',(38.9999991282821,-61.500000692904,0.));
#1908=CARTESIAN_POINT('',(38.9999991282821,-205.299995075911,0.));
#1909=CARTESIAN_POINT('',(38.9999991282821,-61.500000692904,0.));
#1910=CARTESIAN_POINT('',(38.9999991282821,-205.299995075911,0.));
#1911=CARTESIAN_POINT('',(38.9999991282821,-61.500000692904,0.));
#1912=CARTESIAN_POINT('Origin',(53.9999991282821,-61.500000692904,0.));
#1913=CARTESIAN_POINT('',(53.9999991282821,-46.500000692904,0.));
#1914=CARTESIAN_POINT('Origin',(53.9999991282821,-61.500000692904,0.));
#1915=CARTESIAN_POINT('',(53.9999991282821,-46.500000692904,0.));
#1916=CARTESIAN_POINT('Origin',(367.620005699694,-46.500000692904,0.));
#1917=CARTESIAN_POINT('',(367.620005699694,-46.500000692904,0.));
#1918=CARTESIAN_POINT('',(367.620005699694,-46.500000692904,0.));
#1919=CARTESIAN_POINT('',(367.620005699694,-46.500000692904,0.));
#1920=CARTESIAN_POINT('Origin',(367.620005699694,-61.500000692904,0.));
#1921=CARTESIAN_POINT('',(382.620005699694,-61.500000692904,0.));
#1922=CARTESIAN_POINT('Origin',(367.620005699694,-61.500000692904,0.));
#1923=CARTESIAN_POINT('',(382.620005699694,-61.500000692904,0.));
#1924=CARTESIAN_POINT('Origin',(382.620005699694,-205.299995075911,0.));
#1925=CARTESIAN_POINT('',(382.620005699694,-205.299995075911,0.));
#1926=CARTESIAN_POINT('',(382.620005699694,-205.299995075911,0.));
#1927=CARTESIAN_POINT('',(382.620005699694,-205.299995075911,0.));
#1928=CARTESIAN_POINT('Origin',(367.620005699694,-205.299995075911,0.));
#1929=CARTESIAN_POINT('',(367.620005699694,-220.299995075911,0.));
#1930=CARTESIAN_POINT('Origin',(367.620005699694,-205.299995075911,0.));
#1931=CARTESIAN_POINT('',(367.620005699694,-220.299995075911,0.));
#1932=CARTESIAN_POINT('Origin',(53.9999991282821,-220.299995075911,0.));
#1933=CARTESIAN_POINT('',(53.9999991282821,-220.299995075911,0.));
#1934=CARTESIAN_POINT('',(53.9999991282821,-220.299995075911,0.));
#1935=CARTESIAN_POINT('',(53.9999991282821,-220.299995075911,0.));
#1936=CARTESIAN_POINT('Origin',(53.9999991282821,-205.299995075911,0.));
#1937=CARTESIAN_POINT('Origin',(53.9999991282821,-205.299995075911,0.));
#1938=CARTESIAN_POINT('Origin',(210.810002413988,-133.399997884408,0.));
#1939=CARTESIAN_POINT('Origin',(55.0184222778907,-62.4504611389453,1.));
#1940=CARTESIAN_POINT('',(56.6184222778907,-62.4504611389453,5.));
#1941=CARTESIAN_POINT('Origin',(55.0184222778907,-62.4504611389453,5.));
#1942=CARTESIAN_POINT('',(56.6184222778907,-62.4504611389453,1.));
#1943=CARTESIAN_POINT('',(56.6184222778907,-62.4504611389453,1.));
#1944=CARTESIAN_POINT('Origin',(55.0184222778907,-62.4504611389453,1.));
#1945=CARTESIAN_POINT('Origin',(55.0184222778907,-62.4504611389453,1.));
#1946=CARTESIAN_POINT('',(57.4684222778907,-62.4504611389453,5.));
#1947=CARTESIAN_POINT('Origin',(55.0184222778907,-62.4504611389453,5.));
#1948=CARTESIAN_POINT('',(57.4684222778907,-62.4504611389453,1.));
#1949=CARTESIAN_POINT('',(57.4684222778907,-62.4504611389453,1.));
#1950=CARTESIAN_POINT('Origin',(55.0184222778907,-62.4504611389453,1.));
#1951=CARTESIAN_POINT('Origin',(55.0184222778907,-62.4504611389453,5.));
#1952=CARTESIAN_POINT('Origin',(55.0184222778907,-62.4504611389453,1.));
#1953=CARTESIAN_POINT('Origin',(368.01842227789,-62.4504611389453,1.));
#1954=CARTESIAN_POINT('',(369.61842227789,-62.4504611389453,5.));
#1955=CARTESIAN_POINT('Origin',(368.01842227789,-62.4504611389453,5.));
#1956=CARTESIAN_POINT('',(369.61842227789,-62.4504611389453,1.));
#1957=CARTESIAN_POINT('',(369.61842227789,-62.4504611389453,1.));
#1958=CARTESIAN_POINT('Origin',(368.01842227789,-62.4504611389453,1.));
#1959=CARTESIAN_POINT('Origin',(368.01842227789,-62.4504611389453,1.));
#1960=CARTESIAN_POINT('',(370.46842227789,-62.4504611389453,5.));
#1961=CARTESIAN_POINT('Origin',(368.01842227789,-62.4504611389453,5.));
#1962=CARTESIAN_POINT('',(370.46842227789,-62.4504611389453,1.));
#1963=CARTESIAN_POINT('',(370.46842227789,-62.4504611389453,1.));
#1964=CARTESIAN_POINT('Origin',(368.01842227789,-62.4504611389453,1.));
#1965=CARTESIAN_POINT('Origin',(368.01842227789,-62.4504611389453,5.));
#1966=CARTESIAN_POINT('Origin',(368.01842227789,-62.4504611389453,1.));
#1967=CARTESIAN_POINT('Origin',(55.0184222778907,-202.450461138945,1.));
#1968=CARTESIAN_POINT('',(56.6184222778907,-202.450461138945,5.));
#1969=CARTESIAN_POINT('Origin',(55.0184222778907,-202.450461138945,5.));
#1970=CARTESIAN_POINT('',(56.6184222778907,-202.450461138945,1.));
#1971=CARTESIAN_POINT('',(56.6184222778907,-202.450461138945,1.));
#1972=CARTESIAN_POINT('Origin',(55.0184222778907,-202.450461138945,1.));
#1973=CARTESIAN_POINT('Origin',(55.0184222778907,-202.450461138945,1.));
#1974=CARTESIAN_POINT('',(57.4684222778907,-202.450461138945,5.));
#1975=CARTESIAN_POINT('Origin',(55.0184222778907,-202.450461138945,5.));
#1976=CARTESIAN_POINT('',(57.4684222778907,-202.450461138945,1.));
#1977=CARTESIAN_POINT('',(57.4684222778907,-202.450461138945,1.));
#1978=CARTESIAN_POINT('Origin',(55.0184222778907,-202.450461138945,1.));
#1979=CARTESIAN_POINT('Origin',(55.0184222778907,-202.450461138945,5.));
#1980=CARTESIAN_POINT('Origin',(55.0184222778907,-202.450461138945,1.));
#1981=CARTESIAN_POINT('Origin',(368.01842227789,-202.450461138945,1.));
#1982=CARTESIAN_POINT('',(369.61842227789,-202.450461138945,5.));
#1983=CARTESIAN_POINT('Origin',(368.01842227789,-202.450461138945,5.));
#1984=CARTESIAN_POINT('',(369.61842227789,-202.450461138945,1.));
#1985=CARTESIAN_POINT('',(369.61842227789,-202.450461138945,1.));
#1986=CARTESIAN_POINT('Origin',(368.01842227789,-202.450461138945,1.));
#1987=CARTESIAN_POINT('Origin',(368.01842227789,-202.450461138945,1.));
#1988=CARTESIAN_POINT('',(370.46842227789,-202.450461138945,5.));
#1989=CARTESIAN_POINT('Origin',(368.01842227789,-202.450461138945,5.));
#1990=CARTESIAN_POINT('',(370.46842227789,-202.450461138945,1.));
#1991=CARTESIAN_POINT('',(370.46842227789,-202.450461138945,1.));
#1992=CARTESIAN_POINT('Origin',(368.01842227789,-202.450461138945,1.));
#1993=CARTESIAN_POINT('Origin',(368.01842227789,-202.450461138945,5.));
#1994=CARTESIAN_POINT('Origin',(368.01842227789,-202.450461138945,1.));
#1995=CARTESIAN_POINT('Origin',(368.01842227789,-62.4504611389453,1.));
#1996=CARTESIAN_POINT('',(369.60588427789,-62.4504611389453,2.));
#1997=CARTESIAN_POINT('Origin',(368.01842227789,-62.4504611389453,2.));
#1998=CARTESIAN_POINT('',(369.60588427789,-62.4504611389453,1.));
#1999=CARTESIAN_POINT('',(369.60588427789,-62.4504611389453,1.));
#2000=CARTESIAN_POINT('Origin',(368.01842227789,-62.4504611389453,1.));
#2001=CARTESIAN_POINT('Origin',(368.01842227789,-62.4504611389453,2.));
#2002=CARTESIAN_POINT('Origin',(368.01842227789,-62.4504611389453,1.));
#2003=CARTESIAN_POINT('Origin',(55.0184222778907,-62.4504611389453,1.));
#2004=CARTESIAN_POINT('',(56.6058842778907,-62.4504611389453,2.));
#2005=CARTESIAN_POINT('Origin',(55.0184222778907,-62.4504611389453,2.));
#2006=CARTESIAN_POINT('',(56.6058842778907,-62.4504611389453,1.));
#2007=CARTESIAN_POINT('',(56.6058842778907,-62.4504611389453,1.));
#2008=CARTESIAN_POINT('Origin',(55.0184222778907,-62.4504611389453,1.));
#2009=CARTESIAN_POINT('Origin',(55.0184222778907,-62.4504611389453,2.));
#2010=CARTESIAN_POINT('Origin',(55.0184222778907,-62.4504611389453,1.));
#2011=CARTESIAN_POINT('Origin',(368.01842227789,-202.450461138945,1.));
#2012=CARTESIAN_POINT('',(369.60588427789,-202.450461138945,2.));
#2013=CARTESIAN_POINT('Origin',(368.01842227789,-202.450461138945,2.));
#2014=CARTESIAN_POINT('',(369.60588427789,-202.450461138945,1.));
#2015=CARTESIAN_POINT('',(369.60588427789,-202.450461138945,1.));
#2016=CARTESIAN_POINT('Origin',(368.01842227789,-202.450461138945,1.));
#2017=CARTESIAN_POINT('Origin',(368.01842227789,-202.450461138945,2.));
#2018=CARTESIAN_POINT('Origin',(368.01842227789,-202.450461138945,1.));
#2019=CARTESIAN_POINT('Origin',(55.0184222778907,-202.450461138945,1.));
#2020=CARTESIAN_POINT('',(56.6058842778907,-202.450461138945,2.));
#2021=CARTESIAN_POINT('Origin',(55.0184222778907,-202.450461138945,2.));
#2022=CARTESIAN_POINT('',(56.6058842778907,-202.450461138945,1.));
#2023=CARTESIAN_POINT('',(56.6058842778907,-202.450461138945,1.));
#2024=CARTESIAN_POINT('Origin',(55.0184222778907,-202.450461138945,1.));
#2025=CARTESIAN_POINT('Origin',(55.0184222778907,-202.450461138945,2.));
#2026=CARTESIAN_POINT('Origin',(55.0184222778907,-202.450461138945,1.));
#2027=CARTESIAN_POINT('Origin',(55.0184222778907,-62.4504611389453,1.));
#2028=CARTESIAN_POINT('',(57.4684222778907,-62.4504611389453,8.));
#2029=CARTESIAN_POINT('Origin',(55.0184222778907,-62.4504611389453,8.));
#2030=CARTESIAN_POINT('',(57.4684222778907,-62.4504611389453,1.));
#2031=CARTESIAN_POINT('',(57.4684222778907,-62.4504611389453,1.));
#2032=CARTESIAN_POINT('Origin',(55.0184222778907,-62.4504611389453,1.));
#2033=CARTESIAN_POINT('Origin',(368.01842227789,-62.4504611389453,1.));
#2034=CARTESIAN_POINT('',(370.46842227789,-62.4504611389453,8.));
#2035=CARTESIAN_POINT('Origin',(368.01842227789,-62.4504611389453,8.));
#2036=CARTESIAN_POINT('',(370.46842227789,-62.4504611389453,1.));
#2037=CARTESIAN_POINT('',(370.46842227789,-62.4504611389453,1.));
#2038=CARTESIAN_POINT('Origin',(368.01842227789,-62.4504611389453,1.));
#2039=CARTESIAN_POINT('Origin',(365.094714051561,-65.5000008940697,1.));
#2040=CARTESIAN_POINT('',(365.094714051561,-65.5000008940697,1.));
#2041=CARTESIAN_POINT('',(365.094714051561,-65.841381845596,1.));
#2042=CARTESIAN_POINT('',(365.094714051561,-65.5000008940697,1.));
#2043=CARTESIAN_POINT('',(365.094714051561,-65.841381845596,8.));
#2044=CARTESIAN_POINT('',(365.094714051561,-65.841381845596,1.));
#2045=CARTESIAN_POINT('',(365.094714051561,-65.5000008940697,8.));
#2046=CARTESIAN_POINT('',(365.094714051561,-65.5000008940697,8.));
#2047=CARTESIAN_POINT('',(365.094714051561,-65.5000008940697,1.));
#2048=CARTESIAN_POINT('Origin',(359.594714051561,-65.5000008940696,1.));
#2049=CARTESIAN_POINT('',(359.594714051561,-60.0000008940697,1.));
#2050=CARTESIAN_POINT('Origin',(359.594714051561,-65.5000008940696,1.));
#2051=CARTESIAN_POINT('',(359.594714051561,-60.0000008940697,8.));
#2052=CARTESIAN_POINT('Origin',(359.594714051561,-65.5000008940696,8.));
#2053=CARTESIAN_POINT('',(359.594714051561,-60.0000008940697,1.));
#2054=CARTESIAN_POINT('Origin',(63.5000008642673,-60.0000008940697,1.));
#2055=CARTESIAN_POINT('',(63.5000008642673,-60.0000008940697,1.));
#2056=CARTESIAN_POINT('',(63.5000008642673,-60.0000008940697,1.));
#2057=CARTESIAN_POINT('',(63.5000008642674,-60.0000008940697,8.));
#2058=CARTESIAN_POINT('',(63.5000008642673,-60.0000008940697,8.));
#2059=CARTESIAN_POINT('',(63.5000008642673,-60.0000008940697,1.));
#2060=CARTESIAN_POINT('Origin',(63.5000008642673,-65.5000008940697,1.));
#2061=CARTESIAN_POINT('',(58.0000008642673,-65.5000008940697,1.));
#2062=CARTESIAN_POINT('Origin',(63.5000008642673,-65.5000008940697,1.));
#2063=CARTESIAN_POINT('',(58.0000008642673,-65.5000008940697,8.));
#2064=CARTESIAN_POINT('Origin',(63.5000008642673,-65.5000008940697,8.));
#2065=CARTESIAN_POINT('',(58.0000008642673,-65.5000008940697,1.));
#2066=CARTESIAN_POINT('Origin',(58.0000008642673,-65.841381845596,1.));
#2067=CARTESIAN_POINT('',(58.0000008642673,-65.841381845596,1.));
#2068=CARTESIAN_POINT('',(58.0000008642673,-65.841381845596,1.));
#2069=CARTESIAN_POINT('',(58.0000008642673,-65.841381845596,8.));
#2070=CARTESIAN_POINT('',(58.0000008642673,-65.841381845596,8.));
#2071=CARTESIAN_POINT('',(58.0000008642673,-65.841381845596,1.));
#2072=CARTESIAN_POINT('Origin',(48.0560649287086,-65.841381845596,1.));
#2073=CARTESIAN_POINT('',(48.0560649287086,-65.841381845596,1.));
#2074=CARTESIAN_POINT('',(48.0560649287086,-65.841381845596,1.));
#2075=CARTESIAN_POINT('',(48.0560649287086,-65.841381845596,8.));
#2076=CARTESIAN_POINT('',(48.0560649287086,-65.841381845596,8.));
#2077=CARTESIAN_POINT('',(48.0560649287086,-65.841381845596,1.));
#2078=CARTESIAN_POINT('Origin',(60.0000007152558,-67.0000008195639,1.));
#2079=CARTESIAN_POINT('',(60.0000007152557,-55.0000008195639,1.));
#2080=CARTESIAN_POINT('Origin',(60.0000007152558,-67.0000008195639,1.));
#2081=CARTESIAN_POINT('',(60.0000007152557,-55.0000008195639,8.));
#2082=CARTESIAN_POINT('Origin',(60.0000007152558,-67.0000008195639,8.));
#2083=CARTESIAN_POINT('',(60.0000007152557,-55.0000008195639,1.));
#2084=CARTESIAN_POINT('Origin',(362.000005573034,-55.0000008195639,1.));
#2085=CARTESIAN_POINT('',(362.000005573034,-55.0000008195639,1.));
#2086=CARTESIAN_POINT('',(362.000005573034,-55.0000008195639,1.));
#2087=CARTESIAN_POINT('',(362.000005573034,-55.0000008195639,8.));
#2088=CARTESIAN_POINT('',(362.000005573034,-55.0000008195639,8.));
#2089=CARTESIAN_POINT('',(362.000005573034,-55.0000008195639,1.));
#2090=CARTESIAN_POINT('Origin',(362.000005573034,-67.000000819564,1.));
#2091=CARTESIAN_POINT('',(373.943941359581,-65.841381845596,1.));
#2092=CARTESIAN_POINT('Origin',(362.000005573034,-67.000000819564,1.));
#2093=CARTESIAN_POINT('',(373.943941359581,-65.841381845596,8.));
#2094=CARTESIAN_POINT('Origin',(362.000005573034,-67.000000819564,8.));
#2095=CARTESIAN_POINT('',(373.943941359581,-65.841381845596,1.));
#2096=CARTESIAN_POINT('Origin',(365.094714051561,-65.841381845596,1.));
#2097=CARTESIAN_POINT('',(48.0560649287086,-65.841381845596,1.));
#2098=CARTESIAN_POINT('',(48.0560649287086,-65.841381845596,8.));
#2099=CARTESIAN_POINT('Origin',(211.000003144145,-60.42069133258,8.));
#2100=CARTESIAN_POINT('Origin',(211.000003144145,-60.42069133258,1.));
#2101=CARTESIAN_POINT('Origin',(55.0184222778907,-202.450461138945,1.));
#2102=CARTESIAN_POINT('',(57.4684222778907,-202.450461138945,7.));
#2103=CARTESIAN_POINT('Origin',(55.0184222778907,-202.450461138945,7.));
#2104=CARTESIAN_POINT('',(57.4684222778907,-202.450461138945,1.));
#2105=CARTESIAN_POINT('',(57.4684222778907,-202.450461138945,1.));
#2106=CARTESIAN_POINT('Origin',(55.0184222778907,-202.450461138945,1.));
#2107=CARTESIAN_POINT('Origin',(368.01842227789,-202.450461138945,1.));
#2108=CARTESIAN_POINT('',(370.46842227789,-202.450461138945,7.));
#2109=CARTESIAN_POINT('Origin',(368.01842227789,-202.450461138945,7.));
#2110=CARTESIAN_POINT('',(370.46842227789,-202.450461138945,1.));
#2111=CARTESIAN_POINT('',(370.46842227789,-202.450461138945,1.));
#2112=CARTESIAN_POINT('Origin',(368.01842227789,-202.450461138945,1.));
#2113=CARTESIAN_POINT('Origin',(60.0000007152557,-210.000003129244,1.));
#2114=CARTESIAN_POINT('',(362.000005573034,-210.000003129244,1.));
#2115=CARTESIAN_POINT('',(60.0000007152557,-210.000003129244,1.));
#2116=CARTESIAN_POINT('',(362.000005573034,-210.000003129244,1.));
#2117=CARTESIAN_POINT('',(362.000005573034,-210.000003129244,7.));
#2118=CARTESIAN_POINT('',(362.000005573034,-210.000003129244,1.));
#2119=CARTESIAN_POINT('',(60.0000007152557,-210.000003129244,7.));
#2120=CARTESIAN_POINT('',(362.000005573034,-210.000003129244,7.));
#2121=CARTESIAN_POINT('',(60.0000007152557,-210.000003129244,1.));
#2122=CARTESIAN_POINT('Origin',(60.0000007152558,-198.000003129244,1.));
#2123=CARTESIAN_POINT('',(48.0417399584473,-199.000002965331,1.));
#2124=CARTESIAN_POINT('Origin',(60.0000007152558,-198.000003129244,1.));
#2125=CARTESIAN_POINT('',(48.0417399584473,-199.000002965331,7.));
#2126=CARTESIAN_POINT('Origin',(60.0000007152558,-198.000003129244,7.));
#2127=CARTESIAN_POINT('',(48.0417399584473,-199.000002965331,1.));
#2128=CARTESIAN_POINT('Origin',(58.0000008642674,-199.000002965331,1.));
#2129=CARTESIAN_POINT('',(58.0000008642674,-199.000003069639,1.));
#2130=CARTESIAN_POINT('',(48.0000007152557,-199.000002965331,1.));
#2131=CARTESIAN_POINT('',(58.0000008642674,-199.000003069639,7.));
#2132=CARTESIAN_POINT('',(48.0000007152557,-199.000002965331,7.));
#2133=CARTESIAN_POINT('',(58.0000008642674,-199.000003069639,1.));
#2134=CARTESIAN_POINT('Origin',(65.0000008642673,-199.000003069639,1.));
#2135=CARTESIAN_POINT('',(65.0000008642673,-206.000003069639,1.));
#2136=CARTESIAN_POINT('Origin',(65.0000008642673,-199.000003069639,1.));
#2137=CARTESIAN_POINT('',(65.0000008642673,-206.000003069639,7.));
#2138=CARTESIAN_POINT('Origin',(65.0000008642673,-199.000003069639,7.));
#2139=CARTESIAN_POINT('',(65.0000008642673,-206.000003069639,1.));
#2140=CARTESIAN_POINT('Origin',(358.000005438924,-206.000003069639,1.));
#2141=CARTESIAN_POINT('',(358.000005438924,-206.000003069639,1.));
#2142=CARTESIAN_POINT('',(65.0000008642673,-206.000003069639,1.));
#2143=CARTESIAN_POINT('',(358.000005438924,-206.000003069639,7.));
#2144=CARTESIAN_POINT('',(65.0000008642673,-206.000003069639,7.));
#2145=CARTESIAN_POINT('',(358.000005438924,-206.000003069639,1.));
#2146=CARTESIAN_POINT('Origin',(358.000005438924,-199.000003069639,1.));
#2147=CARTESIAN_POINT('',(365.000005438924,-199.000003069639,1.));
#2148=CARTESIAN_POINT('Origin',(358.000005438924,-199.000003069639,1.));
#2149=CARTESIAN_POINT('',(365.000005438924,-199.000003069639,7.));
#2150=CARTESIAN_POINT('Origin',(358.000005438924,-199.000003069639,7.));
#2151=CARTESIAN_POINT('',(365.000005438924,-199.000003069639,1.));
#2152=CARTESIAN_POINT('Origin',(373.958266329843,-199.000002965331,1.));
#2153=CARTESIAN_POINT('',(373.958266329843,-199.000002965331,1.));
#2154=CARTESIAN_POINT('',(48.0000007152557,-199.000002965331,1.));
#2155=CARTESIAN_POINT('',(373.958266329843,-199.000002965331,7.));
#2156=CARTESIAN_POINT('',(48.0000007152557,-199.000002965331,7.));
#2157=CARTESIAN_POINT('',(373.958266329843,-199.000002965331,1.));
#2158=CARTESIAN_POINT('Origin',(362.000005573034,-198.000003129244,1.));
#2159=CARTESIAN_POINT('Origin',(362.000005573034,-198.000003129244,1.));
#2160=CARTESIAN_POINT('Origin',(362.000005573034,-198.000003129244,7.));
#2161=CARTESIAN_POINT('Origin',(211.000003144145,-204.500003047287,7.));
#2162=CARTESIAN_POINT('Origin',(211.000003144145,-204.500003047287,1.));
#2163=CARTESIAN_POINT('',(0.,0.,0.));
#2164=UNCERTAINTY_MEASURE_WITH_UNIT(LENGTH_MEASURE(0.01),#2170,
'DISTANCE_ACCURACY_VALUE',
'Maximum model space distance between geometric entities at asserted c
onnectivities');
#2165=UNCERTAINTY_MEASURE_WITH_UNIT(LENGTH_MEASURE(0.01),#2170,
'DISTANCE_ACCURACY_VALUE',
'Maximum model space distance between geometric entities at asserted c
onnectivities');
#2166=UNCERTAINTY_MEASURE_WITH_UNIT(LENGTH_MEASURE(0.01),#2170,
'DISTANCE_ACCURACY_VALUE',
'Maximum model space distance between geometric entities at asserted c
onnectivities');
#2167=(
GEOMETRIC_REPRESENTATION_CONTEXT(3)
GLOBAL_UNCERTAINTY_ASSIGNED_CONTEXT((#2164))
GLOBAL_UNIT_ASSIGNED_CONTEXT((#2170,#2172,#2173))
REPRESENTATION_CONTEXT('','3D')
);
#2168=(
GEOMETRIC_REPRESENTATION_CONTEXT(3)
GLOBAL_UNCERTAINTY_ASSIGNED_CONTEXT((#2165))
GLOBAL_UNIT_ASSIGNED_CONTEXT((#2170,#2172,#2173))
REPRESENTATION_CONTEXT('','3D')
);
#2169=(
GEOMETRIC_REPRESENTATION_CONTEXT(3)
GLOBAL_UNCERTAINTY_ASSIGNED_CONTEXT((#2166))
GLOBAL_UNIT_ASSIGNED_CONTEXT((#2170,#2172,#2173))
REPRESENTATION_CONTEXT('','3D')
);
#2170=(
LENGTH_UNIT()
NAMED_UNIT(*)
SI_UNIT(.MILLI.,.METRE.)
);
#2171=(
LENGTH_UNIT()
NAMED_UNIT(*)
SI_UNIT($,.METRE.)
);
#2172=(
NAMED_UNIT(*)
PLANE_ANGLE_UNIT()
SI_UNIT($,.RADIAN.)
);
#2173=(
NAMED_UNIT(*)
SI_UNIT($,.STERADIAN.)
SOLID_ANGLE_UNIT()
);
#2174=SHAPE_DEFINITION_REPRESENTATION(#2176,#2179);
#2175=SHAPE_DEFINITION_REPRESENTATION(#2177,#2180);
#2176=PRODUCT_DEFINITION_SHAPE('',$,#2182);
#2177=PRODUCT_DEFINITION_SHAPE('',$,#2183);
#2178=PRODUCT_DEFINITION_SHAPE($,$,#14);
#2179=SHAPE_REPRESENTATION('',(#1268,#1419),#2167);
#2180=SHAPE_REPRESENTATION('',(#1269),#2168);
#2181=PRODUCT_DEFINITION_CONTEXT('part definition',#2189,'design');
#2182=PRODUCT_DEFINITION('2026-06-17-03-43-50-280','(Unsaved)',#2184,#2181);
#2183=PRODUCT_DEFINITION('2026-06-16-20-07-49-646','Cover',#2185,#2181);
#2184=PRODUCT_DEFINITION_FORMATION('',$,#2191);
#2185=PRODUCT_DEFINITION_FORMATION('',$,#2192);
#2186=PRODUCT_RELATED_PRODUCT_CATEGORY('(Unsaved)','(Unsaved)',(#2191));
#2187=PRODUCT_RELATED_PRODUCT_CATEGORY('Cover','Cover',(#2192));
#2188=APPLICATION_PROTOCOL_DEFINITION('international standard',
'automotive_design',2009,#2189);
#2189=APPLICATION_CONTEXT(
'Core Data for Automotive Mechanical Design Process');
#2190=PRODUCT_CONTEXT('part definition',#2189,'mechanical');
#2191=PRODUCT('2026-06-17-03-43-50-280','(Unsaved)',$,(#2190));
#2192=PRODUCT('2026-06-16-20-07-49-646','Cover',$,(#2190));
#2193=PRESENTATION_STYLE_ASSIGNMENT((#2194));
#2194=SURFACE_STYLE_USAGE(.BOTH.,#2195);
#2195=SURFACE_SIDE_STYLE('',(#2196));
#2196=SURFACE_STYLE_FILL_AREA(#2197);
#2197=FILL_AREA_STYLE('Steel - Satin',(#2198));
#2198=FILL_AREA_STYLE_COLOUR('Steel - Satin',#2199);
#2199=COLOUR_RGB('Steel - Satin',0.627450980392157,0.627450980392157,0.627450980392157);
ENDSEC;
END-ISO-10303-21;
