ISO-10303-21;
HEADER;
/* Generated by software containing ST-Developer
 * from STEP Tools, Inc. (www.steptools.com) 
 */

FILE_DESCRIPTION(
/* description */ (''),
/* implementation_level */ '2;1');

FILE_NAME(
/* name */ 'Coverv2.step',
/* time_stamp */ '2026-06-17T04:50:06+03:00',
/* author */ (''),
/* organization */ (''),
/* preprocessor_version */ 'ST-DEVELOPER v20.1',
/* originating_system */ 'Autodesk Translation Framework v15.8.0.0',
/* authorisation */ '');

FILE_SCHEMA (('AUTOMOTIVE_DESIGN { 1 0 10303 214 3 1 1 }'));
ENDSEC;

DATA;
#10=MECHANICAL_DESIGN_GEOMETRIC_PRESENTATION_REPRESENTATION('',(#19,#20,
#21,#22,#23),#1173);
#11=ITEM_DEFINED_TRANSFORMATION($,$,#681,#765);
#12=(
REPRESENTATION_RELATIONSHIP($,$,#1184,#1183)
REPRESENTATION_RELATIONSHIP_WITH_TRANSFORMATION(#11)
SHAPE_REPRESENTATION_RELATIONSHIP()
);
#13=CONTEXT_DEPENDENT_SHAPE_REPRESENTATION(#12,#1182);
#14=NEXT_ASSEMBLY_USAGE_OCCURRENCE('Cover:1','Cover:1','Cover:1',#1186,
#1187,'Cover:1');
#15=SHAPE_REPRESENTATION_RELATIONSHIP('SRR','None',#1184,#17);
#16=SHAPE_REPRESENTATION_RELATIONSHIP('SRR','None',#1183,#18);
#17=ADVANCED_BREP_SHAPE_REPRESENTATION('',(#24),#1172);
#18=ADVANCED_BREP_SHAPE_REPRESENTATION('',(#25,#26,#27,#28),#1171);
#19=STYLED_ITEM('',(#1197),#24);
#20=STYLED_ITEM('',(#1197),#25);
#21=STYLED_ITEM('',(#1197),#26);
#22=STYLED_ITEM('',(#1197),#27);
#23=STYLED_ITEM('',(#1197),#28);
#24=MANIFOLD_SOLID_BREP('Body1',#663);
#25=MANIFOLD_SOLID_BREP('Body1',#664);
#26=MANIFOLD_SOLID_BREP('Body2',#665);
#27=MANIFOLD_SOLID_BREP('Body3',#666);
#28=MANIFOLD_SOLID_BREP('Body4',#667);
#29=FACE_BOUND('',#118,.T.);
#30=FACE_BOUND('',#119,.T.);
#31=FACE_BOUND('',#120,.T.);
#32=FACE_BOUND('',#121,.T.);
#33=FACE_BOUND('',#122,.T.);
#34=FACE_BOUND('',#136,.T.);
#35=FACE_BOUND('',#137,.T.);
#36=FACE_BOUND('',#138,.T.);
#37=FACE_BOUND('',#139,.T.);
#38=FACE_BOUND('',#144,.T.);
#39=FACE_BOUND('',#150,.T.);
#40=FACE_BOUND('',#156,.T.);
#41=FACE_BOUND('',#162,.T.);
#42=PLANE('',#694);
#43=PLANE('',#701);
#44=PLANE('',#704);
#45=PLANE('',#705);
#46=PLANE('',#712);
#47=PLANE('',#714);
#48=PLANE('',#716);
#49=PLANE('',#719);
#50=PLANE('',#722);
#51=PLANE('',#725);
#52=PLANE('',#728);
#53=PLANE('',#729);
#54=PLANE('',#736);
#55=PLANE('',#737);
#56=PLANE('',#738);
#57=PLANE('',#745);
#58=PLANE('',#746);
#59=PLANE('',#747);
#60=PLANE('',#754);
#61=PLANE('',#755);
#62=PLANE('',#756);
#63=PLANE('',#763);
#64=PLANE('',#764);
#65=FACE_OUTER_BOUND('',#108,.T.);
#66=FACE_OUTER_BOUND('',#109,.T.);
#67=FACE_OUTER_BOUND('',#110,.T.);
#68=FACE_OUTER_BOUND('',#111,.T.);
#69=FACE_OUTER_BOUND('',#112,.T.);
#70=FACE_OUTER_BOUND('',#113,.T.);
#71=FACE_OUTER_BOUND('',#114,.T.);
#72=FACE_OUTER_BOUND('',#115,.T.);
#73=FACE_OUTER_BOUND('',#116,.T.);
#74=FACE_OUTER_BOUND('',#117,.T.);
#75=FACE_OUTER_BOUND('',#123,.T.);
#76=FACE_OUTER_BOUND('',#124,.T.);
#77=FACE_OUTER_BOUND('',#125,.T.);
#78=FACE_OUTER_BOUND('',#126,.T.);
#79=FACE_OUTER_BOUND('',#127,.T.);
#80=FACE_OUTER_BOUND('',#128,.T.);
#81=FACE_OUTER_BOUND('',#129,.T.);
#82=FACE_OUTER_BOUND('',#130,.T.);
#83=FACE_OUTER_BOUND('',#131,.T.);
#84=FACE_OUTER_BOUND('',#132,.T.);
#85=FACE_OUTER_BOUND('',#133,.T.);
#86=FACE_OUTER_BOUND('',#134,.T.);
#87=FACE_OUTER_BOUND('',#135,.T.);
#88=FACE_OUTER_BOUND('',#140,.T.);
#89=FACE_OUTER_BOUND('',#141,.T.);
#90=FACE_OUTER_BOUND('',#142,.T.);
#91=FACE_OUTER_BOUND('',#143,.T.);
#92=FACE_OUTER_BOUND('',#145,.T.);
#93=FACE_OUTER_BOUND('',#146,.T.);
#94=FACE_OUTER_BOUND('',#147,.T.);
#95=FACE_OUTER_BOUND('',#148,.T.);
#96=FACE_OUTER_BOUND('',#149,.T.);
#97=FACE_OUTER_BOUND('',#151,.T.);
#98=FACE_OUTER_BOUND('',#152,.T.);
#99=FACE_OUTER_BOUND('',#153,.T.);
#100=FACE_OUTER_BOUND('',#154,.T.);
#101=FACE_OUTER_BOUND('',#155,.T.);
#102=FACE_OUTER_BOUND('',#157,.T.);
#103=FACE_OUTER_BOUND('',#158,.T.);
#104=FACE_OUTER_BOUND('',#159,.T.);
#105=FACE_OUTER_BOUND('',#160,.T.);
#106=FACE_OUTER_BOUND('',#161,.T.);
#107=FACE_OUTER_BOUND('',#163,.T.);
#108=EDGE_LOOP('',(#432,#433,#434,#435));
#109=EDGE_LOOP('',(#436,#437,#438,#439));
#110=EDGE_LOOP('',(#440,#441,#442,#443));
#111=EDGE_LOOP('',(#444,#445,#446,#447));
#112=EDGE_LOOP('',(#448,#449,#450,#451,#452,#453,#454,#455));
#113=EDGE_LOOP('',(#456,#457,#458,#459));
#114=EDGE_LOOP('',(#460,#461,#462,#463));
#115=EDGE_LOOP('',(#464,#465,#466,#467));
#116=EDGE_LOOP('',(#468,#469,#470,#471));
#117=EDGE_LOOP('',(#472,#473,#474,#475,#476,#477,#478,#479));
#118=EDGE_LOOP('',(#480,#481,#482,#483,#484,#485,#486,#487));
#119=EDGE_LOOP('',(#488));
#120=EDGE_LOOP('',(#489));
#121=EDGE_LOOP('',(#490));
#122=EDGE_LOOP('',(#491));
#123=EDGE_LOOP('',(#492,#493,#494,#495));
#124=EDGE_LOOP('',(#496,#497,#498,#499));
#125=EDGE_LOOP('',(#500,#501,#502,#503));
#126=EDGE_LOOP('',(#504,#505,#506,#507));
#127=EDGE_LOOP('',(#508,#509,#510,#511));
#128=EDGE_LOOP('',(#512,#513,#514,#515));
#129=EDGE_LOOP('',(#516,#517,#518,#519));
#130=EDGE_LOOP('',(#520,#521,#522,#523));
#131=EDGE_LOOP('',(#524,#525,#526,#527));
#132=EDGE_LOOP('',(#528,#529,#530,#531));
#133=EDGE_LOOP('',(#532,#533,#534,#535));
#134=EDGE_LOOP('',(#536,#537,#538,#539));
#135=EDGE_LOOP('',(#540,#541,#542,#543,#544,#545,#546,#547));
#136=EDGE_LOOP('',(#548));
#137=EDGE_LOOP('',(#549));
#138=EDGE_LOOP('',(#550));
#139=EDGE_LOOP('',(#551));
#140=EDGE_LOOP('',(#552));
#141=EDGE_LOOP('',(#553,#554,#555,#556));
#142=EDGE_LOOP('',(#557,#558,#559,#560));
#143=EDGE_LOOP('',(#561));
#144=EDGE_LOOP('',(#562));
#145=EDGE_LOOP('',(#563));
#146=EDGE_LOOP('',(#564));
#147=EDGE_LOOP('',(#565,#566,#567,#568));
#148=EDGE_LOOP('',(#569,#570,#571,#572));
#149=EDGE_LOOP('',(#573));
#150=EDGE_LOOP('',(#574));
#151=EDGE_LOOP('',(#575));
#152=EDGE_LOOP('',(#576));
#153=EDGE_LOOP('',(#577,#578,#579,#580));
#154=EDGE_LOOP('',(#581,#582,#583,#584));
#155=EDGE_LOOP('',(#585));
#156=EDGE_LOOP('',(#586));
#157=EDGE_LOOP('',(#587));
#158=EDGE_LOOP('',(#588));
#159=EDGE_LOOP('',(#589,#590,#591,#592));
#160=EDGE_LOOP('',(#593,#594,#595,#596));
#161=EDGE_LOOP('',(#597));
#162=EDGE_LOOP('',(#598));
#163=EDGE_LOOP('',(#599));
#164=LINE('',#988,#208);
#165=LINE('',#994,#209);
#166=LINE('',#1000,#210);
#167=LINE('',#1006,#211);
#168=LINE('',#1013,#212);
#169=LINE('',#1017,#213);
#170=LINE('',#1021,#214);
#171=LINE('',#1024,#215);
#172=LINE('',#1027,#216);
#173=LINE('',#1030,#217);
#174=LINE('',#1033,#218);
#175=LINE('',#1034,#219);
#176=LINE('',#1037,#220);
#177=LINE('',#1041,#221);
#178=LINE('',#1042,#222);
#179=LINE('',#1048,#223);
#180=LINE('',#1052,#224);
#181=LINE('',#1056,#225);
#182=LINE('',#1059,#226);
#183=LINE('',#1063,#227);
#184=LINE('',#1066,#228);
#185=LINE('',#1068,#229);
#186=LINE('',#1070,#230);
#187=LINE('',#1072,#231);
#188=LINE('',#1077,#232);
#189=LINE('',#1078,#233);
#190=LINE('',#1079,#234);
#191=LINE('',#1083,#235);
#192=LINE('',#1086,#236);
#193=LINE('',#1087,#237);
#194=LINE('',#1091,#238);
#195=LINE('',#1094,#239);
#196=LINE('',#1095,#240);
#197=LINE('',#1099,#241);
#198=LINE('',#1102,#242);
#199=LINE('',#1103,#243);
#200=LINE('',#1113,#244);
#201=LINE('',#1118,#245);
#202=LINE('',#1128,#246);
#203=LINE('',#1133,#247);
#204=LINE('',#1143,#248);
#205=LINE('',#1148,#249);
#206=LINE('',#1158,#250);
#207=LINE('',#1163,#251);
#208=VECTOR('',#774,1.59999999999997);
#209=VECTOR('',#781,1.6);
#210=VECTOR('',#788,1.59999999999999);
#211=VECTOR('',#795,1.59999999999997);
#212=VECTOR('',#802,10.);
#213=VECTOR('',#805,10.);
#214=VECTOR('',#808,10.);
#215=VECTOR('',#811,10.);
#216=VECTOR('',#814,10.);
#217=VECTOR('',#817,10.);
#218=VECTOR('',#820,10.);
#219=VECTOR('',#821,10.);
#220=VECTOR('',#824,10.);
#221=VECTOR('',#829,10.);
#222=VECTOR('',#830,10.);
#223=VECTOR('',#835,10.);
#224=VECTOR('',#838,10.);
#225=VECTOR('',#841,10.);
#226=VECTOR('',#844,10.);
#227=VECTOR('',#847,10.);
#228=VECTOR('',#850,10.);
#229=VECTOR('',#853,10.);
#230=VECTOR('',#856,10.);
#231=VECTOR('',#859,10.);
#232=VECTOR('',#864,10.);
#233=VECTOR('',#865,10.);
#234=VECTOR('',#866,10.);
#235=VECTOR('',#871,10.);
#236=VECTOR('',#874,10.);
#237=VECTOR('',#875,10.);
#238=VECTOR('',#880,10.);
#239=VECTOR('',#883,10.);
#240=VECTOR('',#884,10.);
#241=VECTOR('',#889,10.);
#242=VECTOR('',#892,10.);
#243=VECTOR('',#893,10.);
#244=VECTOR('',#908,1.6);
#245=VECTOR('',#913,2.45000000000001);
#246=VECTOR('',#928,1.60000000000004);
#247=VECTOR('',#933,2.44999999999997);
#248=VECTOR('',#948,1.60000000000001);
#249=VECTOR('',#953,2.44999999999999);
#250=VECTOR('',#968,1.59999999999997);
#251=VECTOR('',#973,2.44999999999997);
#252=CIRCLE('',#683,1.59999999999997);
#253=CIRCLE('',#684,1.59999999999997);
#254=CIRCLE('',#686,1.6);
#255=CIRCLE('',#687,1.6);
#256=CIRCLE('',#689,1.59999999999999);
#257=CIRCLE('',#690,1.59999999999999);
#258=CIRCLE('',#692,1.59999999999997);
#259=CIRCLE('',#693,1.59999999999997);
#260=CIRCLE('',#695,12.0000000000001);
#261=CIRCLE('',#696,12.0000000000001);
#262=CIRCLE('',#697,12.);
#263=CIRCLE('',#698,11.9999999999999);
#264=CIRCLE('',#700,12.);
#265=CIRCLE('',#703,12.0000000000001);
#266=CIRCLE('',#706,15.);
#267=CIRCLE('',#707,15.);
#268=CIRCLE('',#708,15.);
#269=CIRCLE('',#709,15.);
#270=CIRCLE('',#710,12.0000000000001);
#271=CIRCLE('',#711,11.9999999999999);
#272=CIRCLE('',#718,15.);
#273=CIRCLE('',#721,15.);
#274=CIRCLE('',#724,15.);
#275=CIRCLE('',#727,15.);
#276=CIRCLE('',#730,1.6);
#277=CIRCLE('',#732,1.6);
#278=CIRCLE('',#734,2.45000000000001);
#279=CIRCLE('',#735,2.45000000000001);
#280=CIRCLE('',#739,1.60000000000004);
#281=CIRCLE('',#741,1.60000000000004);
#282=CIRCLE('',#743,2.44999999999997);
#283=CIRCLE('',#744,2.44999999999997);
#284=CIRCLE('',#748,1.60000000000001);
#285=CIRCLE('',#750,1.60000000000001);
#286=CIRCLE('',#752,2.44999999999999);
#287=CIRCLE('',#753,2.44999999999999);
#288=CIRCLE('',#757,1.59999999999997);
#289=CIRCLE('',#759,1.59999999999997);
#290=CIRCLE('',#761,2.44999999999997);
#291=CIRCLE('',#762,2.44999999999997);
#292=VERTEX_POINT('',#985);
#293=VERTEX_POINT('',#987);
#294=VERTEX_POINT('',#991);
#295=VERTEX_POINT('',#993);
#296=VERTEX_POINT('',#997);
#297=VERTEX_POINT('',#999);
#298=VERTEX_POINT('',#1003);
#299=VERTEX_POINT('',#1005);
#300=VERTEX_POINT('',#1009);
#301=VERTEX_POINT('',#1010);
#302=VERTEX_POINT('',#1012);
#303=VERTEX_POINT('',#1014);
#304=VERTEX_POINT('',#1016);
#305=VERTEX_POINT('',#1018);
#306=VERTEX_POINT('',#1020);
#307=VERTEX_POINT('',#1022);
#308=VERTEX_POINT('',#1026);
#309=VERTEX_POINT('',#1028);
#310=VERTEX_POINT('',#1032);
#311=VERTEX_POINT('',#1036);
#312=VERTEX_POINT('',#1040);
#313=VERTEX_POINT('',#1044);
#314=VERTEX_POINT('',#1045);
#315=VERTEX_POINT('',#1047);
#316=VERTEX_POINT('',#1049);
#317=VERTEX_POINT('',#1051);
#318=VERTEX_POINT('',#1053);
#319=VERTEX_POINT('',#1055);
#320=VERTEX_POINT('',#1057);
#321=VERTEX_POINT('',#1060);
#322=VERTEX_POINT('',#1062);
#323=VERTEX_POINT('',#1064);
#324=VERTEX_POINT('',#1075);
#325=VERTEX_POINT('',#1076);
#326=VERTEX_POINT('',#1081);
#327=VERTEX_POINT('',#1085);
#328=VERTEX_POINT('',#1089);
#329=VERTEX_POINT('',#1093);
#330=VERTEX_POINT('',#1097);
#331=VERTEX_POINT('',#1101);
#332=VERTEX_POINT('',#1108);
#333=VERTEX_POINT('',#1111);
#334=VERTEX_POINT('',#1115);
#335=VERTEX_POINT('',#1117);
#336=VERTEX_POINT('',#1123);
#337=VERTEX_POINT('',#1126);
#338=VERTEX_POINT('',#1130);
#339=VERTEX_POINT('',#1132);
#340=VERTEX_POINT('',#1138);
#341=VERTEX_POINT('',#1141);
#342=VERTEX_POINT('',#1145);
#343=VERTEX_POINT('',#1147);
#344=VERTEX_POINT('',#1153);
#345=VERTEX_POINT('',#1156);
#346=VERTEX_POINT('',#1160);
#347=VERTEX_POINT('',#1162);
#348=EDGE_CURVE('',#292,#292,#252,.T.);
#349=EDGE_CURVE('',#292,#293,#164,.T.);
#350=EDGE_CURVE('',#293,#293,#253,.T.);
#351=EDGE_CURVE('',#294,#294,#254,.T.);
#352=EDGE_CURVE('',#294,#295,#165,.T.);
#353=EDGE_CURVE('',#295,#295,#255,.T.);
#354=EDGE_CURVE('',#296,#296,#256,.T.);
#355=EDGE_CURVE('',#296,#297,#166,.T.);
#356=EDGE_CURVE('',#297,#297,#257,.T.);
#357=EDGE_CURVE('',#298,#298,#258,.T.);
#358=EDGE_CURVE('',#298,#299,#167,.T.);
#359=EDGE_CURVE('',#299,#299,#259,.T.);
#360=EDGE_CURVE('',#300,#301,#260,.T.);
#361=EDGE_CURVE('',#302,#300,#168,.T.);
#362=EDGE_CURVE('',#303,#302,#261,.T.);
#363=EDGE_CURVE('',#304,#303,#169,.T.);
#364=EDGE_CURVE('',#305,#304,#262,.T.);
#365=EDGE_CURVE('',#306,#305,#170,.T.);
#366=EDGE_CURVE('',#307,#306,#263,.T.);
#367=EDGE_CURVE('',#301,#307,#171,.T.);
#368=EDGE_CURVE('',#304,#308,#172,.T.);
#369=EDGE_CURVE('',#309,#308,#264,.T.);
#370=EDGE_CURVE('',#305,#309,#173,.T.);
#371=EDGE_CURVE('',#303,#310,#174,.T.);
#372=EDGE_CURVE('',#308,#310,#175,.T.);
#373=EDGE_CURVE('',#302,#311,#176,.T.);
#374=EDGE_CURVE('',#310,#311,#265,.T.);
#375=EDGE_CURVE('',#300,#312,#177,.T.);
#376=EDGE_CURVE('',#311,#312,#178,.T.);
#377=EDGE_CURVE('',#313,#314,#266,.T.);
#378=EDGE_CURVE('',#314,#315,#179,.T.);
#379=EDGE_CURVE('',#315,#316,#267,.T.);
#380=EDGE_CURVE('',#316,#317,#180,.T.);
#381=EDGE_CURVE('',#317,#318,#268,.T.);
#382=EDGE_CURVE('',#318,#319,#181,.T.);
#383=EDGE_CURVE('',#319,#320,#269,.T.);
#384=EDGE_CURVE('',#320,#313,#182,.T.);
#385=EDGE_CURVE('',#312,#321,#270,.T.);
#386=EDGE_CURVE('',#321,#322,#183,.T.);
#387=EDGE_CURVE('',#322,#323,#271,.T.);
#388=EDGE_CURVE('',#323,#309,#184,.T.);
#389=EDGE_CURVE('',#306,#323,#185,.T.);
#390=EDGE_CURVE('',#307,#322,#186,.T.);
#391=EDGE_CURVE('',#301,#321,#187,.T.);
#392=EDGE_CURVE('',#324,#325,#188,.T.);
#393=EDGE_CURVE('',#325,#313,#189,.T.);
#394=EDGE_CURVE('',#324,#320,#190,.T.);
#395=EDGE_CURVE('',#326,#324,#272,.T.);
#396=EDGE_CURVE('',#326,#319,#191,.T.);
#397=EDGE_CURVE('',#327,#326,#192,.T.);
#398=EDGE_CURVE('',#327,#318,#193,.T.);
#399=EDGE_CURVE('',#328,#327,#273,.T.);
#400=EDGE_CURVE('',#328,#317,#194,.T.);
#401=EDGE_CURVE('',#329,#328,#195,.T.);
#402=EDGE_CURVE('',#329,#316,#196,.T.);
#403=EDGE_CURVE('',#330,#329,#274,.T.);
#404=EDGE_CURVE('',#330,#315,#197,.T.);
#405=EDGE_CURVE('',#331,#330,#198,.T.);
#406=EDGE_CURVE('',#331,#314,#199,.T.);
#407=EDGE_CURVE('',#325,#331,#275,.T.);
#408=EDGE_CURVE('',#332,#332,#276,.T.);
#409=EDGE_CURVE('',#333,#333,#277,.T.);
#410=EDGE_CURVE('',#333,#332,#200,.T.);
#411=EDGE_CURVE('',#334,#334,#278,.T.);
#412=EDGE_CURVE('',#334,#335,#201,.T.);
#413=EDGE_CURVE('',#335,#335,#279,.T.);
#414=EDGE_CURVE('',#336,#336,#280,.T.);
#415=EDGE_CURVE('',#337,#337,#281,.T.);
#416=EDGE_CURVE('',#337,#336,#202,.T.);
#417=EDGE_CURVE('',#338,#338,#282,.T.);
#418=EDGE_CURVE('',#338,#339,#203,.T.);
#419=EDGE_CURVE('',#339,#339,#283,.T.);
#420=EDGE_CURVE('',#340,#340,#284,.T.);
#421=EDGE_CURVE('',#341,#341,#285,.T.);
#422=EDGE_CURVE('',#341,#340,#204,.T.);
#423=EDGE_CURVE('',#342,#342,#286,.T.);
#424=EDGE_CURVE('',#342,#343,#205,.T.);
#425=EDGE_CURVE('',#343,#343,#287,.T.);
#426=EDGE_CURVE('',#344,#344,#288,.T.);
#427=EDGE_CURVE('',#345,#345,#289,.T.);
#428=EDGE_CURVE('',#345,#344,#206,.T.);
#429=EDGE_CURVE('',#346,#346,#290,.T.);
#430=EDGE_CURVE('',#346,#347,#207,.T.);
#431=EDGE_CURVE('',#347,#347,#291,.T.);
#432=ORIENTED_EDGE('',*,*,#348,.F.);
#433=ORIENTED_EDGE('',*,*,#349,.T.);
#434=ORIENTED_EDGE('',*,*,#350,.F.);
#435=ORIENTED_EDGE('',*,*,#349,.F.);
#436=ORIENTED_EDGE('',*,*,#351,.F.);
#437=ORIENTED_EDGE('',*,*,#352,.T.);
#438=ORIENTED_EDGE('',*,*,#353,.F.);
#439=ORIENTED_EDGE('',*,*,#352,.F.);
#440=ORIENTED_EDGE('',*,*,#354,.F.);
#441=ORIENTED_EDGE('',*,*,#355,.T.);
#442=ORIENTED_EDGE('',*,*,#356,.F.);
#443=ORIENTED_EDGE('',*,*,#355,.F.);
#444=ORIENTED_EDGE('',*,*,#357,.F.);
#445=ORIENTED_EDGE('',*,*,#358,.T.);
#446=ORIENTED_EDGE('',*,*,#359,.F.);
#447=ORIENTED_EDGE('',*,*,#358,.F.);
#448=ORIENTED_EDGE('',*,*,#360,.F.);
#449=ORIENTED_EDGE('',*,*,#361,.F.);
#450=ORIENTED_EDGE('',*,*,#362,.F.);
#451=ORIENTED_EDGE('',*,*,#363,.F.);
#452=ORIENTED_EDGE('',*,*,#364,.F.);
#453=ORIENTED_EDGE('',*,*,#365,.F.);
#454=ORIENTED_EDGE('',*,*,#366,.F.);
#455=ORIENTED_EDGE('',*,*,#367,.F.);
#456=ORIENTED_EDGE('',*,*,#364,.T.);
#457=ORIENTED_EDGE('',*,*,#368,.T.);
#458=ORIENTED_EDGE('',*,*,#369,.F.);
#459=ORIENTED_EDGE('',*,*,#370,.F.);
#460=ORIENTED_EDGE('',*,*,#363,.T.);
#461=ORIENTED_EDGE('',*,*,#371,.T.);
#462=ORIENTED_EDGE('',*,*,#372,.F.);
#463=ORIENTED_EDGE('',*,*,#368,.F.);
#464=ORIENTED_EDGE('',*,*,#362,.T.);
#465=ORIENTED_EDGE('',*,*,#373,.T.);
#466=ORIENTED_EDGE('',*,*,#374,.F.);
#467=ORIENTED_EDGE('',*,*,#371,.F.);
#468=ORIENTED_EDGE('',*,*,#361,.T.);
#469=ORIENTED_EDGE('',*,*,#375,.T.);
#470=ORIENTED_EDGE('',*,*,#376,.F.);
#471=ORIENTED_EDGE('',*,*,#373,.F.);
#472=ORIENTED_EDGE('',*,*,#377,.T.);
#473=ORIENTED_EDGE('',*,*,#378,.T.);
#474=ORIENTED_EDGE('',*,*,#379,.T.);
#475=ORIENTED_EDGE('',*,*,#380,.T.);
#476=ORIENTED_EDGE('',*,*,#381,.T.);
#477=ORIENTED_EDGE('',*,*,#382,.T.);
#478=ORIENTED_EDGE('',*,*,#383,.T.);
#479=ORIENTED_EDGE('',*,*,#384,.T.);
#480=ORIENTED_EDGE('',*,*,#385,.T.);
#481=ORIENTED_EDGE('',*,*,#386,.T.);
#482=ORIENTED_EDGE('',*,*,#387,.T.);
#483=ORIENTED_EDGE('',*,*,#388,.T.);
#484=ORIENTED_EDGE('',*,*,#369,.T.);
#485=ORIENTED_EDGE('',*,*,#372,.T.);
#486=ORIENTED_EDGE('',*,*,#374,.T.);
#487=ORIENTED_EDGE('',*,*,#376,.T.);
#488=ORIENTED_EDGE('',*,*,#359,.T.);
#489=ORIENTED_EDGE('',*,*,#356,.T.);
#490=ORIENTED_EDGE('',*,*,#353,.T.);
#491=ORIENTED_EDGE('',*,*,#350,.T.);
#492=ORIENTED_EDGE('',*,*,#365,.T.);
#493=ORIENTED_EDGE('',*,*,#370,.T.);
#494=ORIENTED_EDGE('',*,*,#388,.F.);
#495=ORIENTED_EDGE('',*,*,#389,.F.);
#496=ORIENTED_EDGE('',*,*,#366,.T.);
#497=ORIENTED_EDGE('',*,*,#389,.T.);
#498=ORIENTED_EDGE('',*,*,#387,.F.);
#499=ORIENTED_EDGE('',*,*,#390,.F.);
#500=ORIENTED_EDGE('',*,*,#367,.T.);
#501=ORIENTED_EDGE('',*,*,#390,.T.);
#502=ORIENTED_EDGE('',*,*,#386,.F.);
#503=ORIENTED_EDGE('',*,*,#391,.F.);
#504=ORIENTED_EDGE('',*,*,#360,.T.);
#505=ORIENTED_EDGE('',*,*,#391,.T.);
#506=ORIENTED_EDGE('',*,*,#385,.F.);
#507=ORIENTED_EDGE('',*,*,#375,.F.);
#508=ORIENTED_EDGE('',*,*,#392,.T.);
#509=ORIENTED_EDGE('',*,*,#393,.T.);
#510=ORIENTED_EDGE('',*,*,#384,.F.);
#511=ORIENTED_EDGE('',*,*,#394,.F.);
#512=ORIENTED_EDGE('',*,*,#395,.T.);
#513=ORIENTED_EDGE('',*,*,#394,.T.);
#514=ORIENTED_EDGE('',*,*,#383,.F.);
#515=ORIENTED_EDGE('',*,*,#396,.F.);
#516=ORIENTED_EDGE('',*,*,#397,.T.);
#517=ORIENTED_EDGE('',*,*,#396,.T.);
#518=ORIENTED_EDGE('',*,*,#382,.F.);
#519=ORIENTED_EDGE('',*,*,#398,.F.);
#520=ORIENTED_EDGE('',*,*,#399,.T.);
#521=ORIENTED_EDGE('',*,*,#398,.T.);
#522=ORIENTED_EDGE('',*,*,#381,.F.);
#523=ORIENTED_EDGE('',*,*,#400,.F.);
#524=ORIENTED_EDGE('',*,*,#401,.T.);
#525=ORIENTED_EDGE('',*,*,#400,.T.);
#526=ORIENTED_EDGE('',*,*,#380,.F.);
#527=ORIENTED_EDGE('',*,*,#402,.F.);
#528=ORIENTED_EDGE('',*,*,#403,.T.);
#529=ORIENTED_EDGE('',*,*,#402,.T.);
#530=ORIENTED_EDGE('',*,*,#379,.F.);
#531=ORIENTED_EDGE('',*,*,#404,.F.);
#532=ORIENTED_EDGE('',*,*,#405,.T.);
#533=ORIENTED_EDGE('',*,*,#404,.T.);
#534=ORIENTED_EDGE('',*,*,#378,.F.);
#535=ORIENTED_EDGE('',*,*,#406,.F.);
#536=ORIENTED_EDGE('',*,*,#407,.T.);
#537=ORIENTED_EDGE('',*,*,#406,.T.);
#538=ORIENTED_EDGE('',*,*,#377,.F.);
#539=ORIENTED_EDGE('',*,*,#393,.F.);
#540=ORIENTED_EDGE('',*,*,#407,.F.);
#541=ORIENTED_EDGE('',*,*,#392,.F.);
#542=ORIENTED_EDGE('',*,*,#395,.F.);
#543=ORIENTED_EDGE('',*,*,#397,.F.);
#544=ORIENTED_EDGE('',*,*,#399,.F.);
#545=ORIENTED_EDGE('',*,*,#401,.F.);
#546=ORIENTED_EDGE('',*,*,#403,.F.);
#547=ORIENTED_EDGE('',*,*,#405,.F.);
#548=ORIENTED_EDGE('',*,*,#348,.T.);
#549=ORIENTED_EDGE('',*,*,#351,.T.);
#550=ORIENTED_EDGE('',*,*,#354,.T.);
#551=ORIENTED_EDGE('',*,*,#357,.T.);
#552=ORIENTED_EDGE('',*,*,#408,.F.);
#553=ORIENTED_EDGE('',*,*,#409,.F.);
#554=ORIENTED_EDGE('',*,*,#410,.T.);
#555=ORIENTED_EDGE('',*,*,#408,.T.);
#556=ORIENTED_EDGE('',*,*,#410,.F.);
#557=ORIENTED_EDGE('',*,*,#411,.F.);
#558=ORIENTED_EDGE('',*,*,#412,.T.);
#559=ORIENTED_EDGE('',*,*,#413,.T.);
#560=ORIENTED_EDGE('',*,*,#412,.F.);
#561=ORIENTED_EDGE('',*,*,#411,.T.);
#562=ORIENTED_EDGE('',*,*,#409,.T.);
#563=ORIENTED_EDGE('',*,*,#413,.F.);
#564=ORIENTED_EDGE('',*,*,#414,.F.);
#565=ORIENTED_EDGE('',*,*,#415,.F.);
#566=ORIENTED_EDGE('',*,*,#416,.T.);
#567=ORIENTED_EDGE('',*,*,#414,.T.);
#568=ORIENTED_EDGE('',*,*,#416,.F.);
#569=ORIENTED_EDGE('',*,*,#417,.F.);
#570=ORIENTED_EDGE('',*,*,#418,.T.);
#571=ORIENTED_EDGE('',*,*,#419,.T.);
#572=ORIENTED_EDGE('',*,*,#418,.F.);
#573=ORIENTED_EDGE('',*,*,#417,.T.);
#574=ORIENTED_EDGE('',*,*,#415,.T.);
#575=ORIENTED_EDGE('',*,*,#419,.F.);
#576=ORIENTED_EDGE('',*,*,#420,.F.);
#577=ORIENTED_EDGE('',*,*,#421,.F.);
#578=ORIENTED_EDGE('',*,*,#422,.T.);
#579=ORIENTED_EDGE('',*,*,#420,.T.);
#580=ORIENTED_EDGE('',*,*,#422,.F.);
#581=ORIENTED_EDGE('',*,*,#423,.F.);
#582=ORIENTED_EDGE('',*,*,#424,.T.);
#583=ORIENTED_EDGE('',*,*,#425,.T.);
#584=ORIENTED_EDGE('',*,*,#424,.F.);
#585=ORIENTED_EDGE('',*,*,#423,.T.);
#586=ORIENTED_EDGE('',*,*,#421,.T.);
#587=ORIENTED_EDGE('',*,*,#425,.F.);
#588=ORIENTED_EDGE('',*,*,#426,.F.);
#589=ORIENTED_EDGE('',*,*,#427,.F.);
#590=ORIENTED_EDGE('',*,*,#428,.T.);
#591=ORIENTED_EDGE('',*,*,#426,.T.);
#592=ORIENTED_EDGE('',*,*,#428,.F.);
#593=ORIENTED_EDGE('',*,*,#429,.F.);
#594=ORIENTED_EDGE('',*,*,#430,.T.);
#595=ORIENTED_EDGE('',*,*,#431,.T.);
#596=ORIENTED_EDGE('',*,*,#430,.F.);
#597=ORIENTED_EDGE('',*,*,#429,.T.);
#598=ORIENTED_EDGE('',*,*,#427,.T.);
#599=ORIENTED_EDGE('',*,*,#431,.F.);
#600=CYLINDRICAL_SURFACE('',#682,1.59999999999997);
#601=CYLINDRICAL_SURFACE('',#685,1.6);
#602=CYLINDRICAL_SURFACE('',#688,1.59999999999999);
#603=CYLINDRICAL_SURFACE('',#691,1.59999999999997);
#604=CYLINDRICAL_SURFACE('',#699,12.);
#605=CYLINDRICAL_SURFACE('',#702,12.0000000000001);
#606=CYLINDRICAL_SURFACE('',#713,11.9999999999999);
#607=CYLINDRICAL_SURFACE('',#715,12.0000000000001);
#608=CYLINDRICAL_SURFACE('',#717,15.);
#609=CYLINDRICAL_SURFACE('',#720,15.);
#610=CYLINDRICAL_SURFACE('',#723,15.);
#611=CYLINDRICAL_SURFACE('',#726,15.);
#612=CYLINDRICAL_SURFACE('',#731,1.6);
#613=CYLINDRICAL_SURFACE('',#733,2.45000000000001);
#614=CYLINDRICAL_SURFACE('',#740,1.60000000000004);
#615=CYLINDRICAL_SURFACE('',#742,2.44999999999997);
#616=CYLINDRICAL_SURFACE('',#749,1.60000000000001);
#617=CYLINDRICAL_SURFACE('',#751,2.44999999999999);
#618=CYLINDRICAL_SURFACE('',#758,1.59999999999997);
#619=CYLINDRICAL_SURFACE('',#760,2.44999999999997);
#620=ADVANCED_FACE('',(#65),#600,.F.);
#621=ADVANCED_FACE('',(#66),#601,.F.);
#622=ADVANCED_FACE('',(#67),#602,.F.);
#623=ADVANCED_FACE('',(#68),#603,.F.);
#624=ADVANCED_FACE('',(#69),#42,.T.);
#625=ADVANCED_FACE('',(#70),#604,.F.);
#626=ADVANCED_FACE('',(#71),#43,.T.);
#627=ADVANCED_FACE('',(#72),#605,.F.);
#628=ADVANCED_FACE('',(#73),#44,.T.);
#629=ADVANCED_FACE('',(#74,#29,#30,#31,#32,#33),#45,.T.);
#630=ADVANCED_FACE('',(#75),#46,.T.);
#631=ADVANCED_FACE('',(#76),#606,.F.);
#632=ADVANCED_FACE('',(#77),#47,.T.);
#633=ADVANCED_FACE('',(#78),#607,.F.);
#634=ADVANCED_FACE('',(#79),#48,.T.);
#635=ADVANCED_FACE('',(#80),#608,.T.);
#636=ADVANCED_FACE('',(#81),#49,.T.);
#637=ADVANCED_FACE('',(#82),#609,.T.);
#638=ADVANCED_FACE('',(#83),#50,.T.);
#639=ADVANCED_FACE('',(#84),#610,.T.);
#640=ADVANCED_FACE('',(#85),#51,.T.);
#641=ADVANCED_FACE('',(#86),#611,.T.);
#642=ADVANCED_FACE('',(#87,#34,#35,#36,#37),#52,.F.);
#643=ADVANCED_FACE('',(#88),#53,.T.);
#644=ADVANCED_FACE('',(#89),#612,.F.);
#645=ADVANCED_FACE('',(#90),#613,.T.);
#646=ADVANCED_FACE('',(#91,#38),#54,.T.);
#647=ADVANCED_FACE('',(#92),#55,.F.);
#648=ADVANCED_FACE('',(#93),#56,.T.);
#649=ADVANCED_FACE('',(#94),#614,.F.);
#650=ADVANCED_FACE('',(#95),#615,.T.);
#651=ADVANCED_FACE('',(#96,#39),#57,.T.);
#652=ADVANCED_FACE('',(#97),#58,.F.);
#653=ADVANCED_FACE('',(#98),#59,.T.);
#654=ADVANCED_FACE('',(#99),#616,.F.);
#655=ADVANCED_FACE('',(#100),#617,.T.);
#656=ADVANCED_FACE('',(#101,#40),#60,.T.);
#657=ADVANCED_FACE('',(#102),#61,.F.);
#658=ADVANCED_FACE('',(#103),#62,.T.);
#659=ADVANCED_FACE('',(#104),#618,.F.);
#660=ADVANCED_FACE('',(#105),#619,.T.);
#661=ADVANCED_FACE('',(#106,#41),#63,.T.);
#662=ADVANCED_FACE('',(#107),#64,.F.);
#663=CLOSED_SHELL('',(#620,#621,#622,#623,#624,#625,#626,#627,#628,#629,
#630,#631,#632,#633,#634,#635,#636,#637,#638,#639,#640,#641,#642));
#664=CLOSED_SHELL('',(#643,#644,#645,#646,#647));
#665=CLOSED_SHELL('',(#648,#649,#650,#651,#652));
#666=CLOSED_SHELL('',(#653,#654,#655,#656,#657));
#667=CLOSED_SHELL('',(#658,#659,#660,#661,#662));
#668=DERIVED_UNIT_ELEMENT(#670,1.);
#669=DERIVED_UNIT_ELEMENT(#1175,-3.);
#670=(
MASS_UNIT()
NAMED_UNIT(*)
SI_UNIT(.KILO.,.GRAM.)
);
#671=DERIVED_UNIT((#668,#669));
#672=MEASURE_REPRESENTATION_ITEM('density measure',
POSITIVE_RATIO_MEASURE(7850.),#671);
#673=PROPERTY_DEFINITION_REPRESENTATION(#678,#675);
#674=PROPERTY_DEFINITION_REPRESENTATION(#679,#676);
#675=REPRESENTATION('material name',(#677),#1172);
#676=REPRESENTATION('density',(#672),#1172);
#677=DESCRIPTIVE_REPRESENTATION_ITEM('Steel','Steel');
#678=PROPERTY_DEFINITION('material property','material name',#1187);
#679=PROPERTY_DEFINITION('material property','density of part',#1187);
#680=AXIS2_PLACEMENT_3D('',#982,#766,#767);
#681=AXIS2_PLACEMENT_3D('',#983,#768,#769);
#682=AXIS2_PLACEMENT_3D('',#984,#770,#771);
#683=AXIS2_PLACEMENT_3D('',#986,#772,#773);
#684=AXIS2_PLACEMENT_3D('',#989,#775,#776);
#685=AXIS2_PLACEMENT_3D('',#990,#777,#778);
#686=AXIS2_PLACEMENT_3D('',#992,#779,#780);
#687=AXIS2_PLACEMENT_3D('',#995,#782,#783);
#688=AXIS2_PLACEMENT_3D('',#996,#784,#785);
#689=AXIS2_PLACEMENT_3D('',#998,#786,#787);
#690=AXIS2_PLACEMENT_3D('',#1001,#789,#790);
#691=AXIS2_PLACEMENT_3D('',#1002,#791,#792);
#692=AXIS2_PLACEMENT_3D('',#1004,#793,#794);
#693=AXIS2_PLACEMENT_3D('',#1007,#796,#797);
#694=AXIS2_PLACEMENT_3D('',#1008,#798,#799);
#695=AXIS2_PLACEMENT_3D('',#1011,#800,#801);
#696=AXIS2_PLACEMENT_3D('',#1015,#803,#804);
#697=AXIS2_PLACEMENT_3D('',#1019,#806,#807);
#698=AXIS2_PLACEMENT_3D('',#1023,#809,#810);
#699=AXIS2_PLACEMENT_3D('',#1025,#812,#813);
#700=AXIS2_PLACEMENT_3D('',#1029,#815,#816);
#701=AXIS2_PLACEMENT_3D('',#1031,#818,#819);
#702=AXIS2_PLACEMENT_3D('',#1035,#822,#823);
#703=AXIS2_PLACEMENT_3D('',#1038,#825,#826);
#704=AXIS2_PLACEMENT_3D('',#1039,#827,#828);
#705=AXIS2_PLACEMENT_3D('',#1043,#831,#832);
#706=AXIS2_PLACEMENT_3D('',#1046,#833,#834);
#707=AXIS2_PLACEMENT_3D('',#1050,#836,#837);
#708=AXIS2_PLACEMENT_3D('',#1054,#839,#840);
#709=AXIS2_PLACEMENT_3D('',#1058,#842,#843);
#710=AXIS2_PLACEMENT_3D('',#1061,#845,#846);
#711=AXIS2_PLACEMENT_3D('',#1065,#848,#849);
#712=AXIS2_PLACEMENT_3D('',#1067,#851,#852);
#713=AXIS2_PLACEMENT_3D('',#1069,#854,#855);
#714=AXIS2_PLACEMENT_3D('',#1071,#857,#858);
#715=AXIS2_PLACEMENT_3D('',#1073,#860,#861);
#716=AXIS2_PLACEMENT_3D('',#1074,#862,#863);
#717=AXIS2_PLACEMENT_3D('',#1080,#867,#868);
#718=AXIS2_PLACEMENT_3D('',#1082,#869,#870);
#719=AXIS2_PLACEMENT_3D('',#1084,#872,#873);
#720=AXIS2_PLACEMENT_3D('',#1088,#876,#877);
#721=AXIS2_PLACEMENT_3D('',#1090,#878,#879);
#722=AXIS2_PLACEMENT_3D('',#1092,#881,#882);
#723=AXIS2_PLACEMENT_3D('',#1096,#885,#886);
#724=AXIS2_PLACEMENT_3D('',#1098,#887,#888);
#725=AXIS2_PLACEMENT_3D('',#1100,#890,#891);
#726=AXIS2_PLACEMENT_3D('',#1104,#894,#895);
#727=AXIS2_PLACEMENT_3D('',#1105,#896,#897);
#728=AXIS2_PLACEMENT_3D('',#1106,#898,#899);
#729=AXIS2_PLACEMENT_3D('',#1107,#900,#901);
#730=AXIS2_PLACEMENT_3D('',#1109,#902,#903);
#731=AXIS2_PLACEMENT_3D('',#1110,#904,#905);
#732=AXIS2_PLACEMENT_3D('',#1112,#906,#907);
#733=AXIS2_PLACEMENT_3D('',#1114,#909,#910);
#734=AXIS2_PLACEMENT_3D('',#1116,#911,#912);
#735=AXIS2_PLACEMENT_3D('',#1119,#914,#915);
#736=AXIS2_PLACEMENT_3D('',#1120,#916,#917);
#737=AXIS2_PLACEMENT_3D('',#1121,#918,#919);
#738=AXIS2_PLACEMENT_3D('',#1122,#920,#921);
#739=AXIS2_PLACEMENT_3D('',#1124,#922,#923);
#740=AXIS2_PLACEMENT_3D('',#1125,#924,#925);
#741=AXIS2_PLACEMENT_3D('',#1127,#926,#927);
#742=AXIS2_PLACEMENT_3D('',#1129,#929,#930);
#743=AXIS2_PLACEMENT_3D('',#1131,#931,#932);
#744=AXIS2_PLACEMENT_3D('',#1134,#934,#935);
#745=AXIS2_PLACEMENT_3D('',#1135,#936,#937);
#746=AXIS2_PLACEMENT_3D('',#1136,#938,#939);
#747=AXIS2_PLACEMENT_3D('',#1137,#940,#941);
#748=AXIS2_PLACEMENT_3D('',#1139,#942,#943);
#749=AXIS2_PLACEMENT_3D('',#1140,#944,#945);
#750=AXIS2_PLACEMENT_3D('',#1142,#946,#947);
#751=AXIS2_PLACEMENT_3D('',#1144,#949,#950);
#752=AXIS2_PLACEMENT_3D('',#1146,#951,#952);
#753=AXIS2_PLACEMENT_3D('',#1149,#954,#955);
#754=AXIS2_PLACEMENT_3D('',#1150,#956,#957);
#755=AXIS2_PLACEMENT_3D('',#1151,#958,#959);
#756=AXIS2_PLACEMENT_3D('',#1152,#960,#961);
#757=AXIS2_PLACEMENT_3D('',#1154,#962,#963);
#758=AXIS2_PLACEMENT_3D('',#1155,#964,#965);
#759=AXIS2_PLACEMENT_3D('',#1157,#966,#967);
#760=AXIS2_PLACEMENT_3D('',#1159,#969,#970);
#761=AXIS2_PLACEMENT_3D('',#1161,#971,#972);
#762=AXIS2_PLACEMENT_3D('',#1164,#974,#975);
#763=AXIS2_PLACEMENT_3D('',#1165,#976,#977);
#764=AXIS2_PLACEMENT_3D('',#1166,#978,#979);
#765=AXIS2_PLACEMENT_3D('',#1167,#980,#981);
#766=DIRECTION('axis',(0.,0.,1.));
#767=DIRECTION('refdir',(1.,0.,0.));
#768=DIRECTION('axis',(0.,0.,1.));
#769=DIRECTION('refdir',(1.,0.,0.));
#770=DIRECTION('center_axis',(0.,0.,1.));
#771=DIRECTION('ref_axis',(1.,0.,0.));
#772=DIRECTION('center_axis',(0.,0.,1.));
#773=DIRECTION('ref_axis',(1.,0.,0.));
#774=DIRECTION('',(0.,0.,1.));
#775=DIRECTION('center_axis',(0.,0.,-1.));
#776=DIRECTION('ref_axis',(1.,0.,0.));
#777=DIRECTION('center_axis',(0.,0.,1.));
#778=DIRECTION('ref_axis',(1.,0.,0.));
#779=DIRECTION('center_axis',(0.,0.,1.));
#780=DIRECTION('ref_axis',(1.,0.,0.));
#781=DIRECTION('',(0.,0.,1.));
#782=DIRECTION('center_axis',(0.,0.,-1.));
#783=DIRECTION('ref_axis',(1.,0.,0.));
#784=DIRECTION('center_axis',(0.,0.,1.));
#785=DIRECTION('ref_axis',(1.,0.,0.));
#786=DIRECTION('center_axis',(0.,0.,1.));
#787=DIRECTION('ref_axis',(1.,0.,0.));
#788=DIRECTION('',(0.,0.,1.));
#789=DIRECTION('center_axis',(0.,0.,-1.));
#790=DIRECTION('ref_axis',(1.,0.,0.));
#791=DIRECTION('center_axis',(0.,0.,1.));
#792=DIRECTION('ref_axis',(1.,0.,0.));
#793=DIRECTION('center_axis',(0.,0.,1.));
#794=DIRECTION('ref_axis',(1.,0.,0.));
#795=DIRECTION('',(0.,0.,1.));
#796=DIRECTION('center_axis',(0.,0.,-1.));
#797=DIRECTION('ref_axis',(1.,0.,0.));
#798=DIRECTION('center_axis',(0.,0.,1.));
#799=DIRECTION('ref_axis',(1.,0.,0.));
#800=DIRECTION('center_axis',(0.,0.,-1.));
#801=DIRECTION('ref_axis',(5.92118946466745E-15,-1.,0.));
#802=DIRECTION('',(0.,-1.,0.));
#803=DIRECTION('center_axis',(0.,0.,-1.));
#804=DIRECTION('ref_axis',(1.,8.14163551391775E-15,0.));
#805=DIRECTION('',(1.,0.,0.));
#806=DIRECTION('center_axis',(0.,0.,-1.));
#807=DIRECTION('ref_axis',(-7.40148683083438E-16,1.,0.));
#808=DIRECTION('',(0.,1.,0.));
#809=DIRECTION('center_axis',(0.,0.,-1.));
#810=DIRECTION('ref_axis',(-1.,5.92118946466754E-15,0.));
#811=DIRECTION('',(-1.,0.,0.));
#812=DIRECTION('center_axis',(0.,0.,1.));
#813=DIRECTION('ref_axis',(-7.40148683083438E-16,1.,0.));
#814=DIRECTION('',(0.,0.,1.));
#815=DIRECTION('center_axis',(0.,0.,-1.));
#816=DIRECTION('ref_axis',(-7.40148683083438E-16,1.,0.));
#817=DIRECTION('',(0.,0.,1.));
#818=DIRECTION('center_axis',(0.,-1.,0.));
#819=DIRECTION('ref_axis',(1.,0.,0.));
#820=DIRECTION('',(0.,0.,1.));
#821=DIRECTION('',(1.,0.,0.));
#822=DIRECTION('center_axis',(0.,0.,1.));
#823=DIRECTION('ref_axis',(1.,8.14163551391775E-15,0.));
#824=DIRECTION('',(0.,0.,1.));
#825=DIRECTION('center_axis',(0.,0.,-1.));
#826=DIRECTION('ref_axis',(1.,8.14163551391775E-15,0.));
#827=DIRECTION('center_axis',(-1.,0.,0.));
#828=DIRECTION('ref_axis',(0.,-1.,0.));
#829=DIRECTION('',(0.,0.,1.));
#830=DIRECTION('',(0.,-1.,0.));
#831=DIRECTION('center_axis',(0.,0.,1.));
#832=DIRECTION('ref_axis',(1.,0.,0.));
#833=DIRECTION('center_axis',(0.,0.,1.));
#834=DIRECTION('ref_axis',(-1.,0.,0.));
#835=DIRECTION('',(1.,-1.13280836820324E-16,0.));
#836=DIRECTION('center_axis',(0.,0.,1.));
#837=DIRECTION('ref_axis',(-4.73695157173401E-15,-1.,0.));
#838=DIRECTION('',(4.94118750705643E-16,1.,0.));
#839=DIRECTION('center_axis',(0.,0.,1.));
#840=DIRECTION('ref_axis',(1.,-1.1842378929335E-15,0.));
#841=DIRECTION('',(-1.,0.,0.));
#842=DIRECTION('center_axis',(0.,0.,1.));
#843=DIRECTION('ref_axis',(-5.9211894646675E-16,1.,0.));
#844=DIRECTION('',(0.,-1.,0.));
#845=DIRECTION('center_axis',(0.,0.,-1.));
#846=DIRECTION('ref_axis',(5.92118946466745E-15,-1.,0.));
#847=DIRECTION('',(-1.,0.,0.));
#848=DIRECTION('center_axis',(0.,0.,-1.));
#849=DIRECTION('ref_axis',(-1.,5.92118946466754E-15,0.));
#850=DIRECTION('',(0.,1.,0.));
#851=DIRECTION('center_axis',(1.,0.,0.));
#852=DIRECTION('ref_axis',(0.,1.,0.));
#853=DIRECTION('',(0.,0.,1.));
#854=DIRECTION('center_axis',(0.,0.,1.));
#855=DIRECTION('ref_axis',(-1.,5.92118946466754E-15,0.));
#856=DIRECTION('',(0.,0.,1.));
#857=DIRECTION('center_axis',(0.,1.,0.));
#858=DIRECTION('ref_axis',(-1.,0.,0.));
#859=DIRECTION('',(0.,0.,1.));
#860=DIRECTION('center_axis',(0.,0.,1.));
#861=DIRECTION('ref_axis',(5.92118946466745E-15,-1.,0.));
#862=DIRECTION('center_axis',(-1.,0.,0.));
#863=DIRECTION('ref_axis',(0.,-1.,0.));
#864=DIRECTION('',(0.,-1.,0.));
#865=DIRECTION('',(0.,0.,1.));
#866=DIRECTION('',(0.,0.,1.));
#867=DIRECTION('center_axis',(0.,0.,1.));
#868=DIRECTION('ref_axis',(-5.9211894646675E-16,1.,0.));
#869=DIRECTION('center_axis',(0.,0.,1.));
#870=DIRECTION('ref_axis',(-5.9211894646675E-16,1.,0.));
#871=DIRECTION('',(0.,0.,1.));
#872=DIRECTION('center_axis',(0.,1.,0.));
#873=DIRECTION('ref_axis',(-1.,0.,0.));
#874=DIRECTION('',(-1.,0.,0.));
#875=DIRECTION('',(0.,0.,1.));
#876=DIRECTION('center_axis',(0.,0.,1.));
#877=DIRECTION('ref_axis',(1.,-1.1842378929335E-15,0.));
#878=DIRECTION('center_axis',(0.,0.,1.));
#879=DIRECTION('ref_axis',(1.,-1.1842378929335E-15,0.));
#880=DIRECTION('',(0.,0.,1.));
#881=DIRECTION('center_axis',(1.,-4.94118750705643E-16,0.));
#882=DIRECTION('ref_axis',(4.94118750705643E-16,1.,0.));
#883=DIRECTION('',(4.94118750705643E-16,1.,0.));
#884=DIRECTION('',(0.,0.,1.));
#885=DIRECTION('center_axis',(0.,0.,1.));
#886=DIRECTION('ref_axis',(-4.73695157173401E-15,-1.,0.));
#887=DIRECTION('center_axis',(0.,0.,1.));
#888=DIRECTION('ref_axis',(-4.73695157173401E-15,-1.,0.));
#889=DIRECTION('',(0.,0.,1.));
#890=DIRECTION('center_axis',(-1.13280836820324E-16,-1.,0.));
#891=DIRECTION('ref_axis',(1.,-1.13280836820324E-16,0.));
#892=DIRECTION('',(1.,-1.13280836820324E-16,0.));
#893=DIRECTION('',(0.,0.,1.));
#894=DIRECTION('center_axis',(0.,0.,1.));
#895=DIRECTION('ref_axis',(-1.,0.,0.));
#896=DIRECTION('center_axis',(0.,0.,1.));
#897=DIRECTION('ref_axis',(-1.,0.,0.));
#898=DIRECTION('center_axis',(0.,0.,1.));
#899=DIRECTION('ref_axis',(1.,0.,0.));
#900=DIRECTION('center_axis',(0.,0.,1.));
#901=DIRECTION('ref_axis',(-1.,0.,0.));
#902=DIRECTION('center_axis',(0.,0.,-1.));
#903=DIRECTION('ref_axis',(-1.,0.,0.));
#904=DIRECTION('center_axis',(0.,0.,1.));
#905=DIRECTION('ref_axis',(-1.,0.,0.));
#906=DIRECTION('center_axis',(0.,0.,-1.));
#907=DIRECTION('ref_axis',(-1.,0.,0.));
#908=DIRECTION('',(0.,0.,-1.));
#909=DIRECTION('center_axis',(0.,0.,1.));
#910=DIRECTION('ref_axis',(-1.,0.,0.));
#911=DIRECTION('center_axis',(0.,0.,1.));
#912=DIRECTION('ref_axis',(-1.,0.,0.));
#913=DIRECTION('',(0.,0.,-1.));
#914=DIRECTION('center_axis',(0.,0.,1.));
#915=DIRECTION('ref_axis',(-1.,0.,0.));
#916=DIRECTION('center_axis',(0.,0.,1.));
#917=DIRECTION('ref_axis',(-1.,0.,0.));
#918=DIRECTION('center_axis',(0.,0.,1.));
#919=DIRECTION('ref_axis',(-1.,0.,0.));
#920=DIRECTION('center_axis',(0.,0.,1.));
#921=DIRECTION('ref_axis',(-1.,0.,0.));
#922=DIRECTION('center_axis',(0.,0.,-1.));
#923=DIRECTION('ref_axis',(-1.,0.,0.));
#924=DIRECTION('center_axis',(0.,0.,1.));
#925=DIRECTION('ref_axis',(-1.,0.,0.));
#926=DIRECTION('center_axis',(0.,0.,-1.));
#927=DIRECTION('ref_axis',(-1.,0.,0.));
#928=DIRECTION('',(0.,0.,-1.));
#929=DIRECTION('center_axis',(0.,0.,1.));
#930=DIRECTION('ref_axis',(-1.,0.,0.));
#931=DIRECTION('center_axis',(0.,0.,1.));
#932=DIRECTION('ref_axis',(-1.,0.,0.));
#933=DIRECTION('',(0.,0.,-1.));
#934=DIRECTION('center_axis',(0.,0.,1.));
#935=DIRECTION('ref_axis',(-1.,0.,0.));
#936=DIRECTION('center_axis',(0.,0.,1.));
#937=DIRECTION('ref_axis',(-1.,0.,0.));
#938=DIRECTION('center_axis',(0.,0.,1.));
#939=DIRECTION('ref_axis',(-1.,0.,0.));
#940=DIRECTION('center_axis',(0.,0.,1.));
#941=DIRECTION('ref_axis',(-1.,0.,0.));
#942=DIRECTION('center_axis',(0.,0.,-1.));
#943=DIRECTION('ref_axis',(-1.,0.,0.));
#944=DIRECTION('center_axis',(0.,0.,1.));
#945=DIRECTION('ref_axis',(-1.,0.,0.));
#946=DIRECTION('center_axis',(0.,0.,-1.));
#947=DIRECTION('ref_axis',(-1.,0.,0.));
#948=DIRECTION('',(0.,0.,-1.));
#949=DIRECTION('center_axis',(0.,0.,1.));
#950=DIRECTION('ref_axis',(-1.,0.,0.));
#951=DIRECTION('center_axis',(0.,0.,1.));
#952=DIRECTION('ref_axis',(-1.,0.,0.));
#953=DIRECTION('',(0.,0.,-1.));
#954=DIRECTION('center_axis',(0.,0.,1.));
#955=DIRECTION('ref_axis',(-1.,0.,0.));
#956=DIRECTION('center_axis',(0.,0.,1.));
#957=DIRECTION('ref_axis',(-1.,0.,0.));
#958=DIRECTION('center_axis',(0.,0.,1.));
#959=DIRECTION('ref_axis',(-1.,0.,0.));
#960=DIRECTION('center_axis',(0.,0.,1.));
#961=DIRECTION('ref_axis',(-1.,0.,0.));
#962=DIRECTION('center_axis',(0.,0.,-1.));
#963=DIRECTION('ref_axis',(-1.,0.,0.));
#964=DIRECTION('center_axis',(0.,0.,1.));
#965=DIRECTION('ref_axis',(-1.,0.,0.));
#966=DIRECTION('center_axis',(0.,0.,-1.));
#967=DIRECTION('ref_axis',(-1.,0.,0.));
#968=DIRECTION('',(0.,0.,-1.));
#969=DIRECTION('center_axis',(0.,0.,1.));
#970=DIRECTION('ref_axis',(-1.,0.,0.));
#971=DIRECTION('center_axis',(0.,0.,1.));
#972=DIRECTION('ref_axis',(-1.,0.,0.));
#973=DIRECTION('',(0.,0.,-1.));
#974=DIRECTION('center_axis',(0.,0.,1.));
#975=DIRECTION('ref_axis',(-1.,0.,0.));
#976=DIRECTION('center_axis',(0.,0.,1.));
#977=DIRECTION('ref_axis',(-1.,0.,0.));
#978=DIRECTION('center_axis',(0.,0.,1.));
#979=DIRECTION('ref_axis',(-1.,0.,0.));
#980=DIRECTION('',(0.,0.,1.));
#981=DIRECTION('',(1.,0.,0.));
#982=CARTESIAN_POINT('',(0.,0.,0.));
#983=CARTESIAN_POINT('',(0.,0.,0.));
#984=CARTESIAN_POINT('Origin',(375.852008688662,-55.7836709615422,0.));
#985=CARTESIAN_POINT('',(374.252008688662,-55.7836709615422,0.));
#986=CARTESIAN_POINT('Origin',(375.852008688662,-55.7836709615422,0.));
#987=CARTESIAN_POINT('',(374.252008688662,-55.7836709615422,16.));
#988=CARTESIAN_POINT('',(374.252008688662,-55.7836709615422,0.));
#989=CARTESIAN_POINT('Origin',(375.852008688662,-55.7836709615422,16.));
#990=CARTESIAN_POINT('Origin',(45.7681281805697,-211.016928168255,0.));
#991=CARTESIAN_POINT('',(44.1681281805697,-211.016928168255,0.));
#992=CARTESIAN_POINT('Origin',(45.7681281805697,-211.016928168255,0.));
#993=CARTESIAN_POINT('',(44.1681281805697,-211.016928168255,16.));
#994=CARTESIAN_POINT('',(44.1681281805697,-211.016928168255,0.));
#995=CARTESIAN_POINT('Origin',(45.7681281805697,-211.016928168255,16.));
#996=CARTESIAN_POINT('Origin',(45.7681281805697,-55.7836709615422,0.));
#997=CARTESIAN_POINT('',(44.1681281805697,-55.7836709615422,0.));
#998=CARTESIAN_POINT('Origin',(45.7681281805697,-55.7836709615422,0.));
#999=CARTESIAN_POINT('',(44.1681281805697,-55.7836709615422,16.));
#1000=CARTESIAN_POINT('',(44.1681281805697,-55.7836709615422,0.));
#1001=CARTESIAN_POINT('Origin',(45.7681281805697,-55.7836709615422,16.));
#1002=CARTESIAN_POINT('Origin',(375.852008688662,-211.016928168255,0.));
#1003=CARTESIAN_POINT('',(374.252008688662,-211.016928168255,0.));
#1004=CARTESIAN_POINT('Origin',(375.852008688662,-211.016928168255,0.));
#1005=CARTESIAN_POINT('',(374.252008688662,-211.016928168255,16.));
#1006=CARTESIAN_POINT('',(374.252008688662,-211.016928168255,0.));
#1007=CARTESIAN_POINT('Origin',(375.852008688662,-211.016928168255,16.));
#1008=CARTESIAN_POINT('Origin',(211.000003144145,-132.500001974404,1.));
#1009=CARTESIAN_POINT('',(374.000005573034,-198.000003129244,1.));
#1010=CARTESIAN_POINT('',(362.000005573034,-210.000003129244,1.));
#1011=CARTESIAN_POINT('Origin',(362.000005573034,-198.000003129244,1.));
#1012=CARTESIAN_POINT('',(374.000005573034,-67.0000008195639,1.));
#1013=CARTESIAN_POINT('',(374.000005573034,-99.7500013969839,1.));
#1014=CARTESIAN_POINT('',(362.000005573034,-55.0000008195639,1.));
#1015=CARTESIAN_POINT('Origin',(362.000005573034,-67.000000819564,1.));
#1016=CARTESIAN_POINT('',(60.0000007152557,-55.0000008195639,1.));
#1017=CARTESIAN_POINT('',(135.5000019297,-55.0000008195639,1.));
#1018=CARTESIAN_POINT('',(48.0000007152557,-67.0000008195639,1.));
#1019=CARTESIAN_POINT('Origin',(60.0000007152557,-67.0000008195639,1.));
#1020=CARTESIAN_POINT('',(48.0000007152557,-198.000003129244,1.));
#1021=CARTESIAN_POINT('',(48.0000007152557,-165.250002551824,1.));
#1022=CARTESIAN_POINT('',(60.0000007152557,-210.000003129244,1.));
#1023=CARTESIAN_POINT('Origin',(60.0000007152557,-198.000003129244,1.));
#1024=CARTESIAN_POINT('',(286.50000435859,-210.000003129244,1.));
#1025=CARTESIAN_POINT('Origin',(60.0000007152557,-67.0000008195639,0.));
#1026=CARTESIAN_POINT('',(60.0000007152557,-55.0000008195639,16.));
#1027=CARTESIAN_POINT('',(60.0000007152557,-55.0000008195639,0.));
#1028=CARTESIAN_POINT('',(48.0000007152557,-67.0000008195639,16.));
#1029=CARTESIAN_POINT('Origin',(60.0000007152557,-67.0000008195639,16.));
#1030=CARTESIAN_POINT('',(48.0000007152557,-67.0000008195639,0.));
#1031=CARTESIAN_POINT('Origin',(60.0000007152557,-55.0000008195639,0.));
#1032=CARTESIAN_POINT('',(362.000005573034,-55.0000008195639,16.));
#1033=CARTESIAN_POINT('',(362.000005573034,-55.0000008195639,0.));
#1034=CARTESIAN_POINT('',(362.000005573034,-55.0000008195639,16.));
#1035=CARTESIAN_POINT('Origin',(362.000005573034,-67.000000819564,0.));
#1036=CARTESIAN_POINT('',(374.000005573034,-67.0000008195639,16.));
#1037=CARTESIAN_POINT('',(374.000005573034,-67.0000008195639,0.));
#1038=CARTESIAN_POINT('Origin',(362.000005573034,-67.000000819564,16.));
#1039=CARTESIAN_POINT('Origin',(374.000005573034,-67.0000008195639,0.));
#1040=CARTESIAN_POINT('',(374.000005573034,-198.000003129244,16.));
#1041=CARTESIAN_POINT('',(374.000005573034,-198.000003129244,0.));
#1042=CARTESIAN_POINT('',(374.000005573034,-198.000003129244,16.));
#1043=CARTESIAN_POINT('Origin',(210.810002413988,-133.399997884408,16.));
#1044=CARTESIAN_POINT('',(38.9999991282821,-205.299995075911,16.));
#1045=CARTESIAN_POINT('',(53.9999991282821,-220.299995075911,16.));
#1046=CARTESIAN_POINT('Origin',(53.9999991282821,-205.299995075911,16.));
#1047=CARTESIAN_POINT('',(367.620005699694,-220.299995075911,16.));
#1048=CARTESIAN_POINT('',(53.9999991282821,-220.299995075911,16.));
#1049=CARTESIAN_POINT('',(382.620005699694,-205.299995075911,16.));
#1050=CARTESIAN_POINT('Origin',(367.620005699694,-205.299995075911,16.));
#1051=CARTESIAN_POINT('',(382.620005699694,-61.500000692904,16.));
#1052=CARTESIAN_POINT('',(382.620005699694,-205.299995075911,16.));
#1053=CARTESIAN_POINT('',(367.620005699694,-46.500000692904,16.));
#1054=CARTESIAN_POINT('Origin',(367.620005699694,-61.500000692904,16.));
#1055=CARTESIAN_POINT('',(53.9999991282821,-46.500000692904,16.));
#1056=CARTESIAN_POINT('',(367.620005699694,-46.500000692904,16.));
#1057=CARTESIAN_POINT('',(38.9999991282821,-61.500000692904,16.));
#1058=CARTESIAN_POINT('Origin',(53.9999991282821,-61.500000692904,16.));
#1059=CARTESIAN_POINT('',(38.9999991282821,-61.500000692904,16.));
#1060=CARTESIAN_POINT('',(362.000005573034,-210.000003129244,16.));
#1061=CARTESIAN_POINT('Origin',(362.000005573034,-198.000003129244,16.));
#1062=CARTESIAN_POINT('',(60.0000007152557,-210.000003129244,16.));
#1063=CARTESIAN_POINT('',(60.0000007152557,-210.000003129244,16.));
#1064=CARTESIAN_POINT('',(48.0000007152557,-198.000003129244,16.));
#1065=CARTESIAN_POINT('Origin',(60.0000007152557,-198.000003129244,16.));
#1066=CARTESIAN_POINT('',(48.0000007152557,-67.0000008195639,16.));
#1067=CARTESIAN_POINT('Origin',(48.0000007152557,-198.000003129244,0.));
#1068=CARTESIAN_POINT('',(48.0000007152557,-198.000003129244,0.));
#1069=CARTESIAN_POINT('Origin',(60.0000007152557,-198.000003129244,0.));
#1070=CARTESIAN_POINT('',(60.0000007152557,-210.000003129244,0.));
#1071=CARTESIAN_POINT('Origin',(362.000005573034,-210.000003129244,0.));
#1072=CARTESIAN_POINT('',(362.000005573034,-210.000003129244,0.));
#1073=CARTESIAN_POINT('Origin',(362.000005573034,-198.000003129244,0.));
#1074=CARTESIAN_POINT('Origin',(38.9999991282821,-61.500000692904,0.));
#1075=CARTESIAN_POINT('',(38.9999991282821,-61.500000692904,0.));
#1076=CARTESIAN_POINT('',(38.9999991282821,-205.299995075911,0.));
#1077=CARTESIAN_POINT('',(38.9999991282821,-61.500000692904,0.));
#1078=CARTESIAN_POINT('',(38.9999991282821,-205.299995075911,0.));
#1079=CARTESIAN_POINT('',(38.9999991282821,-61.500000692904,0.));
#1080=CARTESIAN_POINT('Origin',(53.9999991282821,-61.500000692904,0.));
#1081=CARTESIAN_POINT('',(53.9999991282821,-46.500000692904,0.));
#1082=CARTESIAN_POINT('Origin',(53.9999991282821,-61.500000692904,0.));
#1083=CARTESIAN_POINT('',(53.9999991282821,-46.500000692904,0.));
#1084=CARTESIAN_POINT('Origin',(367.620005699694,-46.500000692904,0.));
#1085=CARTESIAN_POINT('',(367.620005699694,-46.500000692904,0.));
#1086=CARTESIAN_POINT('',(367.620005699694,-46.500000692904,0.));
#1087=CARTESIAN_POINT('',(367.620005699694,-46.500000692904,0.));
#1088=CARTESIAN_POINT('Origin',(367.620005699694,-61.500000692904,0.));
#1089=CARTESIAN_POINT('',(382.620005699694,-61.500000692904,0.));
#1090=CARTESIAN_POINT('Origin',(367.620005699694,-61.500000692904,0.));
#1091=CARTESIAN_POINT('',(382.620005699694,-61.500000692904,0.));
#1092=CARTESIAN_POINT('Origin',(382.620005699694,-205.299995075911,0.));
#1093=CARTESIAN_POINT('',(382.620005699694,-205.299995075911,0.));
#1094=CARTESIAN_POINT('',(382.620005699694,-205.299995075911,0.));
#1095=CARTESIAN_POINT('',(382.620005699694,-205.299995075911,0.));
#1096=CARTESIAN_POINT('Origin',(367.620005699694,-205.299995075911,0.));
#1097=CARTESIAN_POINT('',(367.620005699694,-220.299995075911,0.));
#1098=CARTESIAN_POINT('Origin',(367.620005699694,-205.299995075911,0.));
#1099=CARTESIAN_POINT('',(367.620005699694,-220.299995075911,0.));
#1100=CARTESIAN_POINT('Origin',(53.9999991282821,-220.299995075911,0.));
#1101=CARTESIAN_POINT('',(53.9999991282821,-220.299995075911,0.));
#1102=CARTESIAN_POINT('',(53.9999991282821,-220.299995075911,0.));
#1103=CARTESIAN_POINT('',(53.9999991282821,-220.299995075911,0.));
#1104=CARTESIAN_POINT('Origin',(53.9999991282821,-205.299995075911,0.));
#1105=CARTESIAN_POINT('Origin',(53.9999991282821,-205.299995075911,0.));
#1106=CARTESIAN_POINT('Origin',(210.810002413988,-133.399997884408,0.));
#1107=CARTESIAN_POINT('Origin',(54.8725,-202.8025,1.2));
#1108=CARTESIAN_POINT('',(56.4725,-202.8025,1.2));
#1109=CARTESIAN_POINT('Origin',(54.8725,-202.8025,1.2));
#1110=CARTESIAN_POINT('Origin',(54.8725,-202.8025,1.));
#1111=CARTESIAN_POINT('',(56.4725,-202.8025,4.85));
#1112=CARTESIAN_POINT('Origin',(54.8725,-202.8025,4.85));
#1113=CARTESIAN_POINT('',(56.4725,-202.8025,1.));
#1114=CARTESIAN_POINT('Origin',(54.8725,-202.8025,1.));
#1115=CARTESIAN_POINT('',(57.3225,-202.8025,4.85));
#1116=CARTESIAN_POINT('Origin',(54.8725,-202.8025,4.85));
#1117=CARTESIAN_POINT('',(57.3225,-202.8025,1.));
#1118=CARTESIAN_POINT('',(57.3225,-202.8025,1.));
#1119=CARTESIAN_POINT('Origin',(54.8725,-202.8025,1.));
#1120=CARTESIAN_POINT('Origin',(54.8725,-202.8025,4.85));
#1121=CARTESIAN_POINT('Origin',(54.8725,-202.8025,1.));
#1122=CARTESIAN_POINT('Origin',(367.8725,-202.8025,1.2));
#1123=CARTESIAN_POINT('',(369.4725,-202.8025,1.2));
#1124=CARTESIAN_POINT('Origin',(367.8725,-202.8025,1.2));
#1125=CARTESIAN_POINT('Origin',(367.8725,-202.8025,1.));
#1126=CARTESIAN_POINT('',(369.4725,-202.8025,4.85));
#1127=CARTESIAN_POINT('Origin',(367.8725,-202.8025,4.85));
#1128=CARTESIAN_POINT('',(369.4725,-202.8025,1.));
#1129=CARTESIAN_POINT('Origin',(367.8725,-202.8025,1.));
#1130=CARTESIAN_POINT('',(370.3225,-202.8025,4.85));
#1131=CARTESIAN_POINT('Origin',(367.8725,-202.8025,4.85));
#1132=CARTESIAN_POINT('',(370.3225,-202.8025,1.));
#1133=CARTESIAN_POINT('',(370.3225,-202.8025,1.));
#1134=CARTESIAN_POINT('Origin',(367.8725,-202.8025,1.));
#1135=CARTESIAN_POINT('Origin',(367.8725,-202.8025,4.85));
#1136=CARTESIAN_POINT('Origin',(367.8725,-202.8025,1.));
#1137=CARTESIAN_POINT('Origin',(54.8725,-62.8025,1.2));
#1138=CARTESIAN_POINT('',(56.4725,-62.8025,1.2));
#1139=CARTESIAN_POINT('Origin',(54.8725,-62.8025,1.2));
#1140=CARTESIAN_POINT('Origin',(54.8725,-62.8025,1.));
#1141=CARTESIAN_POINT('',(56.4725,-62.8025,4.85));
#1142=CARTESIAN_POINT('Origin',(54.8725,-62.8025,4.85));
#1143=CARTESIAN_POINT('',(56.4725,-62.8025,1.));
#1144=CARTESIAN_POINT('Origin',(54.8725,-62.8025,1.));
#1145=CARTESIAN_POINT('',(57.3225,-62.8025,4.85));
#1146=CARTESIAN_POINT('Origin',(54.8725,-62.8025,4.85));
#1147=CARTESIAN_POINT('',(57.3225,-62.8025,1.));
#1148=CARTESIAN_POINT('',(57.3225,-62.8025,1.));
#1149=CARTESIAN_POINT('Origin',(54.8725,-62.8025,1.));
#1150=CARTESIAN_POINT('Origin',(54.8725,-62.8025,4.85));
#1151=CARTESIAN_POINT('Origin',(54.8725,-62.8025,1.));
#1152=CARTESIAN_POINT('Origin',(367.8725,-62.8025,1.2));
#1153=CARTESIAN_POINT('',(369.4725,-62.8025,1.2));
#1154=CARTESIAN_POINT('Origin',(367.8725,-62.8025,1.2));
#1155=CARTESIAN_POINT('Origin',(367.8725,-62.8025,1.));
#1156=CARTESIAN_POINT('',(369.4725,-62.8025,4.85));
#1157=CARTESIAN_POINT('Origin',(367.8725,-62.8025,4.85));
#1158=CARTESIAN_POINT('',(369.4725,-62.8025,1.));
#1159=CARTESIAN_POINT('Origin',(367.8725,-62.8025,1.));
#1160=CARTESIAN_POINT('',(370.3225,-62.8025,4.85));
#1161=CARTESIAN_POINT('Origin',(367.8725,-62.8025,4.85));
#1162=CARTESIAN_POINT('',(370.3225,-62.8025,1.));
#1163=CARTESIAN_POINT('',(370.3225,-62.8025,1.));
#1164=CARTESIAN_POINT('Origin',(367.8725,-62.8025,1.));
#1165=CARTESIAN_POINT('Origin',(367.8725,-62.8025,4.85));
#1166=CARTESIAN_POINT('Origin',(367.8725,-62.8025,1.));
#1167=CARTESIAN_POINT('',(0.,0.,0.));
#1168=UNCERTAINTY_MEASURE_WITH_UNIT(LENGTH_MEASURE(0.01),#1174,
'DISTANCE_ACCURACY_VALUE',
'Maximum model space distance between geometric entities at asserted c
onnectivities');
#1169=UNCERTAINTY_MEASURE_WITH_UNIT(LENGTH_MEASURE(0.01),#1174,
'DISTANCE_ACCURACY_VALUE',
'Maximum model space distance between geometric entities at asserted c
onnectivities');
#1170=UNCERTAINTY_MEASURE_WITH_UNIT(LENGTH_MEASURE(0.01),#1174,
'DISTANCE_ACCURACY_VALUE',
'Maximum model space distance between geometric entities at asserted c
onnectivities');
#1171=(
GEOMETRIC_REPRESENTATION_CONTEXT(3)
GLOBAL_UNCERTAINTY_ASSIGNED_CONTEXT((#1168))
GLOBAL_UNIT_ASSIGNED_CONTEXT((#1174,#1176,#1177))
REPRESENTATION_CONTEXT('','3D')
);
#1172=(
GEOMETRIC_REPRESENTATION_CONTEXT(3)
GLOBAL_UNCERTAINTY_ASSIGNED_CONTEXT((#1169))
GLOBAL_UNIT_ASSIGNED_CONTEXT((#1174,#1176,#1177))
REPRESENTATION_CONTEXT('','3D')
);
#1173=(
GEOMETRIC_REPRESENTATION_CONTEXT(3)
GLOBAL_UNCERTAINTY_ASSIGNED_CONTEXT((#1170))
GLOBAL_UNIT_ASSIGNED_CONTEXT((#1174,#1176,#1177))
REPRESENTATION_CONTEXT('','3D')
);
#1174=(
LENGTH_UNIT()
NAMED_UNIT(*)
SI_UNIT(.MILLI.,.METRE.)
);
#1175=(
LENGTH_UNIT()
NAMED_UNIT(*)
SI_UNIT($,.METRE.)
);
#1176=(
NAMED_UNIT(*)
PLANE_ANGLE_UNIT()
SI_UNIT($,.RADIAN.)
);
#1177=(
NAMED_UNIT(*)
SI_UNIT($,.STERADIAN.)
SOLID_ANGLE_UNIT()
);
#1178=SHAPE_DEFINITION_REPRESENTATION(#1180,#1183);
#1179=SHAPE_DEFINITION_REPRESENTATION(#1181,#1184);
#1180=PRODUCT_DEFINITION_SHAPE('',$,#1186);
#1181=PRODUCT_DEFINITION_SHAPE('',$,#1187);
#1182=PRODUCT_DEFINITION_SHAPE($,$,#14);
#1183=SHAPE_REPRESENTATION('',(#680,#765),#1171);
#1184=SHAPE_REPRESENTATION('',(#681),#1172);
#1185=PRODUCT_DEFINITION_CONTEXT('part definition',#1193,'design');
#1186=PRODUCT_DEFINITION('2026-06-17-03-43-50-280','(Unsaved)',#1188,#1185);
#1187=PRODUCT_DEFINITION('2026-06-16-20-07-49-646','Cover',#1189,#1185);
#1188=PRODUCT_DEFINITION_FORMATION('',$,#1195);
#1189=PRODUCT_DEFINITION_FORMATION('',$,#1196);
#1190=PRODUCT_RELATED_PRODUCT_CATEGORY('(Unsaved)','(Unsaved)',(#1195));
#1191=PRODUCT_RELATED_PRODUCT_CATEGORY('Cover','Cover',(#1196));
#1192=APPLICATION_PROTOCOL_DEFINITION('international standard',
'automotive_design',2009,#1193);
#1193=APPLICATION_CONTEXT(
'Core Data for Automotive Mechanical Design Process');
#1194=PRODUCT_CONTEXT('part definition',#1193,'mechanical');
#1195=PRODUCT('2026-06-17-03-43-50-280','(Unsaved)',$,(#1194));
#1196=PRODUCT('2026-06-16-20-07-49-646','Cover',$,(#1194));
#1197=PRESENTATION_STYLE_ASSIGNMENT((#1198));
#1198=SURFACE_STYLE_USAGE(.BOTH.,#1199);
#1199=SURFACE_SIDE_STYLE('',(#1200));
#1200=SURFACE_STYLE_FILL_AREA(#1201);
#1201=FILL_AREA_STYLE('Steel - Satin',(#1202));
#1202=FILL_AREA_STYLE_COLOUR('Steel - Satin',#1203);
#1203=COLOUR_RGB('Steel - Satin',0.627450980392157,0.627450980392157,0.627450980392157);
ENDSEC;
END-ISO-10303-21;
