%TF.GenerationSoftware,KiCad,Pcbnew,9.0.7*%
%TF.CreationDate,2026-06-20T10:19:04+03:00*%
%TF.ProjectId,MechanicalDIY,4d656368-616e-4696-9361-6c4449592e6b,rev?*%
%TF.SameCoordinates,Original*%
%TF.FileFunction,NonPlated,1,2,NPTH,Drill*%
%TF.FilePolarity,Positive*%
%FSLAX46Y46*%
G04 Gerber Fmt 4.6, Leading zero omitted, Abs format (unit mm)*
G04 Created by KiCad (PCBNEW 9.0.7) date 2026-06-20 10:19:04*
%MOMM*%
%LPD*%
G01*
G04 APERTURE LIST*
%TA.AperFunction,ComponentDrill*%
%ADD10C,1.750000*%
%TD*%
%TA.AperFunction,ComponentDrill*%
%ADD11C,2.200000*%
%TD*%
%TA.AperFunction,ComponentDrill*%
%ADD12C,3.200000*%
%TD*%
%TA.AperFunction,ComponentDrill*%
%ADD13C,4.000000*%
%TD*%
G04 APERTURE END LIST*
D10*
%TO.C,SW1*%
X57205000Y-109202500D03*
%TO.C,SW56*%
X59586250Y-185402500D03*
%TO.C,SW15*%
X61967500Y-128252500D03*
%TO.C,SW29*%
X64348750Y-147302500D03*
%TO.C,SW1*%
X67365000Y-109202500D03*
%TO.C,SW43*%
X69111250Y-166352500D03*
%TO.C,SW56*%
X69746250Y-185402500D03*
%TO.C,SW15*%
X72127500Y-128252500D03*
%TO.C,SW29*%
X74508750Y-147302500D03*
%TO.C,SW2*%
X76255000Y-109202500D03*
%TO.C,SW43*%
X79271250Y-166352500D03*
%TO.C,SW57*%
X83398750Y-185402500D03*
%TO.C,SW16*%
X85780000Y-128252500D03*
%TO.C,SW2*%
X86415000Y-109202500D03*
%TO.C,SW30*%
X90542500Y-147302500D03*
%TO.C,SW57*%
X93558750Y-185402500D03*
%TO.C,SW3*%
X95305000Y-109202500D03*
%TO.C,SW16*%
X95940000Y-128252500D03*
%TO.C,SW44*%
X100067500Y-166352500D03*
%TO.C,SW30*%
X100702500Y-147302500D03*
%TO.C,SW17*%
X104830000Y-128252500D03*
%TO.C,SW3*%
X105465000Y-109202500D03*
%TO.C,SW58*%
X107211250Y-185402500D03*
%TO.C,SW31*%
X109592500Y-147302500D03*
%TO.C,SW44*%
X110227500Y-166352500D03*
%TO.C,SW4*%
X114355000Y-109202500D03*
%TO.C,SW17*%
X114990000Y-128252500D03*
%TO.C,SW58*%
X117371250Y-185402500D03*
%TO.C,SW45*%
X119117500Y-166352500D03*
%TO.C,SW31*%
X119752500Y-147302500D03*
%TO.C,SW18*%
X123880000Y-128252500D03*
%TO.C,SW4*%
X124515000Y-109202500D03*
%TO.C,SW32*%
X128642500Y-147302500D03*
%TO.C,SW45*%
X129277500Y-166352500D03*
%TO.C,SW5*%
X133405000Y-109202500D03*
%TO.C,SW18*%
X134040000Y-128252500D03*
%TO.C,SW46*%
X138167500Y-166352500D03*
%TO.C,SW32*%
X138802500Y-147302500D03*
%TO.C,SW19*%
X142930000Y-128252500D03*
%TO.C,SW5*%
X143565000Y-109202500D03*
%TO.C,SW33*%
X147692500Y-147302500D03*
%TO.C,SW46*%
X148327500Y-166352500D03*
%TO.C,SW6*%
X152455000Y-109202500D03*
%TO.C,SW19*%
X153090000Y-128252500D03*
%TO.C,SW47*%
X157217500Y-166352500D03*
%TO.C,SW33*%
X157852500Y-147302500D03*
%TO.C,SW20*%
X161980000Y-128252500D03*
%TO.C,SW6*%
X162615000Y-109202500D03*
%TO.C,SW34*%
X166742500Y-147302500D03*
%TO.C,SW47*%
X167377500Y-166352500D03*
%TO.C,SW7*%
X171505000Y-109202500D03*
%TO.C,SW20*%
X172140000Y-128252500D03*
%TO.C,SW48*%
X176267500Y-166352500D03*
%TO.C,SW34*%
X176902500Y-147302500D03*
%TO.C,SW59*%
X178648750Y-185402500D03*
%TO.C,SW21*%
X181030000Y-128252500D03*
%TO.C,SW7*%
X181665000Y-109202500D03*
%TO.C,SW35*%
X185792500Y-147302500D03*
%TO.C,SW48*%
X186427500Y-166352500D03*
%TO.C,SW59*%
X188808750Y-185402500D03*
%TO.C,SW8*%
X190555000Y-109202500D03*
%TO.C,SW21*%
X191190000Y-128252500D03*
%TO.C,SW49*%
X195317500Y-166352500D03*
%TO.C,SW35*%
X195952500Y-147302500D03*
%TO.C,SW22*%
X200080000Y-128252500D03*
%TO.C,SW8*%
X200715000Y-109202500D03*
%TO.C,SW36*%
X204842500Y-147302500D03*
%TO.C,SW49*%
X205477500Y-166352500D03*
%TO.C,SW9*%
X209605000Y-109202500D03*
%TO.C,SW22*%
X210240000Y-128252500D03*
%TO.C,SW50*%
X214367500Y-166352500D03*
%TO.C,SW36*%
X215002500Y-147302500D03*
%TO.C,SW23*%
X219130000Y-128252500D03*
%TO.C,SW9*%
X219765000Y-109202500D03*
%TO.C,SW37*%
X223892500Y-147302500D03*
%TO.C,SW50*%
X224527500Y-166352500D03*
%TO.C,SW10*%
X228655000Y-109202500D03*
%TO.C,SW23*%
X229290000Y-128252500D03*
%TO.C,SW51*%
X233417500Y-166352500D03*
%TO.C,SW37*%
X234052500Y-147302500D03*
%TO.C,SW24*%
X238180000Y-128252500D03*
%TO.C,SW10*%
X238815000Y-109202500D03*
%TO.C,SW38*%
X242942500Y-147302500D03*
%TO.C,SW51*%
X243577500Y-166352500D03*
%TO.C,SW11*%
X247705000Y-109202500D03*
%TO.C,SW60*%
X247705000Y-185402500D03*
%TO.C,SW24*%
X248340000Y-128252500D03*
%TO.C,SW52*%
X252467500Y-166352500D03*
%TO.C,SW38*%
X253102500Y-147302500D03*
%TO.C,SW25*%
X257230000Y-128252500D03*
%TO.C,SW11*%
X257865000Y-109202500D03*
%TO.C,SW60*%
X257865000Y-185402500D03*
%TO.C,SW39*%
X261992500Y-147302500D03*
%TO.C,SW52*%
X262627500Y-166352500D03*
%TO.C,SW12*%
X266755000Y-109202500D03*
%TO.C,SW61*%
X266755000Y-185402500D03*
%TO.C,SW25*%
X267390000Y-128252500D03*
%TO.C,SW53*%
X271517500Y-166352500D03*
%TO.C,SW39*%
X272152500Y-147302500D03*
%TO.C,SW26*%
X276280000Y-128252500D03*
%TO.C,SW12*%
X276915000Y-109202500D03*
%TO.C,SW61*%
X276915000Y-185402500D03*
%TO.C,SW40*%
X281042500Y-147302500D03*
%TO.C,SW53*%
X281677500Y-166352500D03*
%TO.C,SW13*%
X285805000Y-109202500D03*
%TO.C,SW62*%
X285805000Y-185402500D03*
%TO.C,SW26*%
X286440000Y-128252500D03*
%TO.C,SW40*%
X291202500Y-147302500D03*
%TO.C,SW27*%
X295330000Y-128252500D03*
%TO.C,SW13*%
X295965000Y-109202500D03*
%TO.C,SW62*%
X295965000Y-185402500D03*
%TO.C,SW54*%
X297711250Y-166352500D03*
%TO.C,SW14*%
X304855000Y-109202500D03*
%TO.C,SW63*%
X304855000Y-185402500D03*
%TO.C,SW27*%
X305490000Y-128252500D03*
%TO.C,SW54*%
X307871250Y-166352500D03*
%TO.C,SW41*%
X311998750Y-147302500D03*
%TO.C,SW14*%
X315015000Y-109202500D03*
%TO.C,SW63*%
X315015000Y-185402500D03*
%TO.C,SW41*%
X322158750Y-147302500D03*
%TO.C,SW28*%
X323905000Y-128252500D03*
%TO.C,SW55*%
X323905000Y-166352500D03*
%TO.C,SW64*%
X323905000Y-185402500D03*
%TO.C,SW28*%
X334065000Y-128252500D03*
%TO.C,SW55*%
X334065000Y-166352500D03*
%TO.C,SW64*%
X334065000Y-185402500D03*
%TO.C,SW65*%
X342955000Y-185402500D03*
%TO.C,SW42*%
X347717500Y-147302500D03*
%TO.C,SW65*%
X353115000Y-185402500D03*
%TO.C,SW42*%
X357877500Y-147302500D03*
D11*
%TO.C,J1*%
X191598050Y-67302500D03*
X191598050Y-90302500D03*
X212602500Y-67302500D03*
X212602500Y-90302500D03*
D12*
%TO.C,H1*%
X54872500Y-62802500D03*
%TO.C,H4*%
X54872500Y-202802500D03*
%TO.C,H2*%
X367872500Y-62802500D03*
%TO.C,H3*%
X367872500Y-202802500D03*
D13*
%TO.C,SW1*%
X62285000Y-109202500D03*
%TO.C,SW56*%
X64666250Y-185402500D03*
%TO.C,SW15*%
X67047500Y-128252500D03*
%TO.C,SW29*%
X69428750Y-147302500D03*
%TO.C,SW43*%
X74191250Y-166352500D03*
%TO.C,SW2*%
X81335000Y-109202500D03*
%TO.C,SW57*%
X88478750Y-185402500D03*
%TO.C,SW16*%
X90860000Y-128252500D03*
%TO.C,SW30*%
X95622500Y-147302500D03*
%TO.C,SW3*%
X100385000Y-109202500D03*
%TO.C,SW44*%
X105147500Y-166352500D03*
%TO.C,SW17*%
X109910000Y-128252500D03*
%TO.C,SW58*%
X112291250Y-185402500D03*
%TO.C,SW31*%
X114672500Y-147302500D03*
%TO.C,SW4*%
X119435000Y-109202500D03*
%TO.C,SW45*%
X124197500Y-166352500D03*
%TO.C,SW18*%
X128960000Y-128252500D03*
%TO.C,SW32*%
X133722500Y-147302500D03*
%TO.C,SW5*%
X138485000Y-109202500D03*
%TO.C,SW46*%
X143247500Y-166352500D03*
%TO.C,SW19*%
X148010000Y-128252500D03*
%TO.C,SW33*%
X152772500Y-147302500D03*
%TO.C,SW6*%
X157535000Y-109202500D03*
%TO.C,SW47*%
X162297500Y-166352500D03*
%TO.C,SW20*%
X167060000Y-128252500D03*
%TO.C,SW34*%
X171822500Y-147302500D03*
%TO.C,SW7*%
X176585000Y-109202500D03*
%TO.C,SW48*%
X181347500Y-166352500D03*
%TO.C,SW59*%
X183728750Y-185402500D03*
%TO.C,SW21*%
X186110000Y-128252500D03*
%TO.C,SW35*%
X190872500Y-147302500D03*
%TO.C,SW8*%
X195635000Y-109202500D03*
%TO.C,SW49*%
X200397500Y-166352500D03*
%TO.C,SW22*%
X205160000Y-128252500D03*
%TO.C,SW36*%
X209922500Y-147302500D03*
%TO.C,SW9*%
X214685000Y-109202500D03*
%TO.C,SW50*%
X219447500Y-166352500D03*
%TO.C,SW23*%
X224210000Y-128252500D03*
%TO.C,SW37*%
X228972500Y-147302500D03*
%TO.C,SW10*%
X233735000Y-109202500D03*
%TO.C,SW51*%
X238497500Y-166352500D03*
%TO.C,SW24*%
X243260000Y-128252500D03*
%TO.C,SW38*%
X248022500Y-147302500D03*
%TO.C,SW11*%
X252785000Y-109202500D03*
%TO.C,SW60*%
X252785000Y-185402500D03*
%TO.C,SW52*%
X257547500Y-166352500D03*
%TO.C,SW25*%
X262310000Y-128252500D03*
%TO.C,SW39*%
X267072500Y-147302500D03*
%TO.C,SW12*%
X271835000Y-109202500D03*
%TO.C,SW61*%
X271835000Y-185402500D03*
%TO.C,SW53*%
X276597500Y-166352500D03*
%TO.C,SW26*%
X281360000Y-128252500D03*
%TO.C,SW40*%
X286122500Y-147302500D03*
%TO.C,SW13*%
X290885000Y-109202500D03*
%TO.C,SW62*%
X290885000Y-185402500D03*
%TO.C,SW27*%
X300410000Y-128252500D03*
%TO.C,SW54*%
X302791250Y-166352500D03*
%TO.C,SW14*%
X309935000Y-109202500D03*
%TO.C,SW63*%
X309935000Y-185402500D03*
%TO.C,SW41*%
X317078750Y-147302500D03*
%TO.C,SW28*%
X328985000Y-128252500D03*
%TO.C,SW55*%
X328985000Y-166352500D03*
%TO.C,SW64*%
X328985000Y-185402500D03*
%TO.C,SW65*%
X348035000Y-185402500D03*
%TO.C,SW42*%
X352797500Y-147302500D03*
M02*
