%TF.GenerationSoftware,KiCad,Pcbnew,9.0.7*%
%TF.CreationDate,2026-06-20T10:19:00+03:00*%
%TF.ProjectId,MechanicalDIY,4d656368-616e-4696-9361-6c4449592e6b,rev?*%
%TF.SameCoordinates,Original*%
%TF.FileFunction,Soldermask,Bot*%
%TF.FilePolarity,Negative*%
%FSLAX46Y46*%
G04 Gerber Fmt 4.6, Leading zero omitted, Abs format (unit mm)*
G04 Created by KiCad (PCBNEW 9.0.7) date 2026-06-20 10:19:00*
%MOMM*%
%LPD*%
G01*
G04 APERTURE LIST*
G04 Aperture macros list*
%AMRoundRect*
0 Rectangle with rounded corners*
0 $1 Rounding radius*
0 $2 $3 $4 $5 $6 $7 $8 $9 X,Y pos of 4 corners*
0 Add a 4 corners polygon primitive as box body*
4,1,4,$2,$3,$4,$5,$6,$7,$8,$9,$2,$3,0*
0 Add four circle primitives for the rounded corners*
1,1,$1+$1,$2,$3*
1,1,$1+$1,$4,$5*
1,1,$1+$1,$6,$7*
1,1,$1+$1,$8,$9*
0 Add four rect primitives between the rounded corners*
20,1,$1+$1,$2,$3,$4,$5,0*
20,1,$1+$1,$4,$5,$6,$7,0*
20,1,$1+$1,$6,$7,$8,$9,0*
20,1,$1+$1,$8,$9,$2,$3,0*%
G04 Aperture macros list end*
%ADD10C,1.750000*%
%ADD11C,4.000000*%
%ADD12C,2.500000*%
%ADD13C,1.752600*%
%ADD14C,3.200000*%
%ADD15RoundRect,0.250000X-0.625000X0.350000X-0.625000X-0.350000X0.625000X-0.350000X0.625000X0.350000X0*%
%ADD16O,1.750000X1.200000*%
%ADD17O,3.500000X2.200000*%
%ADD18R,2.500000X1.500000*%
%ADD19O,2.500000X1.500000*%
%ADD20C,2.404000*%
%ADD21RoundRect,0.102000X0.754000X0.754000X-0.754000X0.754000X-0.754000X-0.754000X0.754000X-0.754000X0*%
%ADD22C,1.712000*%
%ADD23R,1.600000X1.600000*%
%ADD24O,1.600000X1.600000*%
G04 APERTURE END LIST*
D10*
%TO.C,SW1*%
X57205000Y-109202500D03*
D11*
X62285000Y-109202500D03*
D10*
X67365000Y-109202500D03*
D12*
X58475000Y-106662500D03*
X64825000Y-104122500D03*
%TD*%
D10*
%TO.C,SW24*%
X238180000Y-128252500D03*
D11*
X243260000Y-128252500D03*
D10*
X248340000Y-128252500D03*
D12*
X239450000Y-125712500D03*
X245800000Y-123172500D03*
%TD*%
D13*
%TO.C,U1*%
X368532500Y-92562500D03*
X365992500Y-92562500D03*
X363452500Y-92562500D03*
X360912500Y-92562500D03*
X358372500Y-92562500D03*
X355832500Y-92562500D03*
X353292500Y-92562500D03*
X350752500Y-92562500D03*
X348212500Y-92562500D03*
X345672500Y-92562500D03*
X343132500Y-92562500D03*
X340592500Y-92562500D03*
X340592500Y-107802500D03*
X343132500Y-107802500D03*
X345672500Y-107802500D03*
X348212500Y-107802500D03*
X350752500Y-107802500D03*
X353292500Y-107802500D03*
X355832500Y-107802500D03*
X358372500Y-107802500D03*
X360912500Y-107802500D03*
X363452500Y-107802500D03*
X365992500Y-107802500D03*
X368532500Y-107802500D03*
X345672500Y-95102500D03*
X345672500Y-97642500D03*
X345672500Y-100182500D03*
%TD*%
D10*
%TO.C,SW65*%
X342955000Y-185402500D03*
D11*
X348035000Y-185402500D03*
D10*
X353115000Y-185402500D03*
D12*
X344225000Y-182862500D03*
X350575000Y-180322500D03*
%TD*%
D10*
%TO.C,SW17*%
X104830000Y-128252500D03*
D11*
X109910000Y-128252500D03*
D10*
X114990000Y-128252500D03*
D12*
X106100000Y-125712500D03*
X112450000Y-123172500D03*
%TD*%
D10*
%TO.C,SW29*%
X64348750Y-147302500D03*
D11*
X69428750Y-147302500D03*
D10*
X74508750Y-147302500D03*
D12*
X65618750Y-144762500D03*
X71968750Y-142222500D03*
%TD*%
D10*
%TO.C,SW30*%
X90542500Y-147302500D03*
D11*
X95622500Y-147302500D03*
D10*
X100702500Y-147302500D03*
D12*
X91812500Y-144762500D03*
X98162500Y-142222500D03*
%TD*%
D14*
%TO.C,H4*%
X54872500Y-202802500D03*
%TD*%
D10*
%TO.C,SW13*%
X285805000Y-109202500D03*
D11*
X290885000Y-109202500D03*
D10*
X295965000Y-109202500D03*
D12*
X287075000Y-106662500D03*
X293425000Y-104122500D03*
%TD*%
D10*
%TO.C,SW10*%
X228655000Y-109202500D03*
D11*
X233735000Y-109202500D03*
D10*
X238815000Y-109202500D03*
D12*
X229925000Y-106662500D03*
X236275000Y-104122500D03*
%TD*%
D10*
%TO.C,SW2*%
X76255000Y-109202500D03*
D11*
X81335000Y-109202500D03*
D10*
X86415000Y-109202500D03*
D12*
X77525000Y-106662500D03*
X83875000Y-104122500D03*
%TD*%
D10*
%TO.C,SW50*%
X214367500Y-166352500D03*
D11*
X219447500Y-166352500D03*
D10*
X224527500Y-166352500D03*
D12*
X215637500Y-163812500D03*
X221987500Y-161272500D03*
%TD*%
D10*
%TO.C,SW11*%
X247705000Y-109202500D03*
D11*
X252785000Y-109202500D03*
D10*
X257865000Y-109202500D03*
D12*
X248975000Y-106662500D03*
X255325000Y-104122500D03*
%TD*%
D10*
%TO.C,SW19*%
X142930000Y-128252500D03*
D11*
X148010000Y-128252500D03*
D10*
X153090000Y-128252500D03*
D12*
X144200000Y-125712500D03*
X150550000Y-123172500D03*
%TD*%
D10*
%TO.C,SW26*%
X276280000Y-128252500D03*
D11*
X281360000Y-128252500D03*
D10*
X286440000Y-128252500D03*
D12*
X277550000Y-125712500D03*
X283900000Y-123172500D03*
%TD*%
D10*
%TO.C,SW49*%
X195317500Y-166352500D03*
D11*
X200397500Y-166352500D03*
D10*
X205477500Y-166352500D03*
D12*
X196587500Y-163812500D03*
X202937500Y-161272500D03*
%TD*%
D15*
%TO.C,J2*%
X329872500Y-74302500D03*
D16*
X329872500Y-76302500D03*
%TD*%
D10*
%TO.C,SW48*%
X176267500Y-166352500D03*
D11*
X181347500Y-166352500D03*
D10*
X186427500Y-166352500D03*
D12*
X177537500Y-163812500D03*
X183887500Y-161272500D03*
%TD*%
D10*
%TO.C,SW21*%
X181030000Y-128252500D03*
D11*
X186110000Y-128252500D03*
D10*
X191190000Y-128252500D03*
D12*
X182300000Y-125712500D03*
X188650000Y-123172500D03*
%TD*%
D10*
%TO.C,SW7*%
X171505000Y-109202500D03*
D11*
X176585000Y-109202500D03*
D10*
X181665000Y-109202500D03*
D12*
X172775000Y-106662500D03*
X179125000Y-104122500D03*
%TD*%
D10*
%TO.C,SW36*%
X204842500Y-147302500D03*
D11*
X209922500Y-147302500D03*
D10*
X215002500Y-147302500D03*
D12*
X206112500Y-144762500D03*
X212462500Y-142222500D03*
%TD*%
D10*
%TO.C,SW53*%
X271517500Y-166352500D03*
D11*
X276597500Y-166352500D03*
D10*
X281677500Y-166352500D03*
D12*
X272787500Y-163812500D03*
X279137500Y-161272500D03*
%TD*%
D10*
%TO.C,SW37*%
X223892500Y-147302500D03*
D11*
X228972500Y-147302500D03*
D10*
X234052500Y-147302500D03*
D12*
X225162500Y-144762500D03*
X231512500Y-142222500D03*
%TD*%
D10*
%TO.C,SW62*%
X285805000Y-185402500D03*
D11*
X290885000Y-185402500D03*
D10*
X295965000Y-185402500D03*
D12*
X287075000Y-182862500D03*
X293425000Y-180322500D03*
%TD*%
D10*
%TO.C,SW64*%
X323905000Y-185402500D03*
D11*
X328985000Y-185402500D03*
D10*
X334065000Y-185402500D03*
D12*
X325175000Y-182862500D03*
X331525000Y-180322500D03*
%TD*%
D10*
%TO.C,SW54*%
X297711250Y-166352500D03*
D11*
X302791250Y-166352500D03*
D10*
X307871250Y-166352500D03*
D12*
X298981250Y-163812500D03*
X305331250Y-161272500D03*
%TD*%
D10*
%TO.C,SW39*%
X261992500Y-147302500D03*
D11*
X267072500Y-147302500D03*
D10*
X272152500Y-147302500D03*
D12*
X263262500Y-144762500D03*
X269612500Y-142222500D03*
%TD*%
D14*
%TO.C,H3*%
X367872500Y-202802500D03*
%TD*%
D10*
%TO.C,SW22*%
X200080000Y-128252500D03*
D11*
X205160000Y-128252500D03*
D10*
X210240000Y-128252500D03*
D12*
X201350000Y-125712500D03*
X207700000Y-123172500D03*
%TD*%
D10*
%TO.C,SW47*%
X157217500Y-166352500D03*
D11*
X162297500Y-166352500D03*
D10*
X167377500Y-166352500D03*
D12*
X158487500Y-163812500D03*
X164837500Y-161272500D03*
%TD*%
D17*
%TO.C,On1*%
X369872500Y-79402500D03*
X369872500Y-71202500D03*
D18*
X369872500Y-77302500D03*
D19*
X369872500Y-75302500D03*
X369872500Y-73302500D03*
%TD*%
D10*
%TO.C,SW23*%
X219130000Y-128252500D03*
D11*
X224210000Y-128252500D03*
D10*
X229290000Y-128252500D03*
D12*
X220400000Y-125712500D03*
X226750000Y-123172500D03*
%TD*%
D14*
%TO.C,H1*%
X54872500Y-62802500D03*
%TD*%
D10*
%TO.C,SW35*%
X185792500Y-147302500D03*
D11*
X190872500Y-147302500D03*
D10*
X195952500Y-147302500D03*
D12*
X187062500Y-144762500D03*
X193412500Y-142222500D03*
%TD*%
D10*
%TO.C,SW32*%
X128642500Y-147302500D03*
D11*
X133722500Y-147302500D03*
D10*
X138802500Y-147302500D03*
D12*
X129912500Y-144762500D03*
X136262500Y-142222500D03*
%TD*%
D10*
%TO.C,SW42*%
X347717500Y-147302500D03*
D11*
X352797500Y-147302500D03*
D10*
X357877500Y-147302500D03*
D12*
X348987500Y-144762500D03*
X355337500Y-142222500D03*
%TD*%
D10*
%TO.C,SW51*%
X233417500Y-166352500D03*
D11*
X238497500Y-166352500D03*
D10*
X243577500Y-166352500D03*
D12*
X234687500Y-163812500D03*
X241037500Y-161272500D03*
%TD*%
D10*
%TO.C,SW6*%
X152455000Y-109202500D03*
D11*
X157535000Y-109202500D03*
D10*
X162615000Y-109202500D03*
D12*
X153725000Y-106662500D03*
X160075000Y-104122500D03*
%TD*%
D10*
%TO.C,SW43*%
X69111250Y-166352500D03*
D11*
X74191250Y-166352500D03*
D10*
X79271250Y-166352500D03*
D12*
X70381250Y-163812500D03*
X76731250Y-161272500D03*
%TD*%
D10*
%TO.C,SW58*%
X107211250Y-185402500D03*
D11*
X112291250Y-185402500D03*
D10*
X117371250Y-185402500D03*
D12*
X108481250Y-182862500D03*
X114831250Y-180322500D03*
%TD*%
D10*
%TO.C,SW52*%
X252467500Y-166352500D03*
D11*
X257547500Y-166352500D03*
D10*
X262627500Y-166352500D03*
D12*
X253737500Y-163812500D03*
X260087500Y-161272500D03*
%TD*%
D10*
%TO.C,SW16*%
X85780000Y-128252500D03*
D11*
X90860000Y-128252500D03*
D10*
X95940000Y-128252500D03*
D12*
X87050000Y-125712500D03*
X93400000Y-123172500D03*
%TD*%
D10*
%TO.C,SW27*%
X295330000Y-128252500D03*
D11*
X300410000Y-128252500D03*
D10*
X305490000Y-128252500D03*
D12*
X296600000Y-125712500D03*
X302950000Y-123172500D03*
%TD*%
D10*
%TO.C,SW34*%
X166742500Y-147302500D03*
D11*
X171822500Y-147302500D03*
D10*
X176902500Y-147302500D03*
D12*
X168012500Y-144762500D03*
X174362500Y-142222500D03*
%TD*%
D10*
%TO.C,SW15*%
X61967500Y-128252500D03*
D11*
X67047500Y-128252500D03*
D10*
X72127500Y-128252500D03*
D12*
X63237500Y-125712500D03*
X69587500Y-123172500D03*
%TD*%
D10*
%TO.C,SW59*%
X178648750Y-185402500D03*
D11*
X183728750Y-185402500D03*
D10*
X188808750Y-185402500D03*
D12*
X179918750Y-182862500D03*
X186268750Y-180322500D03*
%TD*%
D10*
%TO.C,SW56*%
X59586250Y-185402500D03*
D11*
X64666250Y-185402500D03*
D10*
X69746250Y-185402500D03*
D12*
X60856250Y-182862500D03*
X67206250Y-180322500D03*
%TD*%
D10*
%TO.C,SW28*%
X323905000Y-128252500D03*
D11*
X328985000Y-128252500D03*
D10*
X334065000Y-128252500D03*
D12*
X325175000Y-125712500D03*
X331525000Y-123172500D03*
%TD*%
D10*
%TO.C,SW45*%
X119117500Y-166352500D03*
D11*
X124197500Y-166352500D03*
D10*
X129277500Y-166352500D03*
D12*
X120387500Y-163812500D03*
X126737500Y-161272500D03*
%TD*%
D10*
%TO.C,SW14*%
X304855000Y-109202500D03*
D11*
X309935000Y-109202500D03*
D10*
X315015000Y-109202500D03*
D12*
X306125000Y-106662500D03*
X312475000Y-104122500D03*
%TD*%
D10*
%TO.C,SW20*%
X161980000Y-128252500D03*
D11*
X167060000Y-128252500D03*
D10*
X172140000Y-128252500D03*
D12*
X163250000Y-125712500D03*
X169600000Y-123172500D03*
%TD*%
D10*
%TO.C,SW5*%
X133405000Y-109202500D03*
D11*
X138485000Y-109202500D03*
D10*
X143565000Y-109202500D03*
D12*
X134675000Y-106662500D03*
X141025000Y-104122500D03*
%TD*%
D10*
%TO.C,SW8*%
X190555000Y-109202500D03*
D11*
X195635000Y-109202500D03*
D10*
X200715000Y-109202500D03*
D12*
X191825000Y-106662500D03*
X198175000Y-104122500D03*
%TD*%
D10*
%TO.C,SW44*%
X100067500Y-166352500D03*
D11*
X105147500Y-166352500D03*
D10*
X110227500Y-166352500D03*
D12*
X101337500Y-163812500D03*
X107687500Y-161272500D03*
%TD*%
D10*
%TO.C,SW40*%
X281042500Y-147302500D03*
D11*
X286122500Y-147302500D03*
D10*
X291202500Y-147302500D03*
D12*
X282312500Y-144762500D03*
X288662500Y-142222500D03*
%TD*%
D10*
%TO.C,SW3*%
X95305000Y-109202500D03*
D11*
X100385000Y-109202500D03*
D10*
X105465000Y-109202500D03*
D12*
X96575000Y-106662500D03*
X102925000Y-104122500D03*
%TD*%
D10*
%TO.C,SW41*%
X311998750Y-147302500D03*
D11*
X317078750Y-147302500D03*
D10*
X322158750Y-147302500D03*
D12*
X313268750Y-144762500D03*
X319618750Y-142222500D03*
%TD*%
D10*
%TO.C,SW9*%
X209605000Y-109202500D03*
D11*
X214685000Y-109202500D03*
D10*
X219765000Y-109202500D03*
D12*
X210875000Y-106662500D03*
X217225000Y-104122500D03*
%TD*%
D14*
%TO.C,H2*%
X367872500Y-62802500D03*
%TD*%
D10*
%TO.C,SW25*%
X257230000Y-128252500D03*
D11*
X262310000Y-128252500D03*
D10*
X267390000Y-128252500D03*
D12*
X258500000Y-125712500D03*
X264850000Y-123172500D03*
%TD*%
D10*
%TO.C,SW63*%
X304855000Y-185402500D03*
D11*
X309935000Y-185402500D03*
D10*
X315015000Y-185402500D03*
D12*
X306125000Y-182862500D03*
X312475000Y-180322500D03*
%TD*%
D10*
%TO.C,SW4*%
X114355000Y-109202500D03*
D11*
X119435000Y-109202500D03*
D10*
X124515000Y-109202500D03*
D12*
X115625000Y-106662500D03*
X121975000Y-104122500D03*
%TD*%
D10*
%TO.C,SW46*%
X138167500Y-166352500D03*
D11*
X143247500Y-166352500D03*
D10*
X148327500Y-166352500D03*
D12*
X139437500Y-163812500D03*
X145787500Y-161272500D03*
%TD*%
D10*
%TO.C,SW12*%
X266755000Y-109202500D03*
D11*
X271835000Y-109202500D03*
D10*
X276915000Y-109202500D03*
D12*
X268025000Y-106662500D03*
X274375000Y-104122500D03*
%TD*%
D10*
%TO.C,SW61*%
X266755000Y-185402500D03*
D11*
X271835000Y-185402500D03*
D10*
X276915000Y-185402500D03*
D12*
X268025000Y-182862500D03*
X274375000Y-180322500D03*
%TD*%
D10*
%TO.C,SW57*%
X83398750Y-185402500D03*
D11*
X88478750Y-185402500D03*
D10*
X93558750Y-185402500D03*
D12*
X84668750Y-182862500D03*
X91018750Y-180322500D03*
%TD*%
D10*
%TO.C,SW38*%
X242942500Y-147302500D03*
D11*
X248022500Y-147302500D03*
D10*
X253102500Y-147302500D03*
D12*
X244212500Y-144762500D03*
X250562500Y-142222500D03*
%TD*%
D10*
%TO.C,SW18*%
X123880000Y-128252500D03*
D11*
X128960000Y-128252500D03*
D10*
X134040000Y-128252500D03*
D12*
X125150000Y-125712500D03*
X131500000Y-123172500D03*
%TD*%
D20*
%TO.C,J1*%
X191598050Y-67302500D03*
X191598050Y-90302500D03*
X212602500Y-67302500D03*
X212602500Y-90302500D03*
D21*
X205912500Y-90802500D03*
D22*
X203372500Y-90802500D03*
X200832500Y-90802500D03*
X198292500Y-90802500D03*
%TD*%
D10*
%TO.C,SW33*%
X147692500Y-147302500D03*
D11*
X152772500Y-147302500D03*
D10*
X157852500Y-147302500D03*
D12*
X148962500Y-144762500D03*
X155312500Y-142222500D03*
%TD*%
D10*
%TO.C,SW55*%
X323905000Y-166352500D03*
D11*
X328985000Y-166352500D03*
D10*
X334065000Y-166352500D03*
D12*
X325175000Y-163812500D03*
X331525000Y-161272500D03*
%TD*%
D10*
%TO.C,SW60*%
X247705000Y-185402500D03*
D11*
X252785000Y-185402500D03*
D10*
X257865000Y-185402500D03*
D12*
X248975000Y-182862500D03*
X255325000Y-180322500D03*
%TD*%
D10*
%TO.C,SW31*%
X109592500Y-147302500D03*
D11*
X114672500Y-147302500D03*
D10*
X119752500Y-147302500D03*
D12*
X110862500Y-144762500D03*
X117212500Y-142222500D03*
%TD*%
D23*
%TO.C,D53*%
X307871250Y-170352500D03*
D24*
X307871250Y-162732500D03*
%TD*%
D23*
%TO.C,D56*%
X69746250Y-189402500D03*
D24*
X69746250Y-181782500D03*
%TD*%
D23*
%TO.C,D46*%
X167377500Y-170352500D03*
D24*
X167377500Y-162732500D03*
%TD*%
D23*
%TO.C,D82*%
X334065000Y-132252500D03*
D24*
X334065000Y-124632500D03*
%TD*%
D23*
%TO.C,D44*%
X129277500Y-170352500D03*
D24*
X129277500Y-162732500D03*
%TD*%
D23*
%TO.C,D38*%
X272152500Y-151302500D03*
D24*
X272152500Y-143682500D03*
%TD*%
D23*
%TO.C,D9*%
X86415000Y-113202500D03*
D24*
X86415000Y-105582500D03*
%TD*%
D23*
%TO.C,D39*%
X291202500Y-151302500D03*
D24*
X291202500Y-143682500D03*
%TD*%
D23*
%TO.C,D17*%
X191190000Y-132252500D03*
D24*
X191190000Y-124632500D03*
%TD*%
D23*
%TO.C,D16*%
X172140000Y-132252500D03*
D24*
X172140000Y-124632500D03*
%TD*%
D23*
%TO.C,D15*%
X153090000Y-132252500D03*
D24*
X153090000Y-124632500D03*
%TD*%
D23*
%TO.C,D81*%
X305490000Y-132252500D03*
D24*
X305490000Y-124632500D03*
%TD*%
D23*
%TO.C,D47*%
X186427500Y-170352500D03*
D24*
X186427500Y-162732500D03*
%TD*%
D23*
%TO.C,D3*%
X200715000Y-113202500D03*
D24*
X200715000Y-105582500D03*
%TD*%
D23*
%TO.C,D51*%
X262627500Y-170352500D03*
D24*
X262627500Y-162732500D03*
%TD*%
D23*
%TO.C,D31*%
X138802500Y-151302500D03*
D24*
X138802500Y-143682500D03*
%TD*%
D23*
%TO.C,D58*%
X117371250Y-189402500D03*
D24*
X117371250Y-181782500D03*
%TD*%
D23*
%TO.C,D41*%
X357877500Y-151302500D03*
D24*
X357877500Y-143682500D03*
%TD*%
D23*
%TO.C,D45*%
X148327500Y-170352500D03*
D24*
X148327500Y-162732500D03*
%TD*%
D23*
%TO.C,D8*%
X105465000Y-113202500D03*
D24*
X105465000Y-105582500D03*
%TD*%
D23*
%TO.C,D7*%
X124515000Y-113202500D03*
D24*
X124515000Y-105582500D03*
%TD*%
D23*
%TO.C,D25*%
X295965000Y-113202500D03*
D24*
X295965000Y-105582500D03*
%TD*%
D23*
%TO.C,D50*%
X243577500Y-170352500D03*
D24*
X243577500Y-162732500D03*
%TD*%
D23*
%TO.C,D18*%
X210240000Y-132252500D03*
D24*
X210240000Y-124632500D03*
%TD*%
D23*
%TO.C,D19*%
X229290000Y-132252500D03*
D24*
X229290000Y-124632500D03*
%TD*%
D23*
%TO.C,D32*%
X157852500Y-151302500D03*
D24*
X157852500Y-143682500D03*
%TD*%
D23*
%TO.C,D65*%
X353115000Y-189402500D03*
D24*
X353115000Y-181782500D03*
%TD*%
D23*
%TO.C,D10*%
X67365000Y-113202500D03*
D24*
X67365000Y-105582500D03*
%TD*%
D23*
%TO.C,D52*%
X281677500Y-170352500D03*
D24*
X281677500Y-162732500D03*
%TD*%
D23*
%TO.C,D4*%
X181665000Y-113202500D03*
D24*
X181665000Y-105582500D03*
%TD*%
D23*
%TO.C,D34*%
X195952500Y-151302500D03*
D24*
X195952500Y-143682500D03*
%TD*%
D23*
%TO.C,D42*%
X79271250Y-170352500D03*
D24*
X79271250Y-162732500D03*
%TD*%
D23*
%TO.C,D48*%
X205477500Y-170352500D03*
D24*
X205477500Y-162732500D03*
%TD*%
D23*
%TO.C,D1*%
X238815000Y-113202500D03*
D24*
X238815000Y-105582500D03*
%TD*%
D23*
%TO.C,D11*%
X72127500Y-132252500D03*
D24*
X72127500Y-124632500D03*
%TD*%
D23*
%TO.C,D2*%
X219765000Y-113202500D03*
D24*
X219765000Y-105582500D03*
%TD*%
D23*
%TO.C,D49*%
X224527500Y-170352500D03*
D24*
X224527500Y-162732500D03*
%TD*%
D23*
%TO.C,D13*%
X114990000Y-132252500D03*
D24*
X114990000Y-124632500D03*
%TD*%
D23*
%TO.C,D54*%
X334065000Y-170352500D03*
D24*
X334065000Y-162732500D03*
%TD*%
D23*
%TO.C,D60*%
X257865000Y-189402500D03*
D24*
X257865000Y-181782500D03*
%TD*%
D23*
%TO.C,D28*%
X74508750Y-151302500D03*
D24*
X74508750Y-143682500D03*
%TD*%
D23*
%TO.C,D22*%
X286440000Y-132252500D03*
D24*
X286440000Y-124632500D03*
%TD*%
D23*
%TO.C,D59*%
X188808750Y-189402500D03*
D24*
X188808750Y-181782500D03*
%TD*%
D23*
%TO.C,D61*%
X276915000Y-189402500D03*
D24*
X276915000Y-181782500D03*
%TD*%
D23*
%TO.C,D43*%
X110227500Y-170352500D03*
D24*
X110227500Y-162732500D03*
%TD*%
D23*
%TO.C,D35*%
X215002500Y-151302500D03*
D24*
X215002500Y-143682500D03*
%TD*%
D23*
%TO.C,D21*%
X267390000Y-132252500D03*
D24*
X267390000Y-124632500D03*
%TD*%
D23*
%TO.C,D5*%
X162615000Y-113202500D03*
D24*
X162615000Y-105582500D03*
%TD*%
D23*
%TO.C,D12*%
X95940000Y-132252500D03*
D24*
X95940000Y-124632500D03*
%TD*%
D23*
%TO.C,D37*%
X253102500Y-151302500D03*
D24*
X253102500Y-143682500D03*
%TD*%
D23*
%TO.C,D23*%
X257865000Y-113202500D03*
D24*
X257865000Y-105582500D03*
%TD*%
D23*
%TO.C,D63*%
X315015000Y-189402500D03*
D24*
X315015000Y-181782500D03*
%TD*%
D23*
%TO.C,D24*%
X276915000Y-113202500D03*
D24*
X276915000Y-105582500D03*
%TD*%
D23*
%TO.C,D29*%
X100702500Y-151302500D03*
D24*
X100702500Y-143682500D03*
%TD*%
D23*
%TO.C,D64*%
X334065000Y-189402500D03*
D24*
X334065000Y-181782500D03*
%TD*%
D23*
%TO.C,D57*%
X93558750Y-189402500D03*
D24*
X93558750Y-181782500D03*
%TD*%
D23*
%TO.C,D40*%
X322158750Y-151302500D03*
D24*
X322158750Y-143682500D03*
%TD*%
D23*
%TO.C,D20*%
X248340000Y-132252500D03*
D24*
X248340000Y-124632500D03*
%TD*%
D23*
%TO.C,D6*%
X143565000Y-113202500D03*
D24*
X143565000Y-105582500D03*
%TD*%
D23*
%TO.C,D14*%
X134040000Y-132252500D03*
D24*
X134040000Y-124632500D03*
%TD*%
D23*
%TO.C,D26*%
X315015000Y-113202500D03*
D24*
X315015000Y-105582500D03*
%TD*%
D23*
%TO.C,D36*%
X234052500Y-151302500D03*
D24*
X234052500Y-143682500D03*
%TD*%
D23*
%TO.C,D30*%
X119752500Y-151302500D03*
D24*
X119752500Y-143682500D03*
%TD*%
D23*
%TO.C,D33*%
X176902500Y-151302500D03*
D24*
X176902500Y-143682500D03*
%TD*%
D23*
%TO.C,D62*%
X295965000Y-189402500D03*
D24*
X295965000Y-181782500D03*
%TD*%
M02*
